<ttFont>
<head>
    <!-- Most of this table will be recalculated by the compiler -->
    <tableVersion value="1.0"/>
    <fontRevision value="2.00499"/>
    <checkSumAdjustment value="0x5abe8542"/>
    <magicNumber value="0x5f0f3cf5"/>
    <flags value="00100000 00001111"/>
    <unitsPerEm value="2048"/>
    <created value="Tue Feb 28 10:54:35 2023"/>
    <modified value="Wed Mar 22 12:27:41 2023"/>
    <xMin value="-285"/>
    <yMin value="-607"/>
    <xMax value="1390"/>
    <yMax value="2021"/>
    <macStyle value="00000000 00000010"/>
    <lowestRecPPEM value="7"/>
    <fontDirectionHint value="2"/>
    <indexToLocFormat value="0"/>
    <glyphDataFormat value="0"/>
  </head>
    <TTGlyph name=".notdef" xMin="-15" yMin="-303" xMax="1105" yMax="1513">
      <contour>
        <pt x="348" y="1513" on="1"/>
        <pt x="1105" y="1513" on="1"/>
        <pt x="742" y="-303" on="1"/>
        <pt x="-15" y="-303" on="1"/>
      </contour>
      <contour>
        <pt x="620" y="-151" on="1"/>
        <pt x="923" y="1362" on="1"/>
        <pt x="470" y="1362" on="1"/>
        <pt x="167" y="-151" on="1"/>
      </contour>
    </TTGlyph>
    <TTGlyph name="A" xMin="-21" yMin="0" xMax="867" yMax="1362">
      <contour>
        <pt x="639" y="1362" on="1"/>
        <pt x="756" y="1362" on="1"/>
        <pt x="867" y="0" on="1"/>
        <pt x="742" y="0" on="1"/>
        <pt x="715" y="403" on="1"/>
        <pt x="286" y="403" on="1"/>
        <pt x="94" y="0" on="1"/>
        <pt x="-21" y="0" on="1"/>
      </contour>
      <contour>
        <pt x="708" y="505" on="1"/>
        <pt x="663" y="1187" on="1"/>
        <pt x="335" y="505" on="1"/>
      </contour>
    </TTGlyph>
    <TTGlyph name="A.hex" xMin="-36" yMin="0" xMax="881" yMax="1210">
      <contour>
        <pt x="590" y="1210" on="1"/>
        <pt x="747" y="1210" on="1"/>
        <pt x="881" y="0" on="1"/>
        <pt x="715" y="0" on="1"/>
        <pt x="686" y="310" on="1"/>
        <pt x="275" y="310" on="1"/>
        <pt x="117" y="0" on="1"/>
        <pt x="-36" y="0" on="1"/>
      </contour>
      <contour>
        <pt x="673" y="446" on="1"/>
        <pt x="623" y="990" on="1"/>
        <pt x="344" y="446" on="1"/>
      </contour>
    </TTGlyph>
    <TTGlyph name="Aacute" xMin="-126" yMin="0" xMax="1007" yMax="1870">
      <component glyphName="A" x="-105" y="0" flags="0x400"/>
      <component glyphName="acutecomb.case" x="-105" y="0" flags="0x0"/>
    </TTGlyph>
    <TTGlyph name="Abreve" xMin="-126" yMin="0" xMax="974" yMax="1818">
      <component glyphName="A" x="-105" y="0" flags="0x400"/>
      <component glyphName="uni0306.case" x="-105" y="0" flags="0x0"/>
    </TTGlyph>
    <TTGlyph name="Acircumflex" xMin="-126" yMin="0" xMax="928" yMax="1870">
      <component glyphName="A" x="-105" y="0" flags="0x400"/>
      <component glyphName="uni0302.case" x="-105" y="0" flags="0x0"/>
    </TTGlyph>
    <TTGlyph name="Adieresis" xMin="-126" yMin="0" xMax="958" yMax="1751">
      <component glyphName="A" x="-105" y="0" flags="0x400"/>
      <component glyphName="uni0308.case" x="-105" y="0" flags="0x0"/>
    </TTGlyph>
    <TTGlyph name="Agrave" xMin="-126" yMin="0" xMax="762" yMax="1870">
      <component glyphName="A" x="-105" y="0" flags="0x400"/>
      <component glyphName="gravecomb.case" x="-105" y="0" flags="0x0"/>
    </TTGlyph>
    <TTGlyph name="Amacron" xMin="-126" yMin="0" xMax="955" yMax="1710">
      <component glyphName="A" x="-105" y="0" flags="0x400"/>
      <component glyphName="uni0304.case" x="-105" y="0" flags="0x0"/>
    </TTGlyph>
    <TTGlyph name="Aogonek" xMin="-21" yMin="-303" xMax="885" yMax="1362">
      <contour>
        <pt x="654" y="-303" on="0"/>
        <pt x="575" y="-245" on="0"/>
        <pt x="575" y="-192" on="1"/>
        <pt x="575" y="-176" on="0"/>
        <pt x="578" y="-159" on="1"/>
        <pt x="598" y="-60" on="0"/>
        <pt x="744" y="2" on="1"/>
        <pt x="742" y="0" on="1"/>
        <pt x="715" y="403" on="1"/>
        <pt x="286" y="403" on="1"/>
        <pt x="94" y="0" on="1"/>
        <pt x="-21" y="0" on="1"/>
        <pt x="639" y="1362" on="1"/>
        <pt x="756" y="1362" on="1"/>
        <pt x="863" y="37" on="1"/>
        <pt x="874" y="40" on="1"/>
        <pt x="885" y="-1" on="1"/>
        <pt x="806" y="-22" on="0"/>
        <pt x="708" y="-99" on="0"/>
        <pt x="698" y="-146" on="1"/>
        <pt x="696" y="-156" on="0"/>
        <pt x="696" y="-160" on="1"/>
        <pt x="696" y="-200" on="0"/>
        <pt x="758" y="-200" on="1"/>
        <pt x="791" y="-200" on="0"/>
        <pt x="836" y="-187" on="1"/>
        <pt x="841" y="-283" on="1"/>
        <pt x="777" y="-303" on="0"/>
        <pt x="725" y="-303" on="1"/>
      </contour>
      <contour>
        <pt x="708" y="505" on="1"/>
        <pt x="663" y="1187" on="1"/>
        <pt x="335" y="505" on="1"/>
      </contour>
    </TTGlyph>
    <TTGlyph name="Aring" xMin="-126" yMin="0" xMax="900" yMax="1902">
      <component glyphName="A" x="-105" y="0" flags="0x400"/>
      <component glyphName="uni030A.case" x="-105" y="0" flags="0x0"/>
    </TTGlyph>
    <TTGlyph name="Atilde" xMin="-126" yMin="0" xMax="1000" yMax="1789">
      <component glyphName="A" x="-105" y="0" flags="0x400"/>
      <component glyphName="tildecomb.case" x="-105" y="0" flags="0x0"/>
    </TTGlyph>
    <TTGlyph name="B" xMin="61" yMin="0" xMax="987" yMax="1362">
      <contour>
        <pt x="333" y="1362" on="1"/>
        <pt x="617" y="1362" on="1"/>
        <pt x="800" y="1362" on="0"/>
        <pt x="987" y="1218" on="0"/>
        <pt x="987" y="1089" on="1"/>
        <pt x="987" y="1049" on="0"/>
        <pt x="978" y="1005" on="1"/>
        <pt x="955" y="895" on="0"/>
        <pt x="807" y="731" on="0"/>
        <pt x="691" y="691" on="1"/>
        <pt x="781" y="663" on="0"/>
        <pt x="881" y="527" on="0"/>
        <pt x="881" y="430" on="1"/>
        <pt x="881" y="391" on="0"/>
        <pt x="872" y="347" on="1"/>
        <pt x="839" y="183" on="0"/>
        <pt x="590" y="0" on="0"/>
        <pt x="379" y="0" on="1"/>
        <pt x="61" y="0" on="1"/>
      </contour>
      <contour>
        <pt x="547" y="99" on="0"/>
        <pt x="734" y="249" on="0"/>
        <pt x="760" y="382" on="1"/>
        <pt x="767" y="414" on="0"/>
        <pt x="767" y="446" on="1"/>
        <pt x="767" y="539" on="0"/>
        <pt x="638" y="637" on="0"/>
        <pt x="516" y="637" on="1"/>
        <pt x="301" y="637" on="1"/>
        <pt x="193" y="99" on="1"/>
        <pt x="393" y="99" on="1"/>
      </contour>
      <contour>
        <pt x="647" y="739" on="0"/>
        <pt x="834" y="881" on="0"/>
        <pt x="860" y="1010" on="1"/>
        <pt x="867" y="1042" on="0"/>
        <pt x="867" y="1075" on="1"/>
        <pt x="867" y="1262" on="0"/>
        <pt x="608" y="1262" on="1"/>
        <pt x="426" y="1262" on="1"/>
        <pt x="321" y="739" on="1"/>
        <pt x="507" y="739" on="1"/>
      </contour>
    </TTGlyph>
    <TTGlyph name="B.hex" xMin="46" yMin="0" xMax="975" yMax="1210">
      <contour>
        <pt x="288" y="1210" on="1"/>
        <pt x="587" y="1210" on="1"/>
        <pt x="780" y="1210" on="0"/>
        <pt x="975" y="1078" on="0"/>
        <pt x="975" y="958" on="1"/>
        <pt x="975" y="923" on="0"/>
        <pt x="968" y="889" on="1"/>
        <pt x="950" y="799" on="0"/>
        <pt x="821" y="658" on="0"/>
        <pt x="717" y="618" on="1"/>
        <pt x="798" y="588" on="0"/>
        <pt x="887" y="466" on="0"/>
        <pt x="887" y="381" on="1"/>
        <pt x="887" y="345" on="0"/>
        <pt x="880" y="311" on="1"/>
        <pt x="850" y="163" on="0"/>
        <pt x="598" y="0" on="0"/>
        <pt x="379" y="0" on="1"/>
        <pt x="46" y="0" on="1"/>
      </contour>
      <contour>
        <pt x="542" y="132" on="0"/>
        <pt x="708" y="248" on="0"/>
        <pt x="729" y="351" on="1"/>
        <pt x="734" y="378" on="0"/>
        <pt x="734" y="396" on="1"/>
        <pt x="734" y="470" on="0"/>
        <pt x="616" y="545" on="0"/>
        <pt x="502" y="545" on="1"/>
        <pt x="307" y="545" on="1"/>
        <pt x="224" y="132" on="1"/>
        <pt x="401" y="132" on="1"/>
      </contour>
      <contour>
        <pt x="625" y="681" on="0"/>
        <pt x="790" y="786" on="0"/>
        <pt x="811" y="890" on="1"/>
        <pt x="815" y="909" on="0"/>
        <pt x="815" y="932" on="1"/>
        <pt x="815" y="1078" on="0"/>
        <pt x="572" y="1078" on="1"/>
        <pt x="413" y="1078" on="1"/>
        <pt x="334" y="681" on="1"/>
        <pt x="492" y="681" on="1"/>
      </contour>
    </TTGlyph>
    <TTGlyph name="C" xMin="141" yMin="-21" xMax="1033" yMax="1382">
      <contour>
        <pt x="303" y="-21" on="0"/>
        <pt x="141" y="181" on="0"/>
        <pt x="141" y="386" on="1"/>
        <pt x="141" y="513" on="0"/>
        <pt x="176" y="690" on="1"/>
        <pt x="245" y="1036" on="0"/>
        <pt x="535" y="1382" on="0"/>
        <pt x="745" y="1382" on="1"/>
        <pt x="830" y="1382" on="0"/>
        <pt x="969" y="1319" on="0"/>
        <pt x="1033" y="1264" on="1"/>
        <pt x="975" y="1189" on="1"/>
        <pt x="923" y="1230" on="0"/>
        <pt x="807" y="1280" on="0"/>
        <pt x="735" y="1280" on="1"/>
        <pt x="410" y="1280" on="0"/>
        <pt x="288" y="672" on="1"/>
        <pt x="254" y="505" on="0"/>
        <pt x="254" y="384" on="1"/>
        <pt x="254" y="229" on="0"/>
        <pt x="367" y="81" on="0"/>
        <pt x="479" y="81" on="1"/>
        <pt x="553" y="81" on="0"/>
        <pt x="679" y="132" on="0"/>
        <pt x="767" y="184" on="1"/>
        <pt x="804" y="101" on="1"/>
        <pt x="735" y="59" on="0"/>
        <pt x="638" y="10" on="0"/>
        <pt x="523" y="-21" on="0"/>
        <pt x="454" y="-21" on="1"/>
      </contour>
    </TTGlyph>
    <TTGlyph name="C.hex" xMin="119" yMin="-21" xMax="1018" yMax="1231">
      <contour>
        <pt x="292" y="-21" on="0"/>
        <pt x="119" y="173" on="0"/>
        <pt x="119" y="369" on="1"/>
        <pt x="119" y="476" on="0"/>
        <pt x="146" y="614" on="1"/>
        <pt x="208" y="923" on="0"/>
        <pt x="498" y="1231" on="0"/>
        <pt x="715" y="1231" on="1"/>
        <pt x="804" y="1231" on="0"/>
        <pt x="949" y="1168" on="0"/>
        <pt x="1018" y="1113" on="1"/>
        <pt x="938" y="1010" on="1"/>
        <pt x="884" y="1048" on="0"/>
        <pt x="769" y="1095" on="0"/>
        <pt x="696" y="1095" on="1"/>
        <pt x="560" y="1095" on="0"/>
        <pt x="353" y="872" on="0"/>
        <pt x="298" y="596" on="1"/>
        <pt x="272" y="466" on="0"/>
        <pt x="272" y="377" on="1"/>
        <pt x="272" y="242" on="0"/>
        <pt x="382" y="115" on="0"/>
        <pt x="492" y="115" on="1"/>
        <pt x="561" y="115" on="0"/>
        <pt x="684" y="162" on="0"/>
        <pt x="772" y="210" on="1"/>
        <pt x="818" y="102" on="1"/>
        <pt x="745" y="59" on="0"/>
        <pt x="646" y="10" on="0"/>
        <pt x="526" y="-21" on="0"/>
        <pt x="454" y="-21" on="1"/>
      </contour>
    </TTGlyph>
    <TTGlyph name="Cacute" xMin="36" yMin="-21" xMax="1051" yMax="1870">
      <component glyphName="C" x="-105" y="0" flags="0x400"/>
      <component glyphName="acutecomb.case" x="-61" y="0" flags="0x0"/>
    </TTGlyph>
    <TTGlyph name="Ccaron" xMin="36" yMin="-21" xMax="1054" yMax="1870">
      <component glyphName="C" x="-105" y="0" flags="0x400"/>
      <component glyphName="uni030C.case" x="-61" y="0" flags="0x0"/>
    </TTGlyph>
    <TTGlyph name="Ccedilla" xMin="141" yMin="-303" xMax="1033" yMax="1382">
      <contour>
        <pt x="303" y="-21" on="0"/>
        <pt x="141" y="181" on="0"/>
        <pt x="141" y="386" on="1"/>
        <pt x="141" y="513" on="0"/>
        <pt x="176" y="690" on="1"/>
        <pt x="245" y="1036" on="0"/>
        <pt x="535" y="1382" on="0"/>
        <pt x="745" y="1382" on="1"/>
        <pt x="830" y="1382" on="0"/>
        <pt x="969" y="1319" on="0"/>
        <pt x="1033" y="1264" on="1"/>
        <pt x="975" y="1189" on="1"/>
        <pt x="923" y="1230" on="0"/>
        <pt x="807" y="1280" on="0"/>
        <pt x="735" y="1280" on="1"/>
        <pt x="410" y="1280" on="0"/>
        <pt x="288" y="672" on="1"/>
        <pt x="254" y="505" on="0"/>
        <pt x="254" y="384" on="1"/>
        <pt x="254" y="229" on="0"/>
        <pt x="367" y="81" on="0"/>
        <pt x="479" y="81" on="1"/>
        <pt x="553" y="81" on="0"/>
        <pt x="679" y="132" on="0"/>
        <pt x="767" y="184" on="1"/>
        <pt x="804" y="101" on="1"/>
        <pt x="740" y="63" on="0"/>
        <pt x="664" y="21" on="0"/>
        <pt x="621" y="2" on="1"/>
        <pt x="619" y="-9" on="0"/>
        <pt x="617" y="-30" on="1"/>
        <pt x="614" y="-60" on="0"/>
        <pt x="608" y="-92" on="1"/>
        <pt x="587" y="-197" on="0"/>
        <pt x="438" y="-303" on="0"/>
        <pt x="336" y="-303" on="1"/>
        <pt x="271" y="-303" on="0"/>
        <pt x="210" y="-286" on="1"/>
        <pt x="242" y="-162" on="1"/>
        <pt x="270" y="-166" on="0"/>
        <pt x="317" y="-166" on="1"/>
        <pt x="387" y="-166" on="0"/>
        <pt x="465" y="-105" on="0"/>
        <pt x="478" y="-42" on="1"/>
        <pt x="478" y="-40" on="0"/>
        <pt x="481" y="-25" on="0"/>
        <pt x="485" y="-16" on="1"/>
        <pt x="474" y="-21" on="0"/>
        <pt x="454" y="-21" on="1"/>
      </contour>
    </TTGlyph>
    <TTGlyph name="Ccircumflex" xMin="36" yMin="-21" xMax="972" yMax="1870">
      <component glyphName="C" x="-105" y="0" flags="0x400"/>
      <component glyphName="uni0302.case" x="-61" y="0" flags="0x0"/>
    </TTGlyph>
    <TTGlyph name="Cdotaccent" xMin="36" yMin="-21" xMax="928" yMax="1847">
      <component glyphName="C" x="-105" y="0" flags="0x400"/>
      <component glyphName="uni0307" x="0" y="308" flags="0x4"/>
    </TTGlyph>
    <TTGlyph name="D" xMin="61" yMin="0" xMax="1000" yMax="1362">
      <contour>
        <pt x="1000" y="1362" on="0"/>
        <pt x="1000" y="948" on="1"/>
        <pt x="1000" y="833" on="0"/>
        <pt x="969" y="676" on="1"/>
        <pt x="925" y="456" on="0"/>
        <pt x="752" y="153" on="0"/>
        <pt x="517" y="0" on="0"/>
        <pt x="379" y="0" on="1"/>
        <pt x="61" y="0" on="1"/>
        <pt x="333" y="1362" on="1"/>
        <pt x="632" y="1362" on="1"/>
      </contour>
      <contour>
        <pt x="425" y="1259" on="1"/>
        <pt x="194" y="102" on="1"/>
        <pt x="397" y="102" on="1"/>
        <pt x="558" y="102" on="0"/>
        <pt x="790" y="384" on="0"/>
        <pt x="851" y="689" on="1"/>
        <pt x="882" y="844" on="0"/>
        <pt x="882" y="956" on="1"/>
        <pt x="882" y="1113" on="0"/>
        <pt x="755" y="1259" on="0"/>
        <pt x="625" y="1259" on="1"/>
      </contour>
    </TTGlyph>
    <TTGlyph name="D.hex" xMin="46" yMin="0" xMax="992" yMax="1210">
      <contour>
        <pt x="992" y="1210" on="0"/>
        <pt x="992" y="820" on="1"/>
        <pt x="992" y="722" on="0"/>
        <pt x="968" y="600" on="1"/>
        <pt x="929" y="404" on="0"/>
        <pt x="759" y="135" on="0"/>
        <pt x="522" y="0" on="0"/>
        <pt x="379" y="0" on="1"/>
        <pt x="46" y="0" on="1"/>
        <pt x="288" y="1210" on="1"/>
        <pt x="602" y="1210" on="1"/>
      </contour>
      <contour>
        <pt x="412" y="1074" on="1"/>
        <pt x="225" y="136" on="1"/>
        <pt x="406" y="136" on="1"/>
        <pt x="556" y="136" on="0"/>
        <pt x="760" y="357" on="0"/>
        <pt x="811" y="612" on="1"/>
        <pt x="835" y="732" on="0"/>
        <pt x="835" y="816" on="1"/>
        <pt x="835" y="953" on="0"/>
        <pt x="713" y="1074" on="0"/>
        <pt x="590" y="1074" on="1"/>
      </contour>
    </TTGlyph>
    <TTGlyph name="Dcaron" xMin="-44" yMin="0" xMax="995" yMax="1870">
      <component glyphName="D" x="-105" y="0" flags="0x400"/>
      <component glyphName="uni030C.case" x="-120" y="0" flags="0x0"/>
    </TTGlyph>
    <TTGlyph name="Dcroat" xMin="-68" yMin="0" xMax="895" yMax="1362">
      <component glyphName="Eth" x="-105" y="0" flags="0x400"/>
    </TTGlyph>
    <TTGlyph name="E" xMin="84" yMin="0" xMax="1036" yMax="1362">
      <contour>
        <pt x="356" y="1362" on="1"/>
        <pt x="1036" y="1362" on="1"/>
        <pt x="1015" y="1259" on="1"/>
        <pt x="448" y="1259" on="1"/>
        <pt x="344" y="736" on="1"/>
        <pt x="842" y="736" on="1"/>
        <pt x="821" y="633" on="1"/>
        <pt x="323" y="633" on="1"/>
        <pt x="217" y="102" on="1"/>
        <pt x="791" y="102" on="1"/>
        <pt x="771" y="0" on="1"/>
        <pt x="84" y="0" on="1"/>
      </contour>
    </TTGlyph>
    <TTGlyph name="E.hex" xMin="69" yMin="0" xMax="1020" yMax="1210">
      <contour>
        <pt x="311" y="1210" on="1"/>
        <pt x="1020" y="1210" on="1"/>
        <pt x="992" y="1074" on="1"/>
        <pt x="434" y="1074" on="1"/>
        <pt x="355" y="677" on="1"/>
        <pt x="845" y="677" on="1"/>
        <pt x="818" y="541" on="1"/>
        <pt x="328" y="541" on="1"/>
        <pt x="247" y="136" on="1"/>
        <pt x="813" y="136" on="1"/>
        <pt x="786" y="0" on="1"/>
        <pt x="69" y="0" on="1"/>
      </contour>
    </TTGlyph>
    <TTGlyph name="Eacute" xMin="-21" yMin="0" xMax="1017" yMax="1870">
      <component glyphName="E" x="-105" y="0" flags="0x400"/>
      <component glyphName="acutecomb.case" x="-95" y="0" flags="0x0"/>
    </TTGlyph>
    <TTGlyph name="Ebreve" xMin="-21" yMin="0" xMax="984" yMax="1818">
      <component glyphName="E" x="-105" y="0" flags="0x400"/>
      <component glyphName="uni0306.case" x="-95" y="0" flags="0x0"/>
    </TTGlyph>
    <TTGlyph name="Ecaron" xMin="-21" yMin="0" xMax="1020" yMax="1870">
      <component glyphName="E" x="-105" y="0" flags="0x400"/>
      <component glyphName="uni030C.case" x="-95" y="0" flags="0x0"/>
    </TTGlyph>
    <TTGlyph name="Ecircumflex" xMin="-21" yMin="0" xMax="938" yMax="1870">
      <component glyphName="E" x="-105" y="0" flags="0x400"/>
      <component glyphName="uni0302.case" x="-95" y="0" flags="0x0"/>
    </TTGlyph>
    <TTGlyph name="Edieresis" xMin="-21" yMin="0" xMax="968" yMax="1751">
      <component glyphName="E" x="-105" y="0" flags="0x400"/>
      <component glyphName="uni0308.case" x="-95" y="0" flags="0x0"/>
    </TTGlyph>
    <TTGlyph name="Edotaccent" xMin="-21" yMin="0" xMax="931" yMax="1847">
      <component glyphName="E" x="-105" y="0" flags="0x400"/>
      <component glyphName="uni0307" x="-34" y="308" flags="0x4"/>
    </TTGlyph>
    <TTGlyph name="Egrave" xMin="-21" yMin="0" xMax="931" yMax="1870">
      <component glyphName="E" x="-105" y="0" flags="0x400"/>
      <component glyphName="gravecomb.case" x="-95" y="0" flags="0x0"/>
    </TTGlyph>
    <TTGlyph name="Emacron" xMin="-21" yMin="0" xMax="965" yMax="1710">
      <component glyphName="E" x="-105" y="0" flags="0x400"/>
      <component glyphName="uni0304.case" x="-95" y="0" flags="0x0"/>
    </TTGlyph>
    <TTGlyph name="Eogonek" xMin="84" yMin="-303" xMax="1036" yMax="1362">
      <contour>
        <pt x="356" y="1362" on="1"/>
        <pt x="1036" y="1362" on="1"/>
        <pt x="1015" y="1259" on="1"/>
        <pt x="448" y="1259" on="1"/>
        <pt x="344" y="736" on="1"/>
        <pt x="842" y="736" on="1"/>
        <pt x="821" y="633" on="1"/>
        <pt x="323" y="633" on="1"/>
        <pt x="217" y="102" on="1"/>
        <pt x="791" y="102" on="1"/>
        <pt x="774" y="-1" on="1"/>
        <pt x="695" y="-22" on="0"/>
        <pt x="597" y="-99" on="0"/>
        <pt x="587" y="-146" on="1"/>
        <pt x="585" y="-156" on="0"/>
        <pt x="585" y="-160" on="1"/>
        <pt x="585" y="-200" on="0"/>
        <pt x="647" y="-200" on="1"/>
        <pt x="680" y="-200" on="0"/>
        <pt x="725" y="-187" on="1"/>
        <pt x="730" y="-283" on="1"/>
        <pt x="666" y="-303" on="0"/>
        <pt x="614" y="-303" on="1"/>
        <pt x="543" y="-303" on="0"/>
        <pt x="464" y="-245" on="0"/>
        <pt x="464" y="-192" on="1"/>
        <pt x="464" y="-176" on="0"/>
        <pt x="467" y="-159" on="1"/>
        <pt x="487" y="-60" on="0"/>
        <pt x="633" y="2" on="1"/>
        <pt x="84" y="0" on="1"/>
      </contour>
    </TTGlyph>
    <TTGlyph name="Eth" xMin="37" yMin="0" xMax="1000" yMax="1362">
      <contour>
        <pt x="57" y="739" on="1"/>
        <pt x="208" y="739" on="1"/>
        <pt x="333" y="1362" on="1"/>
        <pt x="632" y="1362" on="1"/>
        <pt x="1000" y="1362" on="0"/>
        <pt x="1000" y="948" on="1"/>
        <pt x="1000" y="833" on="0"/>
        <pt x="969" y="676" on="1"/>
        <pt x="925" y="456" on="0"/>
        <pt x="752" y="153" on="0"/>
        <pt x="517" y="0" on="0"/>
        <pt x="379" y="0" on="1"/>
        <pt x="61" y="0" on="1"/>
        <pt x="188" y="637" on="1"/>
        <pt x="37" y="637" on="1"/>
      </contour>
      <contour>
        <pt x="425" y="1259" on="1"/>
        <pt x="321" y="739" on="1"/>
        <pt x="591" y="739" on="1"/>
        <pt x="571" y="637" on="1"/>
        <pt x="301" y="637" on="1"/>
        <pt x="194" y="102" on="1"/>
        <pt x="397" y="102" on="1"/>
        <pt x="558" y="102" on="0"/>
        <pt x="790" y="384" on="0"/>
        <pt x="851" y="689" on="1"/>
        <pt x="882" y="844" on="0"/>
        <pt x="882" y="956" on="1"/>
        <pt x="882" y="1113" on="0"/>
        <pt x="755" y="1259" on="0"/>
        <pt x="625" y="1259" on="1"/>
      </contour>
    </TTGlyph>
    <TTGlyph name="F" xMin="99" yMin="0" xMax="1060" yMax="1362">
      <contour>
        <pt x="371" y="1362" on="1"/>
        <pt x="1060" y="1362" on="1"/>
        <pt x="1039" y="1259" on="1"/>
        <pt x="463" y="1259" on="1"/>
        <pt x="356" y="720" on="1"/>
        <pt x="781" y="720" on="1"/>
        <pt x="760" y="618" on="1"/>
        <pt x="335" y="618" on="1"/>
        <pt x="212" y="0" on="1"/>
        <pt x="99" y="0" on="1"/>
      </contour>
    </TTGlyph>
    <TTGlyph name="F.hex" xMin="84" yMin="0" xMax="1045" yMax="1210">
      <contour>
        <pt x="326" y="1210" on="1"/>
        <pt x="1045" y="1210" on="1"/>
        <pt x="1017" y="1074" on="1"/>
        <pt x="449" y="1074" on="1"/>
        <pt x="365" y="654" on="1"/>
        <pt x="781" y="654" on="1"/>
        <pt x="754" y="518" on="1"/>
        <pt x="338" y="518" on="1"/>
        <pt x="235" y="0" on="1"/>
        <pt x="84" y="0" on="1"/>
      </contour>
    </TTGlyph>
    <TTGlyph name="G" xMin="142" yMin="-21" xMax="1033" yMax="1382">
      <contour>
        <pt x="142" y="-21" on="0"/>
        <pt x="142" y="390" on="1"/>
        <pt x="142" y="521" on="0"/>
        <pt x="176" y="690" on="1"/>
        <pt x="244" y="1033" on="0"/>
        <pt x="535" y="1382" on="0"/>
        <pt x="753" y="1382" on="1"/>
        <pt x="830" y="1382" on="0"/>
        <pt x="965" y="1340" on="0"/>
        <pt x="1033" y="1295" on="1"/>
        <pt x="982" y="1210" on="1"/>
        <pt x="918" y="1247" on="0"/>
        <pt x="805" y="1280" on="0"/>
        <pt x="748" y="1280" on="1"/>
        <pt x="578" y="1280" on="0"/>
        <pt x="349" y="979" on="0"/>
        <pt x="288" y="672" on="1"/>
        <pt x="255" y="506" on="0"/>
        <pt x="255" y="388" on="1"/>
        <pt x="255" y="232" on="0"/>
        <pt x="373" y="81" on="0"/>
        <pt x="495" y="81" on="1"/>
        <pt x="586" y="81" on="0"/>
        <pt x="694" y="114" on="1"/>
        <pt x="772" y="486" on="1"/>
        <pt x="510" y="486" on="1"/>
        <pt x="530" y="588" on="1"/>
        <pt x="905" y="588" on="1"/>
        <pt x="800" y="45" on="1"/>
        <pt x="637" y="-21" on="0"/>
        <pt x="480" y="-21" on="1"/>
      </contour>
    </TTGlyph>
    <TTGlyph name="Gbreve" xMin="37" yMin="-21" xMax="1034" yMax="1899">
      <component glyphName="G" x="-105" y="0" flags="0x400"/>
      <component glyphName="uni0306" x="0" y="308" flags="0x4"/>
    </TTGlyph>
    <TTGlyph name="Gcaron" xMin="37" yMin="-21" xMax="1054" yMax="1870">
      <component glyphName="G" x="-105" y="0" flags="0x400"/>
      <component glyphName="uni030C.case" x="-61" y="0" flags="0x0"/>
    </TTGlyph>
    <TTGlyph name="Gcircumflex" xMin="37" yMin="-21" xMax="972" yMax="1870">
      <component glyphName="G" x="-105" y="0" flags="0x400"/>
      <component glyphName="uni0302.case" x="-61" y="0" flags="0x0"/>
    </TTGlyph>
    <TTGlyph name="Gdotaccent" xMin="37" yMin="-21" xMax="928" yMax="1847">
      <component glyphName="G" x="-105" y="0" flags="0x400"/>
      <component glyphName="uni0307" x="0" y="308" flags="0x4"/>
    </TTGlyph>
    <TTGlyph name="H" xMin="61" yMin="0" xMax="1060" yMax="1362">
      <contour>
        <pt x="333" y="1362" on="1"/>
        <pt x="446" y="1362" on="1"/>
        <pt x="321" y="739" on="1"/>
        <pt x="822" y="739" on="1"/>
        <pt x="947" y="1362" on="1"/>
        <pt x="1060" y="1362" on="1"/>
        <pt x="788" y="0" on="1"/>
        <pt x="675" y="0" on="1"/>
        <pt x="802" y="637" on="1"/>
        <pt x="301" y="637" on="1"/>
        <pt x="174" y="0" on="1"/>
        <pt x="61" y="0" on="1"/>
      </contour>
    </TTGlyph>
    <TTGlyph name="Hbar" xMin="61" yMin="0" xMax="1177" yMax="1362">
      <contour>
        <pt x="279" y="1091" on="1"/>
        <pt x="128" y="1091" on="1"/>
        <pt x="148" y="1193" on="1"/>
        <pt x="299" y="1193" on="1"/>
        <pt x="333" y="1362" on="1"/>
        <pt x="446" y="1362" on="1"/>
        <pt x="412" y="1193" on="1"/>
        <pt x="913" y="1193" on="1"/>
        <pt x="947" y="1362" on="1"/>
        <pt x="1060" y="1362" on="1"/>
        <pt x="1026" y="1193" on="1"/>
        <pt x="1177" y="1193" on="1"/>
        <pt x="1157" y="1091" on="1"/>
        <pt x="1006" y="1091" on="1"/>
        <pt x="788" y="0" on="1"/>
        <pt x="675" y="0" on="1"/>
        <pt x="802" y="637" on="1"/>
        <pt x="301" y="637" on="1"/>
        <pt x="174" y="0" on="1"/>
        <pt x="61" y="0" on="1"/>
      </contour>
      <contour>
        <pt x="822" y="739" on="1"/>
        <pt x="893" y="1091" on="1"/>
        <pt x="392" y="1091" on="1"/>
        <pt x="321" y="739" on="1"/>
      </contour>
    </TTGlyph>
    <TTGlyph name="Hcircumflex" xMin="-44" yMin="0" xMax="955" yMax="1870">
      <component glyphName="H" x="-105" y="0" flags="0x400"/>
      <component glyphName="uni0302.case" x="-105" y="0" flags="0x0"/>
    </TTGlyph>
    <TTGlyph name="I" xMin="137" yMin="0" xMax="985" yMax="1362">
      <contour>
        <pt x="155" y="91" on="1"/>
        <pt x="388" y="102" on="1"/>
        <pt x="619" y="1259" on="1"/>
        <pt x="391" y="1271" on="1"/>
        <pt x="409" y="1362" on="1"/>
        <pt x="985" y="1362" on="1"/>
        <pt x="967" y="1271" on="1"/>
        <pt x="733" y="1259" on="1"/>
        <pt x="502" y="102" on="1"/>
        <pt x="731" y="91" on="1"/>
        <pt x="713" y="0" on="1"/>
        <pt x="137" y="0" on="1"/>
      </contour>
    </TTGlyph>
    <TTGlyph name="Iacute" xMin="32" yMin="0" xMax="1008" yMax="1870">
      <component glyphName="I" x="-105" y="0" flags="0x400"/>
      <component glyphName="acutecomb.case" x="-104" y="0" flags="0x0"/>
    </TTGlyph>
    <TTGlyph name="Ibreve" xMin="32" yMin="0" xMax="975" yMax="1818">
      <component glyphName="I" x="-105" y="0" flags="0x400"/>
      <component glyphName="uni0306.case" x="-104" y="0" flags="0x0"/>
    </TTGlyph>
    <TTGlyph name="Icircumflex" xMin="32" yMin="0" xMax="929" yMax="1870">
      <component glyphName="I" x="-105" y="0" flags="0x400"/>
      <component glyphName="uni0302.case" x="-104" y="0" flags="0x0"/>
    </TTGlyph>
    <TTGlyph name="Idieresis" xMin="32" yMin="0" xMax="959" yMax="1751">
      <component glyphName="I" x="-105" y="0" flags="0x400"/>
      <component glyphName="uni0308.case" x="-104" y="0" flags="0x0"/>
    </TTGlyph>
    <TTGlyph name="Idotaccent" xMin="32" yMin="0" xMax="880" yMax="1847">
      <component glyphName="I" x="-105" y="0" flags="0x400"/>
      <component glyphName="uni0307" x="-43" y="308" flags="0x4"/>
    </TTGlyph>
    <TTGlyph name="Igrave" xMin="32" yMin="0" xMax="880" yMax="1870">
      <component glyphName="I" x="-105" y="0" flags="0x400"/>
      <component glyphName="gravecomb.case" x="-104" y="0" flags="0x0"/>
    </TTGlyph>
    <TTGlyph name="Imacron" xMin="32" yMin="0" xMax="956" yMax="1710">
      <component glyphName="I" x="-105" y="0" flags="0x400"/>
      <component glyphName="uni0304.case" x="-104" y="0" flags="0x0"/>
    </TTGlyph>
    <TTGlyph name="Iogonek" xMin="137" yMin="-303" xMax="985" yMax="1362">
      <contour>
        <pt x="155" y="91" on="1"/>
        <pt x="388" y="102" on="1"/>
        <pt x="619" y="1259" on="1"/>
        <pt x="391" y="1271" on="1"/>
        <pt x="409" y="1362" on="1"/>
        <pt x="985" y="1362" on="1"/>
        <pt x="967" y="1271" on="1"/>
        <pt x="733" y="1259" on="1"/>
        <pt x="502" y="102" on="1"/>
        <pt x="731" y="91" on="1"/>
        <pt x="716" y="-1" on="1"/>
        <pt x="637" y="-22" on="0"/>
        <pt x="539" y="-99" on="0"/>
        <pt x="529" y="-146" on="1"/>
        <pt x="527" y="-156" on="0"/>
        <pt x="527" y="-160" on="1"/>
        <pt x="527" y="-200" on="0"/>
        <pt x="589" y="-200" on="1"/>
        <pt x="622" y="-200" on="0"/>
        <pt x="667" y="-187" on="1"/>
        <pt x="672" y="-283" on="1"/>
        <pt x="608" y="-303" on="0"/>
        <pt x="556" y="-303" on="1"/>
        <pt x="485" y="-303" on="0"/>
        <pt x="406" y="-245" on="0"/>
        <pt x="406" y="-192" on="1"/>
        <pt x="406" y="-176" on="0"/>
        <pt x="409" y="-159" on="1"/>
        <pt x="429" y="-60" on="0"/>
        <pt x="575" y="2" on="1"/>
        <pt x="137" y="0" on="1"/>
      </contour>
    </TTGlyph>
    <TTGlyph name="Itilde" xMin="32" yMin="0" xMax="1001" yMax="1789">
      <component glyphName="I" x="-105" y="0" flags="0x400"/>
      <component glyphName="tildecomb.case" x="-104" y="0" flags="0x0"/>
    </TTGlyph>
    <TTGlyph name="J" xMin="76" yMin="-23" xMax="1000" yMax="1362">
      <contour>
        <pt x="276" y="-23" on="0"/>
        <pt x="131" y="86" on="0"/>
        <pt x="76" y="193" on="1"/>
        <pt x="161" y="248" on="1"/>
        <pt x="206" y="164" on="0"/>
        <pt x="311" y="80" on="0"/>
        <pt x="387" y="80" on="1"/>
        <pt x="500" y="80" on="0"/>
        <pt x="662" y="237" on="0"/>
        <pt x="690" y="378" on="1"/>
        <pt x="866" y="1259" on="1"/>
        <pt x="419" y="1259" on="1"/>
        <pt x="440" y="1362" on="1"/>
        <pt x="1000" y="1362" on="1"/>
        <pt x="804" y="380" on="1"/>
        <pt x="779" y="255" on="0"/>
        <pt x="658" y="73" on="0"/>
        <pt x="487" y="-23" on="0"/>
        <pt x="386" y="-23" on="1"/>
      </contour>
    </TTGlyph>
    <TTGlyph name="Jcircumflex" xMin="-29" yMin="-23" xMax="959" yMax="1870">
      <component glyphName="J" x="-105" y="0" flags="0x400"/>
      <component glyphName="uni0302.case" x="-74" y="0" flags="0x0"/>
    </TTGlyph>
    <TTGlyph name="K" xMin="61" yMin="0" xMax="1100" yMax="1362">
      <contour>
        <pt x="333" y="1362" on="1"/>
        <pt x="446" y="1362" on="1"/>
        <pt x="318" y="728" on="1"/>
        <pt x="962" y="1362" on="1"/>
        <pt x="1100" y="1362" on="1"/>
        <pt x="417" y="702" on="1"/>
        <pt x="856" y="0" on="1"/>
        <pt x="711" y="0" on="1"/>
        <pt x="308" y="663" on="1"/>
        <pt x="174" y="0" on="1"/>
        <pt x="61" y="0" on="1"/>
      </contour>
    </TTGlyph>
    <TTGlyph name="L" xMin="61" yMin="0" xMax="808" yMax="1362">
      <contour>
        <pt x="333" y="1362" on="1"/>
        <pt x="446" y="1362" on="1"/>
        <pt x="194" y="102" on="1"/>
        <pt x="808" y="102" on="1"/>
        <pt x="788" y="0" on="1"/>
        <pt x="61" y="0" on="1"/>
      </contour>
    </TTGlyph>
    <TTGlyph name="Lacute" xMin="-44" yMin="0" xMax="724" yMax="1870">
      <component glyphName="L" x="-105" y="0" flags="0x400"/>
      <component glyphName="acutecomb.case" x="-388" y="0" flags="0x0"/>
    </TTGlyph>
    <TTGlyph name="M" xMin="-108" yMin="0" xMax="1122" yMax="1362">
      <contour>
        <pt x="458" y="157" on="1"/>
        <pt x="961" y="1362" on="1"/>
        <pt x="1122" y="1362" on="1"/>
        <pt x="956" y="0" on="1"/>
        <pt x="849" y="0" on="1"/>
        <pt x="995" y="1193" on="1"/>
        <pt x="497" y="0" on="1"/>
        <pt x="353" y="0" on="1"/>
        <pt x="334" y="1193" on="1"/>
        <pt x="1" y="0" on="1"/>
        <pt x="-108" y="0" on="1"/>
        <pt x="272" y="1362" on="1"/>
        <pt x="439" y="1362" on="1"/>
      </contour>
    </TTGlyph>
    <TTGlyph name="N" xMin="61" yMin="0" xMax="1060" yMax="1362">
      <contour>
        <pt x="333" y="1362" on="1"/>
        <pt x="458" y="1362" on="1"/>
        <pt x="740" y="295" on="1"/>
        <pt x="955" y="1362" on="1"/>
        <pt x="1060" y="1362" on="1"/>
        <pt x="788" y="0" on="1"/>
        <pt x="695" y="0" on="1"/>
        <pt x="394" y="1137" on="1"/>
        <pt x="166" y="0" on="1"/>
        <pt x="61" y="0" on="1"/>
      </contour>
    </TTGlyph>
    <TTGlyph name="Nacute" xMin="-44" yMin="0" xMax="1007" yMax="1870">
      <component glyphName="N" x="-105" y="0" flags="0x400"/>
      <component glyphName="acutecomb.case" x="-105" y="0" flags="0x0"/>
    </TTGlyph>
    <TTGlyph name="Ncaron" xMin="-44" yMin="0" xMax="1010" yMax="1870">
      <component glyphName="N" x="-105" y="0" flags="0x400"/>
      <component glyphName="uni030C.case" x="-105" y="0" flags="0x0"/>
    </TTGlyph>
    <TTGlyph name="Ntilde" xMin="-44" yMin="0" xMax="1000" yMax="1789">
      <component glyphName="N" x="-105" y="0" flags="0x400"/>
      <component glyphName="tildecomb.case" x="-105" y="0" flags="0x0"/>
    </TTGlyph>
    <TTGlyph name="O" xMin="114" yMin="-19" xMax="1008" yMax="1380">
      <contour>
        <pt x="114" y="-19" on="0"/>
        <pt x="114" y="375" on="1"/>
        <pt x="114" y="510" on="0"/>
        <pt x="150" y="690" on="1"/>
        <pt x="218" y="1029" on="0"/>
        <pt x="493" y="1380" on="0"/>
        <pt x="692" y="1380" on="1"/>
        <pt x="851" y="1380" on="0"/>
        <pt x="1008" y="1187" on="0"/>
        <pt x="1008" y="991" on="1"/>
        <pt x="1008" y="853" on="0"/>
        <pt x="971" y="672" on="1"/>
        <pt x="927" y="454" on="0"/>
        <pt x="770" y="144" on="0"/>
        <pt x="556" y="-19" on="0"/>
        <pt x="428" y="-19" on="1"/>
      </contour>
      <contour>
        <pt x="584" y="80" on="0"/>
        <pt x="795" y="383" on="0"/>
        <pt x="856" y="690" on="1"/>
        <pt x="895" y="882" on="0"/>
        <pt x="895" y="1008" on="1"/>
        <pt x="895" y="1149" on="0"/>
        <pt x="794" y="1281" on="0"/>
        <pt x="688" y="1281" on="1"/>
        <pt x="583" y="1281" on="0"/>
        <pt x="425" y="1153" on="0"/>
        <pt x="308" y="885" on="0"/>
        <pt x="265" y="672" on="1"/>
        <pt x="228" y="485" on="0"/>
        <pt x="228" y="367" on="1"/>
        <pt x="228" y="222" on="0"/>
        <pt x="329" y="80" on="0"/>
        <pt x="432" y="80" on="1"/>
      </contour>
    </TTGlyph>
    <TTGlyph name="Oacute" xMin="9" yMin="-19" xMax="1007" yMax="1870">
      <component glyphName="O" x="-105" y="0" flags="0x400"/>
      <component glyphName="acutecomb.case" x="-105" y="0" flags="0x0"/>
    </TTGlyph>
    <TTGlyph name="Obreve" xMin="9" yMin="-19" xMax="974" yMax="1818">
      <component glyphName="O" x="-105" y="0" flags="0x400"/>
      <component glyphName="uni0306.case" x="-105" y="0" flags="0x0"/>
    </TTGlyph>
    <TTGlyph name="Ocircumflex" xMin="9" yMin="-19" xMax="928" yMax="1870">
      <component glyphName="O" x="-105" y="0" flags="0x400"/>
      <component glyphName="uni0302.case" x="-105" y="0" flags="0x0"/>
    </TTGlyph>
    <TTGlyph name="Odieresis" xMin="9" yMin="-19" xMax="958" yMax="1751">
      <component glyphName="O" x="-105" y="0" flags="0x400"/>
      <component glyphName="uni0308.case" x="-105" y="0" flags="0x0"/>
    </TTGlyph>
    <TTGlyph name="Ograve" xMin="9" yMin="-19" xMax="903" yMax="1870">
      <component glyphName="O" x="-105" y="0" flags="0x400"/>
      <component glyphName="gravecomb.case" x="-105" y="0" flags="0x0"/>
    </TTGlyph>
    <TTGlyph name="Omacron" xMin="9" yMin="-19" xMax="955" yMax="1710">
      <component glyphName="O" x="-105" y="0" flags="0x400"/>
      <component glyphName="uni0304.case" x="-105" y="0" flags="0x0"/>
    </TTGlyph>
    <TTGlyph name="Otilde" xMin="9" yMin="-19" xMax="1000" yMax="1789">
      <component glyphName="O" x="-105" y="0" flags="0x400"/>
      <component glyphName="tildecomb.case" x="-105" y="0" flags="0x0"/>
    </TTGlyph>
    <TTGlyph name="P" xMin="61" yMin="0" xMax="977" yMax="1362">
      <contour>
        <pt x="333" y="1362" on="1"/>
        <pt x="621" y="1362" on="1"/>
        <pt x="798" y="1362" on="0"/>
        <pt x="977" y="1194" on="0"/>
        <pt x="977" y="1041" on="1"/>
        <pt x="977" y="980" on="0"/>
        <pt x="964" y="915" on="1"/>
        <pt x="938" y="786" on="0"/>
        <pt x="801" y="593" on="0"/>
        <pt x="582" y="486" on="0"/>
        <pt x="436" y="486" on="1"/>
        <pt x="349" y="486" on="0"/>
        <pt x="276" y="494" on="1"/>
        <pt x="174" y="0" on="1"/>
        <pt x="61" y="0" on="1"/>
      </contour>
      <contour>
        <pt x="378" y="588" on="0"/>
        <pt x="434" y="588" on="1"/>
        <pt x="616" y="588" on="0"/>
        <pt x="814" y="760" on="0"/>
        <pt x="847" y="927" on="1"/>
        <pt x="859" y="986" on="0"/>
        <pt x="859" y="1036" on="1"/>
        <pt x="859" y="1259" on="0"/>
        <pt x="610" y="1259" on="1"/>
        <pt x="425" y="1259" on="1"/>
        <pt x="288" y="594" on="1"/>
      </contour>
    </TTGlyph>
    <TTGlyph name="Q" xMin="114" yMin="-310" xMax="1008" yMax="1380">
      <contour>
        <pt x="479" y="-310" on="0"/>
        <pt x="367" y="-188" on="0"/>
        <pt x="367" y="-61" on="1"/>
        <pt x="367" y="-46" on="0"/>
        <pt x="369" y="-10" on="1"/>
        <pt x="114" y="19" on="0"/>
        <pt x="114" y="375" on="1"/>
        <pt x="114" y="510" on="0"/>
        <pt x="150" y="690" on="1"/>
        <pt x="218" y="1029" on="0"/>
        <pt x="493" y="1380" on="0"/>
        <pt x="692" y="1380" on="1"/>
        <pt x="851" y="1380" on="0"/>
        <pt x="1008" y="1187" on="0"/>
        <pt x="1008" y="991" on="1"/>
        <pt x="1008" y="853" on="0"/>
        <pt x="971" y="672" on="1"/>
        <pt x="909" y="365" on="0"/>
        <pt x="652" y="7" on="0"/>
        <pt x="474" y="-21" on="1"/>
        <pt x="471" y="-45" on="0"/>
        <pt x="471" y="-66" on="1"/>
        <pt x="471" y="-141" on="0"/>
        <pt x="541" y="-208" on="0"/>
        <pt x="613" y="-208" on="1"/>
        <pt x="664" y="-208" on="0"/>
        <pt x="738" y="-192" on="1"/>
        <pt x="742" y="-286" on="1"/>
        <pt x="676" y="-310" on="0"/>
        <pt x="585" y="-310" on="1"/>
      </contour>
      <contour>
        <pt x="584" y="80" on="0"/>
        <pt x="795" y="383" on="0"/>
        <pt x="856" y="690" on="1"/>
        <pt x="895" y="882" on="0"/>
        <pt x="895" y="1008" on="1"/>
        <pt x="895" y="1149" on="0"/>
        <pt x="794" y="1281" on="0"/>
        <pt x="688" y="1281" on="1"/>
        <pt x="583" y="1281" on="0"/>
        <pt x="425" y="1153" on="0"/>
        <pt x="308" y="885" on="0"/>
        <pt x="265" y="672" on="1"/>
        <pt x="228" y="485" on="0"/>
        <pt x="228" y="367" on="1"/>
        <pt x="228" y="222" on="0"/>
        <pt x="329" y="80" on="0"/>
        <pt x="432" y="80" on="1"/>
      </contour>
    </TTGlyph>
    <TTGlyph name="R" xMin="61" yMin="0" xMax="985" yMax="1362">
      <contour>
        <pt x="333" y="1362" on="1"/>
        <pt x="621" y="1362" on="1"/>
        <pt x="802" y="1362" on="0"/>
        <pt x="985" y="1208" on="0"/>
        <pt x="985" y="1068" on="1"/>
        <pt x="985" y="1024" on="0"/>
        <pt x="974" y="967" on="1"/>
        <pt x="944" y="816" on="0"/>
        <pt x="745" y="619" on="0"/>
        <pt x="583" y="596" on="1"/>
        <pt x="818" y="0" on="1"/>
        <pt x="681" y="0" on="1"/>
        <pt x="463" y="584" on="1"/>
        <pt x="290" y="584" on="1"/>
        <pt x="174" y="0" on="1"/>
        <pt x="61" y="0" on="1"/>
      </contour>
      <contour>
        <pt x="653" y="686" on="0"/>
        <pt x="829" y="837" on="0"/>
        <pt x="857" y="979" on="1"/>
        <pt x="866" y="1023" on="0"/>
        <pt x="866" y="1060" on="1"/>
        <pt x="866" y="1259" on="0"/>
        <pt x="610" y="1259" on="1"/>
        <pt x="425" y="1259" on="1"/>
        <pt x="311" y="686" on="1"/>
        <pt x="506" y="686" on="1"/>
      </contour>
    </TTGlyph>
    <TTGlyph name="Racute" xMin="-44" yMin="0" xMax="973" yMax="1870">
      <component glyphName="R" x="-105" y="0" flags="0x400"/>
      <component glyphName="acutecomb.case" x="-139" y="0" flags="0x0"/>
    </TTGlyph>
    <TTGlyph name="Rcaron" xMin="-44" yMin="0" xMax="976" yMax="1870">
      <component glyphName="R" x="-105" y="0" flags="0x400"/>
      <component glyphName="uni030C.case" x="-139" y="0" flags="0x0"/>
    </TTGlyph>
    <TTGlyph name="S" xMin="89" yMin="-17" xMax="1001" yMax="1380">
      <contour>
        <pt x="306" y="-17" on="0"/>
        <pt x="162" y="32" on="0"/>
        <pt x="89" y="83" on="1"/>
        <pt x="138" y="166" on="1"/>
        <pt x="197" y="127" on="0"/>
        <pt x="328" y="85" on="0"/>
        <pt x="387" y="85" on="1"/>
        <pt x="464" y="85" on="0"/>
        <pt x="593" y="144" on="0"/>
        <pt x="679" y="252" on="0"/>
        <pt x="693" y="323" on="1"/>
        <pt x="698" y="346" on="0"/>
        <pt x="698" y="374" on="1"/>
        <pt x="698" y="429" on="0"/>
        <pt x="649" y="523" on="0"/>
        <pt x="577" y="598" on="0"/>
        <pt x="516" y="651" on="1"/>
        <pt x="448" y="711" on="0"/>
        <pt x="367" y="797" on="0"/>
        <pt x="310" y="913" on="0"/>
        <pt x="310" y="984" on="1"/>
        <pt x="310" y="1015" on="0"/>
        <pt x="318" y="1057" on="1"/>
        <pt x="336" y="1149" on="0"/>
        <pt x="447" y="1297" on="0"/>
        <pt x="608" y="1380" on="0"/>
        <pt x="699" y="1380" on="1"/>
        <pt x="777" y="1380" on="0"/>
        <pt x="936" y="1332" on="0"/>
        <pt x="1001" y="1290" on="1"/>
        <pt x="949" y="1208" on="1"/>
        <pt x="829" y="1278" on="0"/>
        <pt x="705" y="1278" on="1"/>
        <pt x="640" y="1278" on="0"/>
        <pt x="525" y="1219" on="0"/>
        <pt x="445" y="1114" on="0"/>
        <pt x="432" y="1048" on="1"/>
        <pt x="427" y="1026" on="0"/>
        <pt x="427" y="997" on="1"/>
        <pt x="427" y="942" on="0"/>
        <pt x="475" y="850" on="0"/>
        <pt x="546" y="776" on="0"/>
        <pt x="606" y="725" on="1"/>
        <pt x="674" y="666" on="0"/>
        <pt x="756" y="580" on="0"/>
        <pt x="814" y="461" on="0"/>
        <pt x="814" y="387" on="1"/>
        <pt x="814" y="345" on="0"/>
        <pt x="806" y="308" on="1"/>
        <pt x="787" y="215" on="0"/>
        <pt x="667" y="67" on="0"/>
        <pt x="490" y="-17" on="0"/>
        <pt x="389" y="-17" on="1"/>
      </contour>
    </TTGlyph>
    <TTGlyph name="Sacute" xMin="-16" yMin="-17" xMax="1017" yMax="1870">
      <component glyphName="S" x="-105" y="0" flags="0x400"/>
      <component glyphName="acutecomb.case" x="-95" y="0" flags="0x0"/>
    </TTGlyph>
    <TTGlyph name="Scaron" xMin="-16" yMin="-17" xMax="1020" yMax="1870">
      <component glyphName="S" x="-105" y="0" flags="0x400"/>
      <component glyphName="uni030C.case" x="-95" y="0" flags="0x0"/>
    </TTGlyph>
    <TTGlyph name="Scedilla" xMin="89" yMin="-303" xMax="1001" yMax="1380">
      <contour>
        <pt x="306" y="-17" on="0"/>
        <pt x="162" y="32" on="0"/>
        <pt x="89" y="83" on="1"/>
        <pt x="138" y="166" on="1"/>
        <pt x="197" y="127" on="0"/>
        <pt x="328" y="85" on="0"/>
        <pt x="387" y="85" on="1"/>
        <pt x="464" y="85" on="0"/>
        <pt x="593" y="144" on="0"/>
        <pt x="679" y="252" on="0"/>
        <pt x="693" y="323" on="1"/>
        <pt x="698" y="346" on="0"/>
        <pt x="698" y="374" on="1"/>
        <pt x="698" y="429" on="0"/>
        <pt x="649" y="523" on="0"/>
        <pt x="577" y="598" on="0"/>
        <pt x="516" y="651" on="1"/>
        <pt x="448" y="711" on="0"/>
        <pt x="367" y="797" on="0"/>
        <pt x="310" y="913" on="0"/>
        <pt x="310" y="984" on="1"/>
        <pt x="310" y="1015" on="0"/>
        <pt x="318" y="1057" on="1"/>
        <pt x="336" y="1149" on="0"/>
        <pt x="447" y="1297" on="0"/>
        <pt x="608" y="1380" on="0"/>
        <pt x="699" y="1380" on="1"/>
        <pt x="777" y="1380" on="0"/>
        <pt x="936" y="1332" on="0"/>
        <pt x="1001" y="1290" on="1"/>
        <pt x="949" y="1208" on="1"/>
        <pt x="829" y="1278" on="0"/>
        <pt x="705" y="1278" on="1"/>
        <pt x="640" y="1278" on="0"/>
        <pt x="525" y="1219" on="0"/>
        <pt x="445" y="1114" on="0"/>
        <pt x="432" y="1048" on="1"/>
        <pt x="427" y="1026" on="0"/>
        <pt x="427" y="997" on="1"/>
        <pt x="427" y="942" on="0"/>
        <pt x="475" y="850" on="0"/>
        <pt x="546" y="776" on="0"/>
        <pt x="606" y="725" on="1"/>
        <pt x="674" y="666" on="0"/>
        <pt x="756" y="580" on="0"/>
        <pt x="814" y="461" on="0"/>
        <pt x="814" y="387" on="1"/>
        <pt x="814" y="345" on="0"/>
        <pt x="806" y="308" on="1"/>
        <pt x="787" y="210" on="0"/>
        <pt x="656" y="55" on="0"/>
        <pt x="558" y="11" on="1"/>
        <pt x="556" y="-11" on="1"/>
        <pt x="552" y="-58" on="0"/>
        <pt x="545" y="-92" on="1"/>
        <pt x="524" y="-197" on="0"/>
        <pt x="375" y="-303" on="0"/>
        <pt x="273" y="-303" on="1"/>
        <pt x="208" y="-303" on="0"/>
        <pt x="147" y="-286" on="1"/>
        <pt x="179" y="-162" on="1"/>
        <pt x="207" y="-166" on="0"/>
        <pt x="254" y="-166" on="1"/>
        <pt x="324" y="-166" on="0"/>
        <pt x="402" y="-105" on="0"/>
        <pt x="415" y="-42" on="1"/>
        <pt x="415" y="-40" on="0"/>
        <pt x="419" y="-22" on="0"/>
        <pt x="423" y="-11" on="1"/>
        <pt x="410" y="-17" on="0"/>
        <pt x="389" y="-17" on="1"/>
      </contour>
    </TTGlyph>
    <TTGlyph name="Scircumflex" xMin="-16" yMin="-17" xMax="938" yMax="1870">
      <component glyphName="S" x="-105" y="0" flags="0x400"/>
      <component glyphName="uni0302.case" x="-95" y="0" flags="0x0"/>
    </TTGlyph>
    <TTGlyph name="T" xMin="280" yMin="0" xMax="1092" yMax="1362">
      <contour>
        <pt x="619" y="1259" on="1"/>
        <pt x="280" y="1259" on="1"/>
        <pt x="301" y="1362" on="1"/>
        <pt x="1092" y="1362" on="1"/>
        <pt x="1071" y="1259" on="1"/>
        <pt x="732" y="1259" on="1"/>
        <pt x="481" y="0" on="1"/>
        <pt x="368" y="0" on="1"/>
      </contour>
    </TTGlyph>
    <TTGlyph name="Tcaron" xMin="175" yMin="0" xMax="1010" yMax="1870">
      <component glyphName="T" x="-105" y="0" flags="0x400"/>
      <component glyphName="uni030C.case" x="-105" y="0" flags="0x0"/>
    </TTGlyph>
    <TTGlyph name="Thorn" xMin="61" yMin="0" xMax="930" yMax="1362">
      <contour>
        <pt x="333" y="1362" on="1"/>
        <pt x="446" y="1362" on="1"/>
        <pt x="388" y="1073" on="1"/>
        <pt x="563" y="1073" on="1"/>
        <pt x="744" y="1073" on="0"/>
        <pt x="930" y="925" on="0"/>
        <pt x="930" y="789" on="1"/>
        <pt x="930" y="750" on="0"/>
        <pt x="920" y="697" on="1"/>
        <pt x="898" y="585" on="0"/>
        <pt x="764" y="418" on="0"/>
        <pt x="547" y="326" on="0"/>
        <pt x="404" y="326" on="1"/>
        <pt x="315" y="326" on="0"/>
        <pt x="244" y="334" on="1"/>
        <pt x="174" y="0" on="1"/>
        <pt x="61" y="0" on="1"/>
      </contour>
      <contour>
        <pt x="340" y="428" on="0"/>
        <pt x="402" y="428" on="1"/>
        <pt x="582" y="428" on="0"/>
        <pt x="775" y="570" on="0"/>
        <pt x="803" y="709" on="1"/>
        <pt x="811" y="751" on="0"/>
        <pt x="811" y="781" on="1"/>
        <pt x="811" y="971" on="0"/>
        <pt x="553" y="971" on="1"/>
        <pt x="368" y="971" on="1"/>
        <pt x="257" y="435" on="1"/>
      </contour>
    </TTGlyph>
    <TTGlyph name="U" xMin="122" yMin="-23" xMax="1054" yMax="1362">
      <contour>
        <pt x="278" y="-23" on="0"/>
        <pt x="122" y="120" on="0"/>
        <pt x="122" y="255" on="1"/>
        <pt x="122" y="308" on="0"/>
        <pt x="134" y="369" on="1"/>
        <pt x="333" y="1362" on="1"/>
        <pt x="446" y="1362" on="1"/>
        <pt x="246" y="364" on="1"/>
        <pt x="236" y="314" on="0"/>
        <pt x="236" y="270" on="1"/>
        <pt x="236" y="82" on="0"/>
        <pt x="435" y="82" on="1"/>
        <pt x="556" y="82" on="0"/>
        <pt x="724" y="239" on="0"/>
        <pt x="754" y="386" on="1"/>
        <pt x="949" y="1362" on="1"/>
        <pt x="1054" y="1362" on="1"/>
        <pt x="857" y="378" on="1"/>
        <pt x="832" y="252" on="0"/>
        <pt x="710" y="71" on="0"/>
        <pt x="533" y="-23" on="0"/>
        <pt x="427" y="-23" on="1"/>
      </contour>
    </TTGlyph>
    <TTGlyph name="Uacute" xMin="17" yMin="-23" xMax="1017" yMax="1870">
      <component glyphName="U" x="-105" y="0" flags="0x400"/>
      <component glyphName="acutecomb.case" x="-95" y="0" flags="0x0"/>
    </TTGlyph>
    <TTGlyph name="Ubreve" xMin="17" yMin="-23" xMax="984" yMax="1818">
      <component glyphName="U" x="-105" y="0" flags="0x400"/>
      <component glyphName="uni0306.case" x="-95" y="0" flags="0x0"/>
    </TTGlyph>
    <TTGlyph name="Ucircumflex" xMin="17" yMin="-23" xMax="949" yMax="1870">
      <component glyphName="U" x="-105" y="0" flags="0x400"/>
      <component glyphName="uni0302.case" x="-95" y="0" flags="0x0"/>
    </TTGlyph>
    <TTGlyph name="Udieresis" xMin="17" yMin="-23" xMax="968" yMax="1751">
      <component glyphName="U" x="-105" y="0" flags="0x400"/>
      <component glyphName="uni0308.case" x="-95" y="0" flags="0x0"/>
    </TTGlyph>
    <TTGlyph name="Ugrave" xMin="17" yMin="-23" xMax="949" yMax="1870">
      <component glyphName="U" x="-105" y="0" flags="0x400"/>
      <component glyphName="gravecomb.case" x="-95" y="0" flags="0x0"/>
    </TTGlyph>
    <TTGlyph name="Umacron" xMin="17" yMin="-23" xMax="965" yMax="1710">
      <component glyphName="U" x="-105" y="0" flags="0x400"/>
      <component glyphName="uni0304.case" x="-95" y="0" flags="0x0"/>
    </TTGlyph>
    <TTGlyph name="Uogonek" xMin="122" yMin="-303" xMax="1054" yMax="1362">
      <contour>
        <pt x="331" y="-303" on="0"/>
        <pt x="252" y="-245" on="0"/>
        <pt x="252" y="-192" on="1"/>
        <pt x="252" y="-176" on="0"/>
        <pt x="255" y="-159" on="1"/>
        <pt x="271" y="-77" on="0"/>
        <pt x="380" y="-19" on="1"/>
        <pt x="255" y="-11" on="0"/>
        <pt x="122" y="131" on="0"/>
        <pt x="122" y="256" on="1"/>
        <pt x="122" y="308" on="0"/>
        <pt x="134" y="369" on="1"/>
        <pt x="333" y="1362" on="1"/>
        <pt x="446" y="1362" on="1"/>
        <pt x="246" y="364" on="1"/>
        <pt x="236" y="314" on="0"/>
        <pt x="236" y="270" on="1"/>
        <pt x="236" y="82" on="0"/>
        <pt x="435" y="82" on="1"/>
        <pt x="556" y="82" on="0"/>
        <pt x="724" y="239" on="0"/>
        <pt x="754" y="386" on="1"/>
        <pt x="949" y="1362" on="1"/>
        <pt x="1054" y="1362" on="1"/>
        <pt x="857" y="378" on="1"/>
        <pt x="825" y="219" on="0"/>
        <pt x="653" y="18" on="0"/>
        <pt x="529" y="-14" on="1"/>
        <pt x="463" y="-35" on="0"/>
        <pt x="383" y="-104" on="0"/>
        <pt x="375" y="-146" on="1"/>
        <pt x="373" y="-156" on="0"/>
        <pt x="373" y="-160" on="1"/>
        <pt x="373" y="-200" on="0"/>
        <pt x="435" y="-200" on="1"/>
        <pt x="468" y="-200" on="0"/>
        <pt x="513" y="-187" on="1"/>
        <pt x="518" y="-283" on="1"/>
        <pt x="454" y="-303" on="0"/>
        <pt x="402" y="-303" on="1"/>
      </contour>
    </TTGlyph>
    <TTGlyph name="Uring" xMin="17" yMin="-23" xMax="949" yMax="1902">
      <component glyphName="U" x="-105" y="0" flags="0x400"/>
      <component glyphName="uni030A.case" x="-95" y="0" flags="0x0"/>
    </TTGlyph>
    <TTGlyph name="Utilde" xMin="17" yMin="-23" xMax="1010" yMax="1789">
      <component glyphName="U" x="-105" y="0" flags="0x400"/>
      <component glyphName="tildecomb.case" x="-95" y="0" flags="0x0"/>
    </TTGlyph>
    <TTGlyph name="V" xMin="246" yMin="0" xMax="1148" yMax="1362">
      <contour>
        <pt x="412" y="1362" on="1"/>
        <pt x="468" y="235" on="1"/>
        <pt x="994" y="1362" on="1"/>
        <pt x="1148" y="1362" on="1"/>
        <pt x="499" y="0" on="1"/>
        <pt x="342" y="0" on="1"/>
        <pt x="246" y="1362" on="1"/>
      </contour>
    </TTGlyph>
    <TTGlyph name="W" xMin="54" yMin="0" xMax="1250" yMax="1362">
      <contour>
        <pt x="632" y="1060" on="1"/>
        <pt x="266" y="0" on="1"/>
        <pt x="54" y="0" on="1"/>
        <pt x="146" y="1362" on="1"/>
        <pt x="287" y="1362" on="1"/>
        <pt x="212" y="231" on="1"/>
        <pt x="601" y="1362" on="1"/>
        <pt x="790" y="1362" on="1"/>
        <pt x="727" y="231" on="1"/>
        <pt x="1104" y="1362" on="1"/>
        <pt x="1250" y="1362" on="1"/>
        <pt x="795" y="0" on="1"/>
        <pt x="572" y="0" on="1"/>
      </contour>
    </TTGlyph>
    <TTGlyph name="Wacute" xMin="-51" yMin="0" xMax="1145" yMax="1870">
      <component glyphName="W" x="-105" y="0" flags="0x400"/>
      <component glyphName="acutecomb.case" x="-104" y="0" flags="0x0"/>
    </TTGlyph>
    <TTGlyph name="Wcircumflex" xMin="-51" yMin="0" xMax="1145" yMax="1870">
      <component glyphName="W" x="-105" y="0" flags="0x400"/>
      <component glyphName="uni0302.case" x="-104" y="0" flags="0x0"/>
    </TTGlyph>
    <TTGlyph name="Wdieresis" xMin="-51" yMin="0" xMax="1145" yMax="1751">
      <component glyphName="W" x="-105" y="0" flags="0x400"/>
      <component glyphName="uni0308.case" x="-104" y="0" flags="0x0"/>
    </TTGlyph>
    <TTGlyph name="Wgrave" xMin="-51" yMin="0" xMax="1145" yMax="1870">
      <component glyphName="W" x="-105" y="0" flags="0x400"/>
      <component glyphName="gravecomb.case" x="-104" y="0" flags="0x0"/>
    </TTGlyph>
    <TTGlyph name="X" xMin="3" yMin="0" xMax="1110" yMax="1362">
      <contour>
        <pt x="524" y="561" on="1"/>
        <pt x="165" y="0" on="1"/>
        <pt x="3" y="0" on="1"/>
        <pt x="478" y="719" on="1"/>
        <pt x="302" y="1362" on="1"/>
        <pt x="469" y="1362" on="1"/>
        <pt x="608" y="849" on="1"/>
        <pt x="949" y="1362" on="1"/>
        <pt x="1110" y="1362" on="1"/>
        <pt x="653" y="695" on="1"/>
        <pt x="842" y="0" on="1"/>
        <pt x="677" y="0" on="1"/>
      </contour>
    </TTGlyph>
    <TTGlyph name="Y" xMin="270" yMin="0" xMax="1137" yMax="1362">
      <contour>
        <pt x="471" y="605" on="1"/>
        <pt x="270" y="1362" on="1"/>
        <pt x="439" y="1362" on="1"/>
        <pt x="584" y="766" on="1"/>
        <pt x="980" y="1362" on="1"/>
        <pt x="1137" y="1362" on="1"/>
        <pt x="622" y="605" on="1"/>
        <pt x="500" y="0" on="1"/>
        <pt x="349" y="0" on="1"/>
      </contour>
    </TTGlyph>
    <TTGlyph name="Yacute" xMin="165" yMin="0" xMax="1032" yMax="1870">
      <component glyphName="Y" x="-105" y="0" flags="0x400"/>
      <component glyphName="acutecomb.case" x="-95" y="0" flags="0x0"/>
    </TTGlyph>
    <TTGlyph name="Ycircumflex" xMin="165" yMin="0" xMax="1032" yMax="1870">
      <component glyphName="Y" x="-105" y="0" flags="0x400"/>
      <component glyphName="uni0302.case" x="-95" y="0" flags="0x0"/>
    </TTGlyph>
    <TTGlyph name="Ydieresis" xMin="165" yMin="0" xMax="1032" yMax="1751">
      <component glyphName="Y" x="-105" y="0" flags="0x400"/>
      <component glyphName="uni0308.case" x="-95" y="0" flags="0x0"/>
    </TTGlyph>
    <TTGlyph name="Ygrave" xMin="165" yMin="0" xMax="1032" yMax="1870">
      <component glyphName="Y" x="-105" y="0" flags="0x400"/>
      <component glyphName="gravecomb.case" x="-95" y="0" flags="0x0"/>
    </TTGlyph>
    <TTGlyph name="Z" xMin="96" yMin="0" xMax="1026" yMax="1362">
      <contour>
        <pt x="118" y="117" on="1"/>
        <pt x="838" y="1225" on="1"/>
        <pt x="341" y="1225" on="1"/>
        <pt x="368" y="1362" on="1"/>
        <pt x="1026" y="1362" on="1"/>
        <pt x="1004" y="1244" on="1"/>
        <pt x="283" y="136" on="1"/>
        <pt x="781" y="136" on="1"/>
        <pt x="754" y="0" on="1"/>
        <pt x="96" y="0" on="1"/>
      </contour>
    </TTGlyph>
    <TTGlyph name="Zacute" xMin="-9" yMin="0" xMax="1017" yMax="1870">
      <component glyphName="Z" x="-105" y="0" flags="0x400"/>
      <component glyphName="acutecomb.case" x="-95" y="0" flags="0x0"/>
    </TTGlyph>
    <TTGlyph name="Zcaron" xMin="-9" yMin="0" xMax="1020" yMax="1870">
      <component glyphName="Z" x="-105" y="0" flags="0x400"/>
      <component glyphName="uni030C.case" x="-95" y="0" flags="0x0"/>
    </TTGlyph>
    <TTGlyph name="Zdotaccent" xMin="-9" yMin="0" xMax="921" yMax="1847">
      <component glyphName="Z" x="-105" y="0" flags="0x400"/>
      <component glyphName="uni0307" x="-34" y="308" flags="0x4"/>
    </TTGlyph>
    <TTGlyph name="a" xMin="71" yMin="-15" xMax="915" yMax="1081">
      <contour>
        <pt x="186" y="-15" on="0"/>
        <pt x="71" y="98" on="0"/>
        <pt x="71" y="193" on="1"/>
        <pt x="71" y="227" on="0"/>
        <pt x="78" y="259" on="1"/>
        <pt x="99" y="364" on="0"/>
        <pt x="255" y="515" on="0"/>
        <pt x="509" y="594" on="0"/>
        <pt x="676" y="594" on="1"/>
        <pt x="766" y="594" on="1"/>
        <pt x="789" y="707" on="1"/>
        <pt x="800" y="765" on="0"/>
        <pt x="800" y="806" on="1"/>
        <pt x="800" y="894" on="0"/>
        <pt x="707" y="978" on="0"/>
        <pt x="611" y="978" on="1"/>
        <pt x="495" y="978" on="0"/>
        <pt x="308" y="922" on="1"/>
        <pt x="292" y="1015" on="1"/>
        <pt x="510" y="1081" on="0"/>
        <pt x="638" y="1081" on="1"/>
        <pt x="775" y="1081" on="0"/>
        <pt x="915" y="949" on="0"/>
        <pt x="915" y="823" on="1"/>
        <pt x="915" y="771" on="0"/>
        <pt x="903" y="708" on="1"/>
        <pt x="762" y="0" on="1"/>
        <pt x="648" y="0" on="1"/>
        <pt x="692" y="217" on="1"/>
        <pt x="619" y="149" on="1"/>
        <pt x="515" y="59" on="0"/>
        <pt x="361" y="-15" on="0"/>
        <pt x="285" y="-15" on="1"/>
      </contour>
      <contour>
        <pt x="373" y="87" on="0"/>
        <pt x="505" y="158" on="0"/>
        <pt x="601" y="242" on="1"/>
        <pt x="713" y="336" on="1"/>
        <pt x="748" y="503" on="1"/>
        <pt x="673" y="503" on="1"/>
        <pt x="472" y="503" on="0"/>
        <pt x="220" y="370" on="0"/>
        <pt x="195" y="249" on="1"/>
        <pt x="190" y="222" on="0"/>
        <pt x="190" y="204" on="1"/>
        <pt x="190" y="149" on="0"/>
        <pt x="253" y="87" on="0"/>
        <pt x="312" y="87" on="1"/>
      </contour>
    </TTGlyph>
    <TTGlyph name="aacute" xMin="-34" yMin="-15" xMax="962" yMax="1643">
      <component glyphName="a" x="-105" y="0" flags="0x400"/>
      <component glyphName="acutecomb" x="-105" y="0" flags="0x0"/>
    </TTGlyph>
    <TTGlyph name="abreve" xMin="-34" yMin="-15" xMax="929" yMax="1591">
      <component glyphName="a" x="-105" y="0" flags="0x400"/>
      <component glyphName="uni0306" x="-105" y="0" flags="0x0"/>
    </TTGlyph>
    <TTGlyph name="acircumflex" xMin="-34" yMin="-15" xMax="883" yMax="1643">
      <component glyphName="a" x="-105" y="0" flags="0x400"/>
      <component glyphName="uni0302" x="-105" y="0" flags="0x0"/>
    </TTGlyph>
    <TTGlyph name="acute" xMin="391" yMin="756" xMax="926" yMax="1362">
      <contour>
        <pt x="391" y="756" on="1"/>
        <pt x="650" y="1362" on="1"/>
        <pt x="926" y="1362" on="1"/>
        <pt x="520" y="756" on="1"/>
      </contour>
    </TTGlyph>
    <TTGlyph name="acutecomb" xMin="580" yMin="1248" xMax="1067" yMax="1643">
      <contour>
        <pt x="804" y="1643" on="1"/>
        <pt x="1067" y="1643" on="1"/>
        <pt x="725" y="1248" on="1"/>
        <pt x="580" y="1248" on="1"/>
      </contour>
    </TTGlyph>
    <TTGlyph name="acutecomb.case" xMin="625" yMin="1475" xMax="1112" yMax="1870">
      <contour>
        <pt x="849" y="1870" on="1"/>
        <pt x="1112" y="1870" on="1"/>
        <pt x="770" y="1475" on="1"/>
        <pt x="625" y="1475" on="1"/>
      </contour>
    </TTGlyph>
    <TTGlyph name="adieresis" xMin="-34" yMin="-15" xMax="913" yMax="1524">
      <component glyphName="a" x="-105" y="0" flags="0x400"/>
      <component glyphName="uni0308" x="-105" y="0" flags="0x0"/>
    </TTGlyph>
    <TTGlyph name="agrave" xMin="-34" yMin="-15" xMax="810" yMax="1643">
      <component glyphName="a" x="-105" y="0" flags="0x400"/>
      <component glyphName="gravecomb" x="-105" y="0" flags="0x0"/>
    </TTGlyph>
    <TTGlyph name="amacron" xMin="-34" yMin="-15" xMax="907" yMax="1471">
      <component glyphName="a" x="-105" y="0" flags="0x400"/>
      <component glyphName="uni0304" x="-105" y="0" flags="0x0"/>
    </TTGlyph>
    <TTGlyph name="ampersand" xMin="-9" yMin="-17" xMax="1068" yMax="1377">
      <contour>
        <pt x="177" y="-17" on="0"/>
        <pt x="-9" y="123" on="0"/>
        <pt x="-9" y="252" on="1"/>
        <pt x="-9" y="293" on="0"/>
        <pt x="-1" y="330" on="1"/>
        <pt x="21" y="443" on="0"/>
        <pt x="161" y="607" on="0"/>
        <pt x="275" y="683" on="1"/>
        <pt x="248" y="740" on="0"/>
        <pt x="221" y="846" on="0"/>
        <pt x="221" y="904" on="1"/>
        <pt x="221" y="960" on="0"/>
        <pt x="235" y="1030" on="1"/>
        <pt x="256" y="1137" on="0"/>
        <pt x="374" y="1295" on="0"/>
        <pt x="537" y="1377" on="0"/>
        <pt x="623" y="1377" on="1"/>
        <pt x="707" y="1377" on="0"/>
        <pt x="824" y="1316" on="0"/>
        <pt x="882" y="1208" on="0"/>
        <pt x="882" y="1140" on="1"/>
        <pt x="882" y="1105" on="0"/>
        <pt x="875" y="1071" on="1"/>
        <pt x="856" y="980" on="0"/>
        <pt x="748" y="841" on="0"/>
        <pt x="612" y="742" on="0"/>
        <pt x="500" y="675" on="1"/>
        <pt x="468" y="656" on="1"/>
        <pt x="503" y="599" on="0"/>
        <pt x="575" y="511" on="1"/>
        <pt x="740" y="323" on="1"/>
        <pt x="805" y="408" on="0"/>
        <pt x="897" y="632" on="0"/>
        <pt x="919" y="760" on="1"/>
        <pt x="1068" y="752" on="1"/>
        <pt x="1040" y="592" on="0"/>
        <pt x="917" y="317" on="0"/>
        <pt x="825" y="214" on="1"/>
        <pt x="1005" y="0" on="1"/>
        <pt x="804" y="0" on="1"/>
        <pt x="713" y="108" on="1"/>
        <pt x="632" y="47" on="0"/>
        <pt x="446" y="-17" on="0"/>
        <pt x="345" y="-17" on="1"/>
      </contour>
      <contour>
        <pt x="147" y="293" on="0"/>
        <pt x="147" y="273" on="1"/>
        <pt x="147" y="202" on="0"/>
        <pt x="252" y="119" on="0"/>
        <pt x="357" y="119" on="1"/>
        <pt x="503" y="119" on="0"/>
        <pt x="629" y="211" on="1"/>
        <pt x="452" y="430" on="1"/>
        <pt x="376" y="524" on="0"/>
        <pt x="341" y="577" on="1"/>
        <pt x="263" y="519" on="0"/>
        <pt x="167" y="398" on="0"/>
        <pt x="152" y="320" on="1"/>
      </contour>
      <contour>
        <pt x="373" y="954" on="0"/>
        <pt x="373" y="916" on="1"/>
        <pt x="373" y="838" on="0"/>
        <pt x="407" y="760" on="1"/>
        <pt x="498" y="816" on="0"/>
        <pt x="615" y="901" on="0"/>
        <pt x="702" y="1013" on="0"/>
        <pt x="716" y="1083" on="1"/>
        <pt x="721" y="1108" on="0"/>
        <pt x="721" y="1125" on="1"/>
        <pt x="721" y="1180" on="0"/>
        <pt x="658" y="1244" on="0"/>
        <pt x="605" y="1244" on="1"/>
        <pt x="524" y="1244" on="0"/>
        <pt x="406" y="1121" on="0"/>
        <pt x="383" y="1006" on="1"/>
      </contour>
    </TTGlyph>
    <TTGlyph name="aogonek" xMin="71" yMin="-303" xMax="915" yMax="1081">
      <contour>
        <pt x="186" y="-15" on="0"/>
        <pt x="71" y="98" on="0"/>
        <pt x="71" y="193" on="1"/>
        <pt x="71" y="227" on="0"/>
        <pt x="78" y="259" on="1"/>
        <pt x="99" y="364" on="0"/>
        <pt x="255" y="515" on="0"/>
        <pt x="509" y="594" on="0"/>
        <pt x="676" y="594" on="1"/>
        <pt x="766" y="594" on="1"/>
        <pt x="789" y="707" on="1"/>
        <pt x="800" y="765" on="0"/>
        <pt x="800" y="806" on="1"/>
        <pt x="800" y="894" on="0"/>
        <pt x="707" y="978" on="0"/>
        <pt x="611" y="978" on="1"/>
        <pt x="495" y="978" on="0"/>
        <pt x="308" y="922" on="1"/>
        <pt x="292" y="1015" on="1"/>
        <pt x="510" y="1081" on="0"/>
        <pt x="638" y="1081" on="1"/>
        <pt x="775" y="1081" on="0"/>
        <pt x="915" y="949" on="0"/>
        <pt x="915" y="823" on="1"/>
        <pt x="915" y="771" on="0"/>
        <pt x="903" y="708" on="1"/>
        <pt x="765" y="-1" on="1"/>
        <pt x="686" y="-22" on="0"/>
        <pt x="588" y="-99" on="0"/>
        <pt x="578" y="-146" on="1"/>
        <pt x="576" y="-156" on="0"/>
        <pt x="576" y="-160" on="1"/>
        <pt x="576" y="-200" on="0"/>
        <pt x="638" y="-200" on="1"/>
        <pt x="671" y="-200" on="0"/>
        <pt x="716" y="-187" on="1"/>
        <pt x="721" y="-283" on="1"/>
        <pt x="657" y="-303" on="0"/>
        <pt x="605" y="-303" on="1"/>
        <pt x="534" y="-303" on="0"/>
        <pt x="455" y="-245" on="0"/>
        <pt x="455" y="-192" on="1"/>
        <pt x="455" y="-176" on="0"/>
        <pt x="458" y="-159" on="1"/>
        <pt x="479" y="-53" on="0"/>
        <pt x="646" y="11" on="1"/>
        <pt x="692" y="217" on="1"/>
        <pt x="619" y="149" on="1"/>
        <pt x="515" y="59" on="0"/>
        <pt x="361" y="-15" on="0"/>
        <pt x="285" y="-15" on="1"/>
      </contour>
      <contour>
        <pt x="373" y="87" on="0"/>
        <pt x="505" y="158" on="0"/>
        <pt x="601" y="242" on="1"/>
        <pt x="713" y="336" on="1"/>
        <pt x="748" y="503" on="1"/>
        <pt x="673" y="503" on="1"/>
        <pt x="472" y="503" on="0"/>
        <pt x="220" y="370" on="0"/>
        <pt x="195" y="249" on="1"/>
        <pt x="190" y="222" on="0"/>
        <pt x="190" y="204" on="1"/>
        <pt x="190" y="149" on="0"/>
        <pt x="253" y="87" on="0"/>
        <pt x="312" y="87" on="1"/>
      </contour>
    </TTGlyph>
    <TTGlyph name="aring" xMin="-34" yMin="-15" xMax="854" yMax="1675">
      <component glyphName="a" x="-105" y="0" flags="0x400"/>
      <component glyphName="uni030A" x="-105" y="0" flags="0x0"/>
    </TTGlyph>
    <TTGlyph name="arrowdown" xMin="35" yMin="-43" xMax="972" yMax="1362">
      <contour>
        <pt x="35" y="399" on="1"/>
        <pt x="135" y="488" on="1"/>
        <pt x="385" y="189" on="1"/>
        <pt x="621" y="1362" on="1"/>
        <pt x="772" y="1362" on="1"/>
        <pt x="536" y="189" on="1"/>
        <pt x="902" y="488" on="1"/>
        <pt x="972" y="399" on="1"/>
        <pt x="454" y="-43" on="1"/>
        <pt x="379" y="-43" on="1"/>
      </contour>
    </TTGlyph>
    <TTGlyph name="arrowleft" xMin="-18" yMin="202" xMax="1101" yMax="1140">
      <contour>
        <pt x="-18" y="643" on="1"/>
        <pt x="-10" y="700" on="1"/>
        <pt x="519" y="1140" on="1"/>
        <pt x="594" y="1055" on="1"/>
        <pt x="227" y="738" on="1"/>
        <pt x="1101" y="738" on="1"/>
        <pt x="1075" y="605" on="1"/>
        <pt x="197" y="605" on="1"/>
        <pt x="440" y="287" on="1"/>
        <pt x="337" y="202" on="1"/>
      </contour>
    </TTGlyph>
    <TTGlyph name="arrowright" xMin="16" yMin="202" xMax="1135" yMax="1140">
      <contour>
        <pt x="523" y="287" on="1"/>
        <pt x="890" y="605" on="1"/>
        <pt x="16" y="605" on="1"/>
        <pt x="42" y="738" on="1"/>
        <pt x="920" y="738" on="1"/>
        <pt x="677" y="1055" on="1"/>
        <pt x="780" y="1140" on="1"/>
        <pt x="1135" y="700" on="1"/>
        <pt x="1127" y="643" on="1"/>
        <pt x="598" y="202" on="1"/>
      </contour>
    </TTGlyph>
    <TTGlyph name="arrowup" xMin="148" yMin="0" xMax="1085" yMax="1405">
      <contour>
        <pt x="584" y="1172" on="1"/>
        <pt x="218" y="874" on="1"/>
        <pt x="148" y="963" on="1"/>
        <pt x="666" y="1405" on="1"/>
        <pt x="741" y="1405" on="1"/>
        <pt x="1085" y="963" on="1"/>
        <pt x="985" y="874" on="1"/>
        <pt x="735" y="1172" on="1"/>
        <pt x="500" y="0" on="1"/>
        <pt x="349" y="0" on="1"/>
      </contour>
    </TTGlyph>
    <TTGlyph name="asciicircum" xMin="111" yMin="303" xMax="867" yMax="1210">
      <contour>
        <pt x="253" y="303" on="1"/>
        <pt x="624" y="1027" on="1"/>
        <pt x="707" y="303" on="1"/>
        <pt x="867" y="303" on="1"/>
        <pt x="747" y="1210" on="1"/>
        <pt x="596" y="1210" on="1"/>
        <pt x="111" y="303" on="1"/>
      </contour>
    </TTGlyph>
    <TTGlyph name="asciitilde" xMin="3" yMin="457" xMax="1122" yMax="904">
      <contour>
        <pt x="39" y="698" on="0"/>
        <pt x="228" y="904" on="0"/>
        <pt x="378" y="904" on="1"/>
        <pt x="451" y="904" on="0"/>
        <pt x="548" y="852" on="0"/>
        <pt x="604" y="779" on="0"/>
        <pt x="635" y="721" on="1"/>
        <pt x="659" y="678" on="0"/>
        <pt x="692" y="630" on="0"/>
        <pt x="740" y="598" on="0"/>
        <pt x="774" y="598" on="1"/>
        <pt x="851" y="598" on="0"/>
        <pt x="955" y="737" on="0"/>
        <pt x="984" y="904" on="1"/>
        <pt x="1122" y="896" on="1"/>
        <pt x="1085" y="664" on="0"/>
        <pt x="891" y="458" on="0"/>
        <pt x="743" y="458" on="1"/>
        <pt x="670" y="458" on="0"/>
        <pt x="572" y="510" on="0"/>
        <pt x="515" y="584" on="0"/>
        <pt x="483" y="642" on="1"/>
        <pt x="459" y="685" on="0"/>
        <pt x="426" y="732" on="0"/>
        <pt x="379" y="764" on="0"/>
        <pt x="346" y="764" on="1"/>
        <pt x="265" y="764" on="0"/>
        <pt x="166" y="625" on="0"/>
        <pt x="141" y="457" on="1"/>
        <pt x="3" y="465" on="1"/>
      </contour>
    </TTGlyph>
    <TTGlyph name="asterisk" xMin="44" yMin="179" xMax="1099" yMax="1184">
      <contour>
        <pt x="123" y="893" on="1"/>
        <pt x="503" y="752" on="1"/>
        <pt x="581" y="1184" on="1"/>
        <pt x="740" y="1184" on="1"/>
        <pt x="646" y="753" on="1"/>
        <pt x="1080" y="894" on="1"/>
        <pt x="1099" y="743" on="1"/>
        <pt x="662" y="618" on="1"/>
        <pt x="854" y="273" on="1"/>
        <pt x="710" y="179" on="1"/>
        <pt x="534" y="533" on="1"/>
        <pt x="215" y="180" on="1"/>
        <pt x="103" y="273" on="1"/>
        <pt x="430" y="617" on="1"/>
        <pt x="44" y="742" on="1"/>
      </contour>
    </TTGlyph>
    <TTGlyph name="at" xMin="100" yMin="-172" xMax="984" yMax="1231">
      <contour>
        <pt x="301" y="-172" on="0"/>
        <pt x="100" y="30" on="0"/>
        <pt x="100" y="248" on="1"/>
        <pt x="100" y="366" on="0"/>
        <pt x="129" y="510" on="1"/>
        <pt x="202" y="878" on="0"/>
        <pt x="477" y="1231" on="0"/>
        <pt x="680" y="1231" on="1"/>
        <pt x="835" y="1231" on="0"/>
        <pt x="984" y="1086" on="0"/>
        <pt x="984" y="959" on="1"/>
        <pt x="984" y="908" on="0"/>
        <pt x="972" y="849" on="1"/>
        <pt x="866" y="300" on="1"/>
        <pt x="811" y="284" on="0"/>
        <pt x="688" y="265" on="0"/>
        <pt x="636" y="265" on="1"/>
        <pt x="531" y="265" on="0"/>
        <pt x="428" y="349" on="0"/>
        <pt x="428" y="442" on="1"/>
        <pt x="428" y="481" on="0"/>
        <pt x="439" y="538" on="1"/>
        <pt x="490" y="794" on="0"/>
        <pt x="719" y="794" on="1"/>
        <pt x="766" y="794" on="0"/>
        <pt x="805" y="791" on="1"/>
        <pt x="824" y="866" on="1"/>
        <pt x="833" y="913" on="0"/>
        <pt x="833" y="949" on="1"/>
        <pt x="833" y="1027" on="0"/>
        <pt x="748" y="1099" on="0"/>
        <pt x="661" y="1099" on="1"/>
        <pt x="574" y="1099" on="0"/>
        <pt x="437" y="990" on="0"/>
        <pt x="323" y="724" on="0"/>
        <pt x="277" y="492" on="1"/>
        <pt x="248" y="344" on="0"/>
        <pt x="248" y="246" on="1"/>
        <pt x="248" y="94" on="0"/>
        <pt x="375" y="-40" on="0"/>
        <pt x="503" y="-40" on="1"/>
        <pt x="603" y="-40" on="0"/>
        <pt x="748" y="-10" on="1"/>
        <pt x="751" y="-133" on="1"/>
        <pt x="592" y="-172" on="0"/>
        <pt x="484" y="-172" on="1"/>
      </contour>
      <contour>
        <pt x="578" y="478" on="0"/>
        <pt x="578" y="453" on="1"/>
        <pt x="578" y="417" on="0"/>
        <pt x="613" y="393" on="0"/>
        <pt x="655" y="393" on="1"/>
        <pt x="687" y="393" on="0"/>
        <pt x="727" y="400" on="1"/>
        <pt x="787" y="664" on="1"/>
        <pt x="747" y="666" on="0"/>
        <pt x="732" y="666" on="1"/>
        <pt x="689" y="666" on="0"/>
        <pt x="633" y="640" on="0"/>
        <pt x="598" y="577" on="0"/>
        <pt x="587" y="520" on="1"/>
      </contour>
    </TTGlyph>
    <TTGlyph name="atilde" xMin="-34" yMin="-15" xMax="955" yMax="1562">
      <component glyphName="a" x="-105" y="0" flags="0x400"/>
      <component glyphName="tildecomb" x="-105" y="0" flags="0x0"/>
    </TTGlyph>
    <TTGlyph name="b" xMin="71" yMin="-21" xMax="975" yMax="1513">
      <contour>
        <pt x="232" y="-21" on="0"/>
        <pt x="71" y="35" on="1"/>
        <pt x="363" y="1513" on="1"/>
        <pt x="476" y="1513" on="1"/>
        <pt x="337" y="826" on="1"/>
        <pt x="406" y="897" on="1"/>
        <pt x="487" y="979" on="0"/>
        <pt x="649" y="1069" on="0"/>
        <pt x="736" y="1069" on="1"/>
        <pt x="853" y="1069" on="0"/>
        <pt x="975" y="919" on="0"/>
        <pt x="975" y="776" on="1"/>
        <pt x="975" y="689" on="0"/>
        <pt x="955" y="592" on="1"/>
        <pt x="916" y="396" on="0"/>
        <pt x="742" y="119" on="0"/>
        <pt x="510" y="-21" on="0"/>
        <pt x="384" y="-21" on="1"/>
      </contour>
      <contour>
        <pt x="479" y="76" on="0"/>
        <pt x="666" y="193" on="0"/>
        <pt x="803" y="428" on="0"/>
        <pt x="838" y="601" on="1"/>
        <pt x="858" y="700" on="0"/>
        <pt x="858" y="776" on="1"/>
        <pt x="858" y="874" on="0"/>
        <pt x="785" y="967" on="0"/>
        <pt x="713" y="967" on="1"/>
        <pt x="643" y="967" on="0"/>
        <pt x="506" y="885" on="0"/>
        <pt x="424" y="802" on="1"/>
        <pt x="315" y="701" on="1"/>
        <pt x="190" y="101" on="1"/>
        <pt x="228" y="90" on="0"/>
        <pt x="324" y="76" on="0"/>
        <pt x="367" y="76" on="1"/>
      </contour>
    </TTGlyph>
    <TTGlyph name="backslash" xMin="344" yMin="-303" xMax="746" yMax="1513">
      <contour>
        <pt x="344" y="1513" on="1"/>
        <pt x="502" y="1513" on="1"/>
        <pt x="746" y="-303" on="1"/>
        <pt x="590" y="-303" on="1"/>
      </contour>
    </TTGlyph>
    <TTGlyph name="bar" xMin="454" yMin="-303" xMax="605" yMax="1513">
      <contour>
        <pt x="454" y="1513" on="1"/>
        <pt x="605" y="1513" on="1"/>
        <pt x="605" y="-303" on="1"/>
        <pt x="454" y="-303" on="1"/>
      </contour>
    </TTGlyph>
    <TTGlyph name="block" xMin="-166" yMin="-303" xMax="1256" yMax="1513">
      <contour>
        <pt x="197" y="1513" on="1"/>
        <pt x="1256" y="1513" on="1"/>
        <pt x="893" y="-303" on="1"/>
        <pt x="-166" y="-303" on="1"/>
      </contour>
    </TTGlyph>
    <TTGlyph name="braceleft" xMin="115" yMin="-290" xMax="1096" yMax="1500">
      <contour>
        <pt x="262" y="678" on="0"/>
        <pt x="412" y="727" on="0"/>
        <pt x="492" y="811" on="0"/>
        <pt x="507" y="885" on="1"/>
        <pt x="512" y="910" on="0"/>
        <pt x="517" y="959" on="1"/>
        <pt x="529" y="1051" on="0"/>
        <pt x="538" y="1096" on="1"/>
        <pt x="567" y="1243" on="0"/>
        <pt x="714" y="1410" on="0"/>
        <pt x="933" y="1485" on="0"/>
        <pt x="1096" y="1500" on="1"/>
        <pt x="1093" y="1378" on="1"/>
        <pt x="961" y="1360" on="0"/>
        <pt x="812" y="1311" on="0"/>
        <pt x="710" y="1191" on="0"/>
        <pt x="687" y="1076" on="1"/>
        <pt x="677" y="1030" on="0"/>
        <pt x="670" y="972" on="1"/>
        <pt x="658" y="895" on="0"/>
        <pt x="655" y="882" on="1"/>
        <pt x="631" y="761" on="0"/>
        <pt x="476" y="632" on="0"/>
        <pt x="323" y="603" on="1"/>
        <pt x="438" y="579" on="0"/>
        <pt x="549" y="475" on="0"/>
        <pt x="549" y="386" on="1"/>
        <pt x="549" y="353" on="0"/>
        <pt x="541" y="310" on="1"/>
        <pt x="524" y="239" on="1"/>
        <pt x="502" y="154" on="0"/>
        <pt x="495" y="116" on="1"/>
        <pt x="485" y="67" on="0"/>
        <pt x="485" y="27" on="1"/>
        <pt x="485" y="-44" on="0"/>
        <pt x="552" y="-120" on="0"/>
        <pt x="669" y="-155" on="0"/>
        <pt x="776" y="-170" on="1"/>
        <pt x="747" y="-290" on="1"/>
        <pt x="612" y="-277" on="0"/>
        <pt x="433" y="-216" on="0"/>
        <pt x="332" y="-89" on="0"/>
        <pt x="332" y="17" on="1"/>
        <pt x="332" y="70" on="0"/>
        <pt x="345" y="132" on="1"/>
        <pt x="355" y="182" on="0"/>
        <pt x="373" y="244" on="1"/>
        <pt x="391" y="307" on="0"/>
        <pt x="398" y="343" on="1"/>
        <pt x="404" y="372" on="0"/>
        <pt x="404" y="394" on="1"/>
        <pt x="404" y="442" on="0"/>
        <pt x="347" y="500" on="0"/>
        <pt x="225" y="537" on="0"/>
        <pt x="115" y="553" on="1"/>
        <pt x="128" y="659" on="1"/>
      </contour>
    </TTGlyph>
    <TTGlyph name="braceright" xMin="-6" yMin="-290" xMax="975" yMax="1500">
      <contour>
        <pt x="828" y="532" on="0"/>
        <pt x="678" y="483" on="0"/>
        <pt x="599" y="399" on="0"/>
        <pt x="584" y="325" on="1"/>
        <pt x="581" y="309" on="0"/>
        <pt x="572" y="245" on="1"/>
        <pt x="560" y="152" on="0"/>
        <pt x="552" y="114" on="1"/>
        <pt x="523" y="-33" on="0"/>
        <pt x="376" y="-200" on="0"/>
        <pt x="157" y="-275" on="0"/>
        <pt x="-6" y="-290" on="1"/>
        <pt x="-3" y="-168" on="1"/>
        <pt x="129" y="-150" on="0"/>
        <pt x="278" y="-101" on="0"/>
        <pt x="380" y="19" on="0"/>
        <pt x="403" y="134" on="1"/>
        <pt x="414" y="189" on="0"/>
        <pt x="422" y="245" on="1"/>
        <pt x="429" y="296" on="0"/>
        <pt x="435" y="328" on="1"/>
        <pt x="460" y="449" on="0"/>
        <pt x="614" y="578" on="0"/>
        <pt x="767" y="607" on="1"/>
        <pt x="652" y="631" on="0"/>
        <pt x="541" y="734" on="0"/>
        <pt x="541" y="823" on="1"/>
        <pt x="541" y="858" on="0"/>
        <pt x="550" y="900" on="1"/>
        <pt x="558" y="936" on="0"/>
        <pt x="568" y="978" on="1"/>
        <pt x="582" y="1032" on="0"/>
        <pt x="595" y="1094" on="1"/>
        <pt x="605" y="1143" on="0"/>
        <pt x="605" y="1183" on="1"/>
        <pt x="605" y="1254" on="0"/>
        <pt x="538" y="1330" on="0"/>
        <pt x="421" y="1365" on="0"/>
        <pt x="314" y="1380" on="1"/>
        <pt x="344" y="1500" on="1"/>
        <pt x="478" y="1487" on="0"/>
        <pt x="657" y="1426" on="0"/>
        <pt x="758" y="1299" on="0"/>
        <pt x="758" y="1193" on="1"/>
        <pt x="758" y="1140" on="0"/>
        <pt x="745" y="1078" on="1"/>
        <pt x="736" y="1029" on="0"/>
        <pt x="715" y="957" on="1"/>
        <pt x="699" y="902" on="0"/>
        <pt x="692" y="867" on="1"/>
        <pt x="687" y="845" on="0"/>
        <pt x="687" y="817" on="1"/>
        <pt x="687" y="769" on="0"/>
        <pt x="743" y="710" on="0"/>
        <pt x="865" y="673" on="0"/>
        <pt x="975" y="657" on="1"/>
        <pt x="962" y="551" on="1"/>
      </contour>
    </TTGlyph>
    <TTGlyph name="bracketleft" xMin="137" yMin="-303" xMax="1105" yMax="1513">
      <contour>
        <pt x="500" y="1513" on="1"/>
        <pt x="1105" y="1513" on="1"/>
        <pt x="1079" y="1380" on="1"/>
        <pt x="625" y="1380" on="1"/>
        <pt x="315" y="-170" on="1"/>
        <pt x="769" y="-170" on="1"/>
        <pt x="742" y="-303" on="1"/>
        <pt x="137" y="-303" on="1"/>
      </contour>
    </TTGlyph>
    <TTGlyph name="bracketright" xMin="-15" yMin="-303" xMax="953" yMax="1513">
      <contour>
        <pt x="12" y="-170" on="1"/>
        <pt x="466" y="-170" on="1"/>
        <pt x="776" y="1380" on="1"/>
        <pt x="322" y="1380" on="1"/>
        <pt x="348" y="1513" on="1"/>
        <pt x="953" y="1513" on="1"/>
        <pt x="590" y="-303" on="1"/>
        <pt x="-15" y="-303" on="1"/>
      </contour>
    </TTGlyph>
    <TTGlyph name="breve" xMin="326" yMin="1244" xMax="929" yMax="1591">
      <component glyphName="uni0306" x="-105" y="0" flags="0x400"/>
    </TTGlyph>
    <TTGlyph name="c" xMin="117" yMin="-19" xMax="970" yMax="1074">
      <contour>
        <pt x="832" y="895" on="0"/>
        <pt x="716" y="938" on="0"/>
        <pt x="638" y="938" on="1"/>
        <pt x="497" y="938" on="0"/>
        <pt x="330" y="722" on="0"/>
        <pt x="290" y="520" on="1"/>
        <pt x="272" y="432" on="0"/>
        <pt x="272" y="362" on="1"/>
        <pt x="272" y="117" on="0"/>
        <pt x="492" y="117" on="1"/>
        <pt x="562" y="117" on="0"/>
        <pt x="670" y="144" on="0"/>
        <pt x="743" y="170" on="1"/>
        <pt x="768" y="47" on="1"/>
        <pt x="693" y="15" on="0"/>
        <pt x="548" y="-19" on="0"/>
        <pt x="466" y="-19" on="1"/>
        <pt x="300" y="-19" on="0"/>
        <pt x="117" y="157" on="0"/>
        <pt x="117" y="342" on="1"/>
        <pt x="117" y="436" on="0"/>
        <pt x="138" y="538" on="1"/>
        <pt x="192" y="804" on="0"/>
        <pt x="459" y="1074" on="0"/>
        <pt x="652" y="1074" on="1"/>
        <pt x="831" y="1074" on="0"/>
        <pt x="970" y="970" on="1"/>
        <pt x="888" y="857" on="1"/>
      </contour>
    </TTGlyph>
    <TTGlyph name="cacute" xMin="12" yMin="-19" xMax="992" yMax="1648">
      <component glyphName="c" x="-105" y="0" flags="0x400"/>
      <component glyphName="acutecomb" x="-75" y="5" flags="0x4"/>
    </TTGlyph>
    <TTGlyph name="caron" xMin="334" yMin="1248" xMax="965" yMax="1643">
      <component glyphName="uni030C" x="-105" y="0" flags="0x400"/>
    </TTGlyph>
    <TTGlyph name="ccaron" xMin="12" yMin="-19" xMax="995" yMax="1648">
      <component glyphName="c" x="-105" y="0" flags="0x400"/>
      <component glyphName="uni030C" x="-75" y="5" flags="0x4"/>
    </TTGlyph>
    <TTGlyph name="ccedilla" xMin="117" yMin="-303" xMax="970" yMax="1074">
      <contour>
        <pt x="832" y="895" on="0"/>
        <pt x="716" y="938" on="0"/>
        <pt x="638" y="938" on="1"/>
        <pt x="497" y="938" on="0"/>
        <pt x="330" y="722" on="0"/>
        <pt x="290" y="520" on="1"/>
        <pt x="272" y="432" on="0"/>
        <pt x="272" y="362" on="1"/>
        <pt x="272" y="117" on="0"/>
        <pt x="492" y="117" on="1"/>
        <pt x="562" y="117" on="0"/>
        <pt x="670" y="144" on="0"/>
        <pt x="743" y="170" on="1"/>
        <pt x="768" y="47" on="1"/>
        <pt x="702" y="19" on="0"/>
        <pt x="621" y="-6" on="1"/>
        <pt x="620" y="-12" on="0"/>
        <pt x="618" y="-26" on="0"/>
        <pt x="617" y="-35" on="1"/>
        <pt x="614" y="-64" on="0"/>
        <pt x="608" y="-92" on="1"/>
        <pt x="587" y="-197" on="0"/>
        <pt x="438" y="-303" on="0"/>
        <pt x="336" y="-303" on="1"/>
        <pt x="271" y="-303" on="0"/>
        <pt x="210" y="-286" on="1"/>
        <pt x="242" y="-162" on="1"/>
        <pt x="270" y="-166" on="0"/>
        <pt x="317" y="-166" on="1"/>
        <pt x="387" y="-166" on="0"/>
        <pt x="465" y="-105" on="0"/>
        <pt x="478" y="-42" on="1"/>
        <pt x="483" y="-14" on="1"/>
        <pt x="462" y="-19" on="1"/>
        <pt x="298" y="-19" on="0"/>
        <pt x="117" y="157" on="0"/>
        <pt x="117" y="342" on="1"/>
        <pt x="117" y="436" on="0"/>
        <pt x="138" y="538" on="1"/>
        <pt x="192" y="804" on="0"/>
        <pt x="459" y="1074" on="0"/>
        <pt x="652" y="1074" on="1"/>
        <pt x="831" y="1074" on="0"/>
        <pt x="970" y="970" on="1"/>
        <pt x="888" y="857" on="1"/>
      </contour>
    </TTGlyph>
    <TTGlyph name="ccircumflex" xMin="12" yMin="-19" xMax="913" yMax="1648">
      <component glyphName="c" x="-105" y="0" flags="0x400"/>
      <component glyphName="uni0302" x="-75" y="5" flags="0x4"/>
    </TTGlyph>
    <TTGlyph name="cdotaccent" xMin="12" yMin="-19" xMax="865" yMax="1544">
      <component glyphName="c" x="-105" y="0" flags="0x400"/>
      <component glyphName="uni0307" x="-75" y="5" flags="0x4"/>
    </TTGlyph>
    <TTGlyph name="cedilla" xMin="105" yMin="-303" xMax="513" yMax="30">
      <component glyphName="uni0327" x="-105" y="0" flags="0x400"/>
    </TTGlyph>
    <TTGlyph name="circumflex" xMin="252" yMin="1248" xMax="883" yMax="1643">
      <component glyphName="uni0302" x="-105" y="0" flags="0x400"/>
    </TTGlyph>
    <TTGlyph name="colon" xMin="173" yMin="-23" xMax="676" yMax="1081">
      <component glyphName="period" x="-105" y="0" flags="0x400"/>
      <component glyphName="period" x="46" y="756" flags="0x4"/>
    </TTGlyph>
    <TTGlyph name="comma" xMin="134" yMin="-303" xMax="670" yMax="303">
      <contour>
        <pt x="134" y="-303" on="1"/>
        <pt x="393" y="303" on="1"/>
        <pt x="670" y="303" on="1"/>
        <pt x="262" y="-303" on="1"/>
      </contour>
    </TTGlyph>
    <TTGlyph name="copyright" xMin="-12" yMin="-174" xMax="1102" yMax="1384">
      <contour>
        <pt x="267" y="-174" on="0"/>
        <pt x="83" y="-51" on="0"/>
        <pt x="-12" y="182" on="0"/>
        <pt x="-12" y="343" on="1"/>
        <pt x="-12" y="464" on="0"/>
        <pt x="17" y="614" on="1"/>
        <pt x="64" y="849" on="0"/>
        <pt x="260" y="1197" on="0"/>
        <pt x="533" y="1384" on="0"/>
        <pt x="693" y="1384" on="1"/>
        <pt x="823" y="1384" on="0"/>
        <pt x="1007" y="1261" on="0"/>
        <pt x="1102" y="1029" on="0"/>
        <pt x="1102" y="868" on="1"/>
        <pt x="1102" y="738" on="0"/>
        <pt x="1073" y="596" on="1"/>
        <pt x="1026" y="361" on="0"/>
        <pt x="830" y="13" on="0"/>
        <pt x="557" y="-174" on="0"/>
        <pt x="397" y="-174" on="1"/>
      </contour>
      <contour>
        <pt x="538" y="-38" on="0"/>
        <pt x="743" y="125" on="0"/>
        <pt x="886" y="419" on="0"/>
        <pt x="926" y="616" on="1"/>
        <pt x="955" y="764" on="0"/>
        <pt x="955" y="881" on="1"/>
        <pt x="955" y="1056" on="0"/>
        <pt x="821" y="1248" on="0"/>
        <pt x="683" y="1248" on="1"/>
        <pt x="555" y="1248" on="0"/>
        <pt x="349" y="1087" on="0"/>
        <pt x="205" y="795" on="0"/>
        <pt x="165" y="598" on="1"/>
        <pt x="136" y="451" on="0"/>
        <pt x="136" y="336" on="1"/>
        <pt x="136" y="158" on="0"/>
        <pt x="272" y="-38" on="0"/>
        <pt x="410" y="-38" on="1"/>
      </contour>
      <contour>
        <pt x="404" y="303" on="0"/>
        <pt x="281" y="434" on="0"/>
        <pt x="281" y="538" on="1"/>
        <pt x="281" y="572" on="0"/>
        <pt x="289" y="614" on="1"/>
        <pt x="317" y="754" on="0"/>
        <pt x="500" y="908" on="0"/>
        <pt x="635" y="908" on="1"/>
        <pt x="677" y="908" on="0"/>
        <pt x="783" y="890" on="0"/>
        <pt x="820" y="878" on="1"/>
        <pt x="774" y="757" on="1"/>
        <pt x="712" y="772" on="0"/>
        <pt x="632" y="772" on="1"/>
        <pt x="561" y="772" on="0"/>
        <pt x="456" y="689" on="0"/>
        <pt x="438" y="596" on="1"/>
        <pt x="433" y="568" on="0"/>
        <pt x="433" y="550" on="1"/>
        <pt x="433" y="448" on="0"/>
        <pt x="560" y="448" on="1"/>
        <pt x="637" y="448" on="0"/>
        <pt x="709" y="466" on="1"/>
        <pt x="718" y="346" on="1"/>
        <pt x="622" y="303" on="0"/>
        <pt x="523" y="303" on="1"/>
      </contour>
    </TTGlyph>
    <TTGlyph name="d" xMin="84" yMin="-15" xMax="1090" yMax="1513">
      <contour>
        <pt x="206" y="-15" on="0"/>
        <pt x="84" y="135" on="0"/>
        <pt x="84" y="278" on="1"/>
        <pt x="84" y="365" on="0"/>
        <pt x="104" y="462" on="1"/>
        <pt x="143" y="658" on="0"/>
        <pt x="317" y="935" on="0"/>
        <pt x="549" y="1075" on="0"/>
        <pt x="675" y="1075" on="1"/>
        <pt x="764" y="1075" on="0"/>
        <pt x="880" y="1048" on="1"/>
        <pt x="977" y="1513" on="1"/>
        <pt x="1090" y="1513" on="1"/>
        <pt x="788" y="0" on="1"/>
        <pt x="675" y="0" on="1"/>
        <pt x="722" y="228" on="1"/>
        <pt x="653" y="157" on="1"/>
        <pt x="572" y="75" on="0"/>
        <pt x="410" y="-15" on="0"/>
        <pt x="323" y="-15" on="1"/>
      </contour>
      <contour>
        <pt x="416" y="87" on="0"/>
        <pt x="553" y="169" on="0"/>
        <pt x="635" y="252" on="1"/>
        <pt x="744" y="353" on="1"/>
        <pt x="869" y="953" on="1"/>
        <pt x="831" y="964" on="0"/>
        <pt x="735" y="978" on="0"/>
        <pt x="692" y="978" on="1"/>
        <pt x="580" y="978" on="0"/>
        <pt x="393" y="861" on="0"/>
        <pt x="256" y="626" on="0"/>
        <pt x="221" y="453" on="1"/>
        <pt x="201" y="354" on="0"/>
        <pt x="201" y="278" on="1"/>
        <pt x="201" y="180" on="0"/>
        <pt x="274" y="87" on="0"/>
        <pt x="346" y="87" on="1"/>
      </contour>
    </TTGlyph>
    <TTGlyph name="dagger" xMin="124" yMin="-113" xMax="1060" yMax="1324">
      <contour>
        <pt x="503" y="772" on="1"/>
        <pt x="124" y="768" on="1"/>
        <pt x="153" y="911" on="1"/>
        <pt x="530" y="907" on="1"/>
        <pt x="607" y="1324" on="1"/>
        <pt x="770" y="1324" on="1"/>
        <pt x="681" y="907" on="1"/>
        <pt x="1060" y="911" on="1"/>
        <pt x="1031" y="768" on="1"/>
        <pt x="654" y="772" on="1"/>
        <pt x="477" y="-113" on="1"/>
        <pt x="326" y="-113" on="1"/>
      </contour>
    </TTGlyph>
    <TTGlyph name="dcroat" xMin="84" yMin="-15" xMax="1207" yMax="1513">
      <contour>
        <pt x="206" y="-15" on="0"/>
        <pt x="84" y="135" on="0"/>
        <pt x="84" y="278" on="1"/>
        <pt x="84" y="365" on="0"/>
        <pt x="104" y="462" on="1"/>
        <pt x="143" y="658" on="0"/>
        <pt x="317" y="935" on="0"/>
        <pt x="549" y="1075" on="0"/>
        <pt x="675" y="1075" on="1"/>
        <pt x="764" y="1075" on="0"/>
        <pt x="880" y="1048" on="1"/>
        <pt x="923" y="1240" on="1"/>
        <pt x="653" y="1240" on="1"/>
        <pt x="673" y="1342" on="1"/>
        <pt x="943" y="1342" on="1"/>
        <pt x="977" y="1513" on="1"/>
        <pt x="1090" y="1513" on="1"/>
        <pt x="1056" y="1342" on="1"/>
        <pt x="1207" y="1342" on="1"/>
        <pt x="1187" y="1240" on="1"/>
        <pt x="1036" y="1240" on="1"/>
        <pt x="788" y="0" on="1"/>
        <pt x="675" y="0" on="1"/>
        <pt x="722" y="228" on="1"/>
        <pt x="653" y="157" on="1"/>
        <pt x="572" y="75" on="0"/>
        <pt x="410" y="-15" on="0"/>
        <pt x="323" y="-15" on="1"/>
      </contour>
      <contour>
        <pt x="416" y="87" on="0"/>
        <pt x="553" y="169" on="0"/>
        <pt x="635" y="252" on="1"/>
        <pt x="744" y="353" on="1"/>
        <pt x="869" y="953" on="1"/>
        <pt x="831" y="964" on="0"/>
        <pt x="735" y="978" on="0"/>
        <pt x="692" y="978" on="1"/>
        <pt x="580" y="978" on="0"/>
        <pt x="393" y="861" on="0"/>
        <pt x="256" y="626" on="0"/>
        <pt x="221" y="453" on="1"/>
        <pt x="201" y="354" on="0"/>
        <pt x="201" y="278" on="1"/>
        <pt x="201" y="180" on="0"/>
        <pt x="274" y="87" on="0"/>
        <pt x="346" y="87" on="1"/>
      </contour>
    </TTGlyph>
    <TTGlyph name="dieresis" xMin="283" yMin="1265" xMax="913" yMax="1524">
      <component glyphName="uni0308" x="-105" y="0" flags="0x400"/>
    </TTGlyph>
    <TTGlyph name="dollar" xMin="76" yMin="-303" xMax="1016" yMax="1664">
      <contour>
        <pt x="335" y="-14" on="1"/>
        <pt x="263" y="-8" on="0"/>
        <pt x="139" y="42" on="0"/>
        <pt x="76" y="83" on="1"/>
        <pt x="144" y="195" on="1"/>
        <pt x="197" y="162" on="0"/>
        <pt x="331" y="119" on="0"/>
        <pt x="393" y="119" on="1"/>
        <pt x="501" y="119" on="0"/>
        <pt x="653" y="234" on="0"/>
        <pt x="672" y="330" on="1"/>
        <pt x="677" y="357" on="0"/>
        <pt x="677" y="375" on="1"/>
        <pt x="677" y="426" on="0"/>
        <pt x="631" y="514" on="0"/>
        <pt x="563" y="584" on="0"/>
        <pt x="503" y="637" on="1"/>
        <pt x="435" y="696" on="0"/>
        <pt x="353" y="784" on="0"/>
        <pt x="295" y="902" on="0"/>
        <pt x="295" y="974" on="1"/>
        <pt x="295" y="1007" on="0"/>
        <pt x="303" y="1049" on="1"/>
        <pt x="318" y="1125" on="0"/>
        <pt x="405" y="1261" on="0"/>
        <pt x="541" y="1358" on="0"/>
        <pt x="627" y="1374" on="1"/>
        <pt x="688" y="1664" on="1"/>
        <pt x="840" y="1664" on="1"/>
        <pt x="779" y="1375" on="1"/>
        <pt x="899" y="1358" on="0"/>
        <pt x="1016" y="1290" on="1"/>
        <pt x="945" y="1180" on="1"/>
        <pt x="824" y="1244" on="0"/>
        <pt x="703" y="1244" on="1"/>
        <pt x="637" y="1244" on="0"/>
        <pt x="533" y="1186" on="0"/>
        <pt x="467" y="1093" on="0"/>
        <pt x="457" y="1042" on="1"/>
        <pt x="452" y="1015" on="0"/>
        <pt x="452" y="995" on="1"/>
        <pt x="452" y="944" on="0"/>
        <pt x="498" y="857" on="0"/>
        <pt x="567" y="787" on="0"/>
        <pt x="624" y="739" on="1"/>
        <pt x="693" y="680" on="0"/>
        <pt x="775" y="593" on="0"/>
        <pt x="833" y="474" on="0"/>
        <pt x="833" y="399" on="1"/>
        <pt x="833" y="360" on="0"/>
        <pt x="824" y="316" on="1"/>
        <pt x="809" y="242" on="0"/>
        <pt x="720" y="107" on="0"/>
        <pt x="578" y="10" on="0"/>
        <pt x="487" y="-8" on="1"/>
        <pt x="424" y="-303" on="1"/>
        <pt x="273" y="-303" on="1"/>
      </contour>
    </TTGlyph>
    <TTGlyph name="dotaccent" xMin="452" yMin="1250" xMax="745" yMax="1539">
      <component glyphName="uni0307" x="-105" y="0" flags="0x400"/>
    </TTGlyph>
    <TTGlyph name="dotlessi" xMin="54" yMin="0" xMax="832" yMax="1070">
      <contour>
        <pt x="810" y="0" on="1"/>
        <pt x="54" y="0" on="1"/>
        <pt x="76" y="113" on="1"/>
        <pt x="382" y="132" on="1"/>
        <pt x="543" y="938" on="1"/>
        <pt x="260" y="938" on="1"/>
        <pt x="283" y="1051" on="1"/>
        <pt x="654" y="1070" on="1"/>
        <pt x="722" y="1070" on="1"/>
        <pt x="534" y="132" on="1"/>
        <pt x="832" y="113" on="1"/>
      </contour>
    </TTGlyph>
    <TTGlyph name="e" xMin="109" yMin="-19" xMax="902" yMax="1069">
      <contour>
        <pt x="290" y="-19" on="0"/>
        <pt x="109" y="169" on="0"/>
        <pt x="109" y="349" on="1"/>
        <pt x="109" y="434" on="0"/>
        <pt x="130" y="536" on="1"/>
        <pt x="163" y="702" on="0"/>
        <pt x="303" y="942" on="0"/>
        <pt x="503" y="1069" on="0"/>
        <pt x="625" y="1069" on="1"/>
        <pt x="758" y="1069" on="0"/>
        <pt x="902" y="912" on="0"/>
        <pt x="902" y="773" on="1"/>
        <pt x="902" y="663" on="0"/>
        <pt x="856" y="526" on="1"/>
        <pt x="246" y="530" on="1"/>
        <pt x="244" y="523" on="1"/>
        <pt x="225" y="428" on="0"/>
        <pt x="225" y="351" on="1"/>
        <pt x="225" y="216" on="0"/>
        <pt x="349" y="83" on="0"/>
        <pt x="474" y="83" on="1"/>
        <pt x="580" y="83" on="0"/>
        <pt x="732" y="142" on="1"/>
        <pt x="750" y="45" on="1"/>
        <pt x="589" y="-19" on="0"/>
        <pt x="463" y="-19" on="1"/>
      </contour>
      <contour>
        <pt x="771" y="634" on="1"/>
        <pt x="789" y="714" on="0"/>
        <pt x="789" y="775" on="1"/>
        <pt x="789" y="871" on="0"/>
        <pt x="701" y="970" on="0"/>
        <pt x="614" y="970" on="1"/>
        <pt x="495" y="970" on="0"/>
        <pt x="319" y="793" on="0"/>
        <pt x="270" y="626" on="1"/>
      </contour>
    </TTGlyph>
    <TTGlyph name="eacute" xMin="4" yMin="-19" xMax="953" yMax="1643">
      <component glyphName="e" x="-105" y="0" flags="0x400"/>
      <component glyphName="acutecomb" x="-114" y="0" flags="0x0"/>
    </TTGlyph>
    <TTGlyph name="ebreve" xMin="4" yMin="-19" xMax="920" yMax="1591">
      <component glyphName="e" x="-105" y="0" flags="0x400"/>
      <component glyphName="uni0306" x="-114" y="0" flags="0x0"/>
    </TTGlyph>
    <TTGlyph name="ecaron" xMin="4" yMin="-19" xMax="956" yMax="1643">
      <component glyphName="e" x="-105" y="0" flags="0x400"/>
      <component glyphName="uni030C" x="-114" y="0" flags="0x0"/>
    </TTGlyph>
    <TTGlyph name="ecircumflex" xMin="4" yMin="-19" xMax="874" yMax="1643">
      <component glyphName="e" x="-105" y="0" flags="0x400"/>
      <component glyphName="uni0302" x="-114" y="0" flags="0x0"/>
    </TTGlyph>
    <TTGlyph name="edieresis" xMin="4" yMin="-19" xMax="904" yMax="1524">
      <component glyphName="e" x="-105" y="0" flags="0x400"/>
      <component glyphName="uni0308" x="-114" y="0" flags="0x0"/>
    </TTGlyph>
    <TTGlyph name="edotaccent" xMin="4" yMin="-19" xMax="797" yMax="1539">
      <component glyphName="e" x="-105" y="0" flags="0x400"/>
      <component glyphName="uni0307" x="-114" y="0" flags="0x0"/>
    </TTGlyph>
    <TTGlyph name="egrave" xMin="4" yMin="-19" xMax="797" yMax="1643">
      <component glyphName="e" x="-105" y="0" flags="0x400"/>
      <component glyphName="gravecomb" x="-114" y="0" flags="0x0"/>
    </TTGlyph>
    <TTGlyph name="eight" xMin="49" yMin="-19" xMax="1020" yMax="1380">
      <contour>
        <pt x="236" y="-19" on="0"/>
        <pt x="49" y="127" on="0"/>
        <pt x="49" y="249" on="1"/>
        <pt x="49" y="285" on="0"/>
        <pt x="56" y="319" on="1"/>
        <pt x="82" y="446" on="0"/>
        <pt x="276" y="629" on="0"/>
        <pt x="428" y="710" on="1"/>
        <pt x="366" y="773" on="1"/>
        <pt x="305" y="829" on="0"/>
        <pt x="243" y="930" on="0"/>
        <pt x="243" y="999" on="1"/>
        <pt x="243" y="1033" on="0"/>
        <pt x="250" y="1068" on="1"/>
        <pt x="268" y="1155" on="0"/>
        <pt x="391" y="1297" on="0"/>
        <pt x="580" y="1380" on="0"/>
        <pt x="692" y="1380" on="1"/>
        <pt x="792" y="1380" on="0"/>
        <pt x="940" y="1311" on="0"/>
        <pt x="1020" y="1187" on="0"/>
        <pt x="1020" y="1106" on="1"/>
        <pt x="1020" y="1071" on="0"/>
        <pt x="1013" y="1037" on="1"/>
        <pt x="998" y="964" on="0"/>
        <pt x="915" y="847" on="0"/>
        <pt x="797" y="751" on="0"/>
        <pt x="697" y="683" on="1"/>
        <pt x="772" y="610" on="1"/>
        <pt x="848" y="540" on="0"/>
        <pt x="914" y="420" on="0"/>
        <pt x="914" y="358" on="1"/>
        <pt x="914" y="334" on="0"/>
        <pt x="907" y="297" on="1"/>
        <pt x="891" y="215" on="0"/>
        <pt x="763" y="70" on="0"/>
        <pt x="555" y="-19" on="0"/>
        <pt x="425" y="-19" on="1"/>
      </contour>
      <contour>
        <pt x="210" y="292" on="0"/>
        <pt x="210" y="277" on="1"/>
        <pt x="210" y="237" on="0"/>
        <pt x="255" y="164" on="0"/>
        <pt x="356" y="117" on="0"/>
        <pt x="436" y="117" on="1"/>
        <pt x="523" y="117" on="0"/>
        <pt x="657" y="167" on="0"/>
        <pt x="739" y="256" on="0"/>
        <pt x="751" y="313" on="1"/>
        <pt x="755" y="330" on="0"/>
        <pt x="755" y="350" on="1"/>
        <pt x="755" y="384" on="0"/>
        <pt x="714" y="452" on="0"/>
        <pt x="663" y="500" on="1"/>
        <pt x="526" y="620" on="1"/>
        <pt x="384" y="549" on="0"/>
        <pt x="232" y="402" on="0"/>
        <pt x="213" y="305" on="1"/>
      </contour>
      <contour>
        <pt x="402" y="1031" on="0"/>
        <pt x="402" y="1015" on="1"/>
        <pt x="402" y="977" on="0"/>
        <pt x="438" y="916" on="0"/>
        <pt x="478" y="878" on="1"/>
        <pt x="608" y="767" on="1"/>
        <pt x="691" y="827" on="0"/>
        <pt x="778" y="898" on="0"/>
        <pt x="847" y="994" on="0"/>
        <pt x="859" y="1055" on="1"/>
        <pt x="862" y="1073" on="0"/>
        <pt x="862" y="1091" on="1"/>
        <pt x="862" y="1156" on="0"/>
        <pt x="772" y="1246" on="0"/>
        <pt x="678" y="1246" on="1"/>
        <pt x="569" y="1246" on="0"/>
        <pt x="424" y="1142" on="0"/>
        <pt x="407" y="1058" on="1"/>
      </contour>
    </TTGlyph>
    <TTGlyph name="ellipsis" xMin="30" yMin="-23" xMax="852" yMax="189">
      <contour>
        <pt x="82" y="-23" on="0"/>
        <pt x="30" y="27" on="0"/>
        <pt x="30" y="68" on="1"/>
        <pt x="30" y="120" on="0"/>
        <pt x="101" y="189" on="0"/>
        <pt x="152" y="189" on="1"/>
        <pt x="194" y="189" on="0"/>
        <pt x="247" y="140" on="0"/>
        <pt x="247" y="100" on="1"/>
        <pt x="247" y="48" on="0"/>
        <pt x="176" y="-23" on="0"/>
        <pt x="125" y="-23" on="1"/>
      </contour>
      <contour>
        <pt x="384" y="-23" on="0"/>
        <pt x="333" y="26" on="0"/>
        <pt x="333" y="67" on="1"/>
        <pt x="333" y="120" on="0"/>
        <pt x="403" y="189" on="0"/>
        <pt x="454" y="189" on="1"/>
        <pt x="497" y="189" on="0"/>
        <pt x="549" y="140" on="0"/>
        <pt x="549" y="100" on="1"/>
        <pt x="549" y="48" on="0"/>
        <pt x="478" y="-23" on="0"/>
        <pt x="427" y="-23" on="1"/>
      </contour>
      <contour>
        <pt x="687" y="-23" on="0"/>
        <pt x="635" y="27" on="0"/>
        <pt x="635" y="68" on="1"/>
        <pt x="635" y="120" on="0"/>
        <pt x="706" y="189" on="0"/>
        <pt x="757" y="189" on="1"/>
        <pt x="799" y="189" on="0"/>
        <pt x="852" y="140" on="0"/>
        <pt x="852" y="100" on="1"/>
        <pt x="852" y="48" on="0"/>
        <pt x="781" y="-23" on="0"/>
        <pt x="730" y="-23" on="1"/>
      </contour>
    </TTGlyph>
    <TTGlyph name="emacron" xMin="4" yMin="-19" xMax="898" yMax="1471">
      <component glyphName="e" x="-105" y="0" flags="0x400"/>
      <component glyphName="uni0304" x="-114" y="0" flags="0x0"/>
    </TTGlyph>
    <TTGlyph name="emdash" xMin="16" yMin="605" xMax="1101" yMax="738">
      <contour>
        <pt x="42" y="738" on="1"/>
        <pt x="1101" y="738" on="1"/>
        <pt x="1075" y="605" on="1"/>
        <pt x="16" y="605" on="1"/>
      </contour>
    </TTGlyph>
    <TTGlyph name="endash" xMin="16" yMin="605" xMax="1101" yMax="738">
      <contour>
        <pt x="42" y="738" on="1"/>
        <pt x="1101" y="738" on="1"/>
        <pt x="1075" y="605" on="1"/>
        <pt x="16" y="605" on="1"/>
      </contour>
    </TTGlyph>
    <TTGlyph name="eogonek" xMin="109" yMin="-303" xMax="902" yMax="1069">
      <contour>
        <pt x="290" y="-19" on="0"/>
        <pt x="109" y="169" on="0"/>
        <pt x="109" y="349" on="1"/>
        <pt x="109" y="434" on="0"/>
        <pt x="130" y="536" on="1"/>
        <pt x="163" y="702" on="0"/>
        <pt x="303" y="942" on="0"/>
        <pt x="503" y="1069" on="0"/>
        <pt x="625" y="1069" on="1"/>
        <pt x="758" y="1069" on="0"/>
        <pt x="902" y="912" on="0"/>
        <pt x="902" y="773" on="1"/>
        <pt x="902" y="663" on="0"/>
        <pt x="856" y="526" on="1"/>
        <pt x="246" y="530" on="1"/>
        <pt x="244" y="523" on="1"/>
        <pt x="225" y="428" on="0"/>
        <pt x="225" y="351" on="1"/>
        <pt x="225" y="216" on="0"/>
        <pt x="349" y="83" on="0"/>
        <pt x="474" y="83" on="1"/>
        <pt x="580" y="83" on="0"/>
        <pt x="732" y="142" on="1"/>
        <pt x="750" y="45" on="1"/>
        <pt x="671" y="-1" on="0"/>
        <pt x="578" y="-91" on="0"/>
        <pt x="569" y="-140" on="1"/>
        <pt x="567" y="-152" on="0"/>
        <pt x="567" y="-158" on="1"/>
        <pt x="567" y="-200" on="0"/>
        <pt x="628" y="-200" on="1"/>
        <pt x="661" y="-200" on="0"/>
        <pt x="706" y="-187" on="1"/>
        <pt x="711" y="-283" on="1"/>
        <pt x="647" y="-303" on="0"/>
        <pt x="595" y="-303" on="1"/>
        <pt x="524" y="-303" on="0"/>
        <pt x="445" y="-245" on="0"/>
        <pt x="445" y="-190" on="1"/>
        <pt x="445" y="-175" on="0"/>
        <pt x="448" y="-157" on="1"/>
        <pt x="466" y="-70" on="0"/>
        <pt x="574" y="-5" on="1"/>
        <pt x="524" y="-19" on="0"/>
        <pt x="463" y="-19" on="1"/>
      </contour>
      <contour>
        <pt x="771" y="634" on="1"/>
        <pt x="789" y="714" on="0"/>
        <pt x="789" y="775" on="1"/>
        <pt x="789" y="871" on="0"/>
        <pt x="701" y="970" on="0"/>
        <pt x="614" y="970" on="1"/>
        <pt x="495" y="970" on="0"/>
        <pt x="319" y="793" on="0"/>
        <pt x="270" y="626" on="1"/>
      </contour>
    </TTGlyph>
    <TTGlyph name="equal" xMin="25" yMin="461" xMax="1096" yMax="900">
      <contour>
        <pt x="113" y="900" on="1"/>
        <pt x="1096" y="900" on="1"/>
        <pt x="1068" y="764" on="1"/>
        <pt x="85" y="764" on="1"/>
      </contour>
      <contour>
        <pt x="52" y="598" on="1"/>
        <pt x="1035" y="598" on="1"/>
        <pt x="1008" y="461" on="1"/>
        <pt x="25" y="461" on="1"/>
      </contour>
    </TTGlyph>
    <TTGlyph name="exclam" xMin="278" yMin="-23" xMax="825" yMax="1362">
      <contour>
        <pt x="568" y="1362" on="1"/>
        <pt x="825" y="1362" on="1"/>
        <pt x="582" y="529" on="1"/>
        <pt x="479" y="529" on="1"/>
      </contour>
      <contour>
        <pt x="360" y="-23" on="0"/>
        <pt x="278" y="58" on="0"/>
        <pt x="278" y="121" on="1"/>
        <pt x="278" y="141" on="0"/>
        <pt x="282" y="158" on="1"/>
        <pt x="291" y="203" on="0"/>
        <pt x="351" y="280" on="0"/>
        <pt x="436" y="325" on="0"/>
        <pt x="481" y="325" on="1"/>
        <pt x="548" y="325" on="0"/>
        <pt x="630" y="243" on="0"/>
        <pt x="630" y="179" on="1"/>
        <pt x="630" y="157" on="0"/>
        <pt x="626" y="140" on="1"/>
        <pt x="617" y="96" on="0"/>
        <pt x="558" y="21" on="0"/>
        <pt x="473" y="-23" on="0"/>
        <pt x="427" y="-23" on="1"/>
      </contour>
    </TTGlyph>
    <TTGlyph name="exclamdown" xMin="235" yMin="-303" xMax="782" yMax="1082">
      <contour>
        <pt x="492" y="-303" on="1"/>
        <pt x="235" y="-303" on="1"/>
        <pt x="478" y="530" on="1"/>
        <pt x="581" y="530" on="1"/>
      </contour>
      <contour>
        <pt x="700" y="1082" on="0"/>
        <pt x="782" y="1001" on="0"/>
        <pt x="782" y="938" on="1"/>
        <pt x="782" y="918" on="0"/>
        <pt x="778" y="901" on="1"/>
        <pt x="769" y="856" on="0"/>
        <pt x="709" y="779" on="0"/>
        <pt x="624" y="734" on="0"/>
        <pt x="579" y="734" on="1"/>
        <pt x="512" y="734" on="0"/>
        <pt x="430" y="816" on="0"/>
        <pt x="430" y="880" on="1"/>
        <pt x="430" y="902" on="0"/>
        <pt x="434" y="919" on="1"/>
        <pt x="443" y="963" on="0"/>
        <pt x="502" y="1038" on="0"/>
        <pt x="587" y="1082" on="0"/>
        <pt x="633" y="1082" on="1"/>
      </contour>
    </TTGlyph>
    <TTGlyph name="f" xMin="69" yMin="-329" xMax="1128" yMax="1536">
      <contour>
        <pt x="195" y="-150" on="0"/>
        <pt x="341" y="15" on="0"/>
        <pt x="365" y="138" on="1"/>
        <pt x="522" y="923" on="1"/>
        <pt x="219" y="923" on="1"/>
        <pt x="246" y="1059" on="1"/>
        <pt x="549" y="1059" on="1"/>
        <pt x="583" y="1226" on="1"/>
        <pt x="612" y="1374" on="0"/>
        <pt x="796" y="1536" on="0"/>
        <pt x="932" y="1536" on="1"/>
        <pt x="1026" y="1536" on="0"/>
        <pt x="1128" y="1500" on="1"/>
        <pt x="1077" y="1374" on="1"/>
        <pt x="1045" y="1385" on="0"/>
        <pt x="968" y="1399" on="0"/>
        <pt x="935" y="1399" on="1"/>
        <pt x="851" y="1399" on="0"/>
        <pt x="750" y="1306" on="0"/>
        <pt x="734" y="1225" on="1"/>
        <pt x="700" y="1059" on="1"/>
        <pt x="1033" y="1059" on="1"/>
        <pt x="1006" y="923" on="1"/>
        <pt x="673" y="923" on="1"/>
        <pt x="516" y="136" on="1"/>
        <pt x="481" y="-38" on="0"/>
        <pt x="279" y="-255" on="0"/>
        <pt x="114" y="-329" on="1"/>
        <pt x="69" y="-214" on="1"/>
      </contour>
    </TTGlyph>
    <TTGlyph name="five" xMin="-19" yMin="-322" xMax="977" yMax="1210">
      <contour>
        <pt x="201" y="-166" on="0"/>
        <pt x="488" y="-60" on="0"/>
        <pt x="652" y="107" on="0"/>
        <pt x="677" y="232" on="1"/>
        <pt x="682" y="255" on="0"/>
        <pt x="682" y="286" on="1"/>
        <pt x="682" y="381" on="0"/>
        <pt x="547" y="503" on="0"/>
        <pt x="408" y="503" on="1"/>
        <pt x="340" y="503" on="0"/>
        <pt x="228" y="493" on="0"/>
        <pt x="158" y="483" on="1"/>
        <pt x="300" y="1210" on="1"/>
        <pt x="977" y="1210" on="1"/>
        <pt x="949" y="1074" on="1"/>
        <pt x="423" y="1074" on="1"/>
        <pt x="331" y="632" on="1"/>
        <pt x="404" y="637" on="0"/>
        <pt x="451" y="637" on="1"/>
        <pt x="585" y="637" on="0"/>
        <pt x="763" y="554" on="0"/>
        <pt x="847" y="410" on="0"/>
        <pt x="847" y="316" on="1"/>
        <pt x="847" y="275" on="0"/>
        <pt x="837" y="222" on="1"/>
        <pt x="748" y="-227" on="0"/>
        <pt x="-16" y="-322" on="1"/>
        <pt x="-19" y="-198" on="1"/>
      </contour>
    </TTGlyph>
    <TTGlyph name="florin" xMin="206" yMin="0" xMax="1114" yMax="1536">
      <contour>
        <pt x="513" y="789" on="1"/>
        <pt x="206" y="789" on="1"/>
        <pt x="227" y="891" on="1"/>
        <pt x="534" y="891" on="1"/>
        <pt x="601" y="1227" on="1"/>
        <pt x="631" y="1375" on="0"/>
        <pt x="805" y="1536" on="0"/>
        <pt x="932" y="1536" on="1"/>
        <pt x="1019" y="1536" on="0"/>
        <pt x="1114" y="1500" on="1"/>
        <pt x="1077" y="1407" on="1"/>
        <pt x="1047" y="1419" on="0"/>
        <pt x="972" y="1433" on="0"/>
        <pt x="938" y="1433" on="1"/>
        <pt x="849" y="1433" on="0"/>
        <pt x="734" y="1322" on="0"/>
        <pt x="714" y="1224" on="1"/>
        <pt x="648" y="891" on="1"/>
        <pt x="985" y="891" on="1"/>
        <pt x="964" y="789" on="1"/>
        <pt x="627" y="789" on="1"/>
        <pt x="470" y="0" on="1"/>
        <pt x="356" y="0" on="1"/>
      </contour>
    </TTGlyph>
    <TTGlyph name="four" xMin="8" yMin="-151" xMax="904" yMax="1210">
      <contour>
        <pt x="576" y="151" on="1"/>
        <pt x="8" y="151" on="1"/>
        <pt x="26" y="248" on="1"/>
        <pt x="647" y="1210" on="1"/>
        <pt x="806" y="1210" on="1"/>
        <pt x="200" y="284" on="1"/>
        <pt x="602" y="284" on="1"/>
        <pt x="687" y="709" on="1"/>
        <pt x="838" y="709" on="1"/>
        <pt x="753" y="284" on="1"/>
        <pt x="904" y="284" on="1"/>
        <pt x="878" y="151" on="1"/>
        <pt x="727" y="151" on="1"/>
        <pt x="666" y="-151" on="1"/>
        <pt x="515" y="-151" on="1"/>
      </contour>
    </TTGlyph>
    <TTGlyph name="g" xMin="-39" yMin="-318" xMax="1004" yMax="1080">
      <contour>
        <pt x="223" y="136" on="0"/>
        <pt x="90" y="276" on="0"/>
        <pt x="90" y="407" on="1"/>
        <pt x="90" y="468" on="0"/>
        <pt x="105" y="540" on="1"/>
        <pt x="139" y="711" on="0"/>
        <pt x="312" y="955" on="0"/>
        <pt x="548" y="1080" on="0"/>
        <pt x="676" y="1080" on="1"/>
        <pt x="765" y="1080" on="0"/>
        <pt x="920" y="1050" on="0"/>
        <pt x="1004" y="1024" on="1"/>
        <pt x="822" y="98" on="1"/>
        <pt x="795" y="-36" on="0"/>
        <pt x="659" y="-223" on="0"/>
        <pt x="462" y="-318" on="0"/>
        <pt x="346" y="-318" on="1"/>
        <pt x="141" y="-318" on="0"/>
        <pt x="-39" y="-187" on="1"/>
        <pt x="38" y="-80" on="1"/>
        <pt x="112" y="-131" on="0"/>
        <pt x="255" y="-182" on="0"/>
        <pt x="336" y="-182" on="1"/>
        <pt x="475" y="-182" on="0"/>
        <pt x="642" y="-41" on="0"/>
        <pt x="669" y="93" on="1"/>
        <pt x="722" y="352" on="1"/>
        <pt x="682" y="306" on="1"/>
        <pt x="517" y="136" on="0"/>
        <pt x="350" y="136" on="1"/>
      </contour>
      <contour>
        <pt x="450" y="272" on="0"/>
        <pt x="579" y="348" on="0"/>
        <pt x="660" y="430" on="1"/>
        <pt x="753" y="518" on="1"/>
        <pt x="841" y="935" on="1"/>
        <pt x="812" y="942" on="0"/>
        <pt x="731" y="951" on="0"/>
        <pt x="694" y="951" on="1"/>
        <pt x="530" y="951" on="0"/>
        <pt x="303" y="737" on="0"/>
        <pt x="262" y="534" on="1"/>
        <pt x="249" y="464" on="0"/>
        <pt x="249" y="422" on="1"/>
        <pt x="249" y="343" on="0"/>
        <pt x="318" y="272" on="0"/>
        <pt x="385" y="272" on="1"/>
      </contour>
    </TTGlyph>
    <TTGlyph name="gbreve" xMin="-144" yMin="-318" xMax="949" yMax="1596">
      <component glyphName="g" x="-105" y="0" flags="0x400"/>
      <component glyphName="uni0306" x="-85" y="5" flags="0x4"/>
    </TTGlyph>
    <TTGlyph name="gcaron" xMin="-144" yMin="-318" xMax="985" yMax="1648">
      <component glyphName="g" x="-105" y="0" flags="0x400"/>
      <component glyphName="uni030C" x="-85" y="5" flags="0x4"/>
    </TTGlyph>
    <TTGlyph name="gcircumflex" xMin="-144" yMin="-318" xMax="903" yMax="1648">
      <component glyphName="g" x="-105" y="0" flags="0x400"/>
      <component glyphName="uni0302" x="-85" y="5" flags="0x4"/>
    </TTGlyph>
    <TTGlyph name="gdotaccent" xMin="-144" yMin="-318" xMax="899" yMax="1544">
      <component glyphName="g" x="-105" y="0" flags="0x400"/>
      <component glyphName="uni0307" x="-85" y="5" flags="0x4"/>
    </TTGlyph>
    <TTGlyph name="germandbls" xMin="-222" yMin="-329" xMax="979" yMax="1532">
      <contour>
        <pt x="-97" y="-151" on="0"/>
        <pt x="49" y="14" on="0"/>
        <pt x="73" y="138" on="1"/>
        <pt x="278" y="1161" on="1"/>
        <pt x="302" y="1280" on="0"/>
        <pt x="419" y="1447" on="0"/>
        <pt x="588" y="1532" on="0"/>
        <pt x="690" y="1532" on="1"/>
        <pt x="826" y="1532" on="0"/>
        <pt x="979" y="1398" on="0"/>
        <pt x="979" y="1276" on="1"/>
        <pt x="979" y="1235" on="0"/>
        <pt x="970" y="1188" on="1"/>
        <pt x="957" y="1123" on="0"/>
        <pt x="893" y="1011" on="0"/>
        <pt x="819" y="927" on="0"/>
        <pt x="763" y="872" on="1"/>
        <pt x="706" y="817" on="0"/>
        <pt x="649" y="747" on="0"/>
        <pt x="642" y="711" on="1"/>
        <pt x="640" y="699" on="0"/>
        <pt x="640" y="695" on="1"/>
        <pt x="640" y="661" on="0"/>
        <pt x="694" y="613" on="0"/>
        <pt x="752" y="579" on="1"/>
        <pt x="809" y="546" on="0"/>
        <pt x="883" y="490" on="0"/>
        <pt x="936" y="400" on="0"/>
        <pt x="936" y="337" on="1"/>
        <pt x="936" y="305" on="0"/>
        <pt x="929" y="271" on="1"/>
        <pt x="914" y="198" on="0"/>
        <pt x="808" y="64" on="0"/>
        <pt x="642" y="-19" on="0"/>
        <pt x="542" y="-19" on="1"/>
        <pt x="483" y="-19" on="0"/>
        <pt x="390" y="9" on="0"/>
        <pt x="335" y="36" on="1"/>
        <pt x="390" y="138" on="1"/>
        <pt x="426" y="123" on="0"/>
        <pt x="490" y="110" on="0"/>
        <pt x="527" y="110" on="1"/>
        <pt x="595" y="110" on="0"/>
        <pt x="702" y="162" on="0"/>
        <pt x="767" y="246" on="0"/>
        <pt x="777" y="295" on="1"/>
        <pt x="780" y="312" on="0"/>
        <pt x="780" y="326" on="1"/>
        <pt x="780" y="361" on="0"/>
        <pt x="745" y="412" on="0"/>
        <pt x="694" y="446" on="0"/>
        <pt x="650" y="469" on="1"/>
        <pt x="597" y="497" on="0"/>
        <pt x="533" y="542" on="0"/>
        <pt x="488" y="616" on="0"/>
        <pt x="488" y="670" on="1"/>
        <pt x="488" y="698" on="0"/>
        <pt x="494" y="729" on="1"/>
        <pt x="503" y="772" on="0"/>
        <pt x="544" y="840" on="0"/>
        <pt x="595" y="891" on="0"/>
        <pt x="637" y="926" on="1"/>
        <pt x="686" y="968" on="0"/>
        <pt x="749" y="1032" on="0"/>
        <pt x="802" y="1126" on="0"/>
        <pt x="815" y="1189" on="1"/>
        <pt x="823" y="1229" on="0"/>
        <pt x="823" y="1259" on="1"/>
        <pt x="823" y="1399" on="0"/>
        <pt x="674" y="1399" on="1"/>
        <pt x="578" y="1399" on="0"/>
        <pt x="452" y="1273" on="0"/>
        <pt x="429" y="1155" on="1"/>
        <pt x="225" y="136" on="1"/>
        <pt x="190" y="-38" on="0"/>
        <pt x="-12" y="-255" on="0"/>
        <pt x="-177" y="-329" on="1"/>
        <pt x="-222" y="-214" on="1"/>
      </contour>
    </TTGlyph>
    <TTGlyph name="grave" xMin="514" yMin="756" xMax="803" yMax="1362">
      <contour>
        <pt x="514" y="1362" on="1"/>
        <pt x="786" y="1362" on="1"/>
        <pt x="803" y="756" on="1"/>
        <pt x="679" y="756" on="1"/>
      </contour>
    </TTGlyph>
    <TTGlyph name="gravecomb" xMin="442" yMin="1248" xMax="765" yMax="1643">
      <contour>
        <pt x="626" y="1248" on="1"/>
        <pt x="442" y="1643" on="1"/>
        <pt x="699" y="1643" on="1"/>
        <pt x="765" y="1248" on="1"/>
      </contour>
    </TTGlyph>
    <TTGlyph name="gravecomb.case" xMin="487" yMin="1475" xMax="810" yMax="1870">
      <contour>
        <pt x="671" y="1475" on="1"/>
        <pt x="487" y="1870" on="1"/>
        <pt x="744" y="1870" on="1"/>
        <pt x="810" y="1475" on="1"/>
      </contour>
    </TTGlyph>
    <TTGlyph name="greater" xMin="33" yMin="-68" xMax="977" yMax="1432">
      <contour>
        <pt x="801" y="671" on="1"/>
        <pt x="293" y="1231" on="1"/>
        <pt x="331" y="1432" on="1"/>
        <pt x="977" y="717" on="1"/>
        <pt x="965" y="647" on="1"/>
        <pt x="33" y="-68" on="1"/>
        <pt x="66" y="110" on="1"/>
      </contour>
    </TTGlyph>
    <TTGlyph name="h" xMin="61" yMin="0" xMax="953" yMax="1513">
      <contour>
        <pt x="363" y="1513" on="1"/>
        <pt x="476" y="1513" on="1"/>
        <pt x="337" y="826" on="1"/>
        <pt x="408" y="893" on="1"/>
        <pt x="473" y="952" on="0"/>
        <pt x="572" y="1025" on="0"/>
        <pt x="681" y="1069" on="0"/>
        <pt x="742" y="1069" on="1"/>
        <pt x="846" y="1069" on="0"/>
        <pt x="953" y="967" on="0"/>
        <pt x="953" y="869" on="1"/>
        <pt x="953" y="828" on="0"/>
        <pt x="944" y="780" on="1"/>
        <pt x="788" y="0" on="1"/>
        <pt x="675" y="0" on="1"/>
        <pt x="831" y="784" on="1"/>
        <pt x="839" y="826" on="0"/>
        <pt x="839" y="853" on="1"/>
        <pt x="839" y="909" on="0"/>
        <pt x="782" y="964" on="0"/>
        <pt x="721" y="964" on="1"/>
        <pt x="652" y="964" on="0"/>
        <pt x="521" y="886" on="0"/>
        <pt x="427" y="802" on="1"/>
        <pt x="317" y="709" on="1"/>
        <pt x="174" y="0" on="1"/>
        <pt x="61" y="0" on="1"/>
      </contour>
    </TTGlyph>
    <TTGlyph name="h.short" xMin="61" yMin="0" xMax="953" yMax="1362">
      <contour>
        <pt x="333" y="1362" on="1"/>
        <pt x="446" y="1362" on="1"/>
        <pt x="337" y="826" on="1"/>
        <pt x="408" y="893" on="1"/>
        <pt x="473" y="952" on="0"/>
        <pt x="572" y="1025" on="0"/>
        <pt x="681" y="1069" on="0"/>
        <pt x="742" y="1069" on="1"/>
        <pt x="846" y="1069" on="0"/>
        <pt x="953" y="967" on="0"/>
        <pt x="953" y="869" on="1"/>
        <pt x="953" y="828" on="0"/>
        <pt x="944" y="780" on="1"/>
        <pt x="788" y="0" on="1"/>
        <pt x="675" y="0" on="1"/>
        <pt x="831" y="784" on="1"/>
        <pt x="839" y="826" on="0"/>
        <pt x="839" y="853" on="1"/>
        <pt x="839" y="909" on="0"/>
        <pt x="782" y="964" on="0"/>
        <pt x="721" y="964" on="1"/>
        <pt x="652" y="964" on="0"/>
        <pt x="521" y="886" on="0"/>
        <pt x="427" y="802" on="1"/>
        <pt x="317" y="709" on="1"/>
        <pt x="174" y="0" on="1"/>
        <pt x="61" y="0" on="1"/>
      </contour>
    </TTGlyph>
    <TTGlyph name="hbar" xMin="61" yMin="0" xMax="953" yMax="1513">
      <contour>
        <pt x="306" y="1225" on="1"/>
        <pt x="140" y="1225" on="1"/>
        <pt x="167" y="1362" on="1"/>
        <pt x="333" y="1362" on="1"/>
        <pt x="363" y="1513" on="1"/>
        <pt x="476" y="1513" on="1"/>
        <pt x="446" y="1362" on="1"/>
        <pt x="731" y="1362" on="1"/>
        <pt x="704" y="1225" on="1"/>
        <pt x="419" y="1225" on="1"/>
        <pt x="337" y="826" on="1"/>
        <pt x="408" y="893" on="1"/>
        <pt x="473" y="952" on="0"/>
        <pt x="572" y="1025" on="0"/>
        <pt x="681" y="1069" on="0"/>
        <pt x="742" y="1069" on="1"/>
        <pt x="846" y="1069" on="0"/>
        <pt x="953" y="967" on="0"/>
        <pt x="953" y="869" on="1"/>
        <pt x="953" y="828" on="0"/>
        <pt x="944" y="780" on="1"/>
        <pt x="788" y="0" on="1"/>
        <pt x="675" y="0" on="1"/>
        <pt x="831" y="784" on="1"/>
        <pt x="839" y="826" on="0"/>
        <pt x="839" y="853" on="1"/>
        <pt x="839" y="909" on="0"/>
        <pt x="782" y="964" on="0"/>
        <pt x="721" y="964" on="1"/>
        <pt x="652" y="964" on="0"/>
        <pt x="521" y="886" on="0"/>
        <pt x="427" y="802" on="1"/>
        <pt x="317" y="709" on="1"/>
        <pt x="174" y="0" on="1"/>
        <pt x="61" y="0" on="1"/>
      </contour>
    </TTGlyph>
    <TTGlyph name="hcircumflex" xMin="-44" yMin="0" xMax="928" yMax="1870">
      <component glyphName="h.short" x="-105" y="0" flags="0x400"/>
      <component glyphName="uni0302.case" x="-105" y="0" flags="0x0"/>
    </TTGlyph>
    <TTGlyph name="hyphen" xMin="167" yMin="605" xMax="950" yMax="738">
      <contour>
        <pt x="193" y="738" on="1"/>
        <pt x="950" y="738" on="1"/>
        <pt x="924" y="605" on="1"/>
        <pt x="167" y="605" on="1"/>
      </contour>
    </TTGlyph>
    <TTGlyph name="i" xMin="-51" yMin="0" xMax="745" yMax="1544">
      <component glyphName="dotlessi" x="-105" y="0" flags="0x400"/>
      <component glyphName="uni0307" x="-105" y="5" flags="0x4"/>
    </TTGlyph>
    <TTGlyph name="iacute" xMin="-51" yMin="0" xMax="962" yMax="1648">
      <component glyphName="dotlessi" x="-105" y="0" flags="0x400"/>
      <component glyphName="acutecomb" x="-105" y="5" flags="0x4"/>
    </TTGlyph>
    <TTGlyph name="ibreve" xMin="-51" yMin="0" xMax="929" yMax="1596">
      <component glyphName="dotlessi" x="-105" y="0" flags="0x400"/>
      <component glyphName="uni0306" x="-105" y="5" flags="0x4"/>
    </TTGlyph>
    <TTGlyph name="icircumflex" xMin="-51" yMin="0" xMax="883" yMax="1648">
      <component glyphName="dotlessi" x="-105" y="0" flags="0x400"/>
      <component glyphName="uni0302" x="-105" y="5" flags="0x4"/>
    </TTGlyph>
    <TTGlyph name="idieresis" xMin="-51" yMin="0" xMax="913" yMax="1529">
      <component glyphName="dotlessi" x="-105" y="0" flags="0x400"/>
      <component glyphName="uni0308" x="-105" y="5" flags="0x4"/>
    </TTGlyph>
    <TTGlyph name="igrave" xMin="-51" yMin="0" xMax="727" yMax="1648">
      <component glyphName="dotlessi" x="-105" y="0" flags="0x400"/>
      <component glyphName="gravecomb" x="-105" y="5" flags="0x4"/>
    </TTGlyph>
    <TTGlyph name="imacron" xMin="-51" yMin="0" xMax="907" yMax="1476">
      <component glyphName="dotlessi" x="-105" y="0" flags="0x400"/>
      <component glyphName="uni0304" x="-105" y="5" flags="0x4"/>
    </TTGlyph>
    <TTGlyph name="iogonek" xMin="54" yMin="-303" xMax="850" yMax="1544">
      <contour>
        <pt x="813" y="-1" on="1"/>
        <pt x="734" y="-22" on="0"/>
        <pt x="636" y="-99" on="0"/>
        <pt x="626" y="-146" on="1"/>
        <pt x="624" y="-156" on="0"/>
        <pt x="624" y="-160" on="1"/>
        <pt x="624" y="-200" on="0"/>
        <pt x="686" y="-200" on="1"/>
        <pt x="719" y="-200" on="0"/>
        <pt x="764" y="-187" on="1"/>
        <pt x="769" y="-283" on="1"/>
        <pt x="705" y="-303" on="0"/>
        <pt x="653" y="-303" on="1"/>
        <pt x="582" y="-303" on="0"/>
        <pt x="503" y="-245" on="0"/>
        <pt x="503" y="-192" on="1"/>
        <pt x="503" y="-176" on="0"/>
        <pt x="506" y="-159" on="1"/>
        <pt x="526" y="-60" on="0"/>
        <pt x="672" y="2" on="1"/>
        <pt x="54" y="0" on="1"/>
        <pt x="76" y="113" on="1"/>
        <pt x="382" y="132" on="1"/>
        <pt x="543" y="938" on="1"/>
        <pt x="260" y="938" on="1"/>
        <pt x="283" y="1051" on="1"/>
        <pt x="654" y="1070" on="1"/>
        <pt x="722" y="1070" on="1"/>
        <pt x="534" y="132" on="1"/>
        <pt x="832" y="113" on="1"/>
      </contour>
      <contour>
        <pt x="624" y="1255" on="0"/>
        <pt x="557" y="1320" on="0"/>
        <pt x="557" y="1374" on="1"/>
        <pt x="557" y="1384" on="0"/>
        <pt x="561" y="1408" on="1"/>
        <pt x="572" y="1465" on="0"/>
        <pt x="666" y="1544" on="0"/>
        <pt x="726" y="1544" on="1"/>
        <pt x="782" y="1544" on="0"/>
        <pt x="850" y="1477" on="0"/>
        <pt x="850" y="1423" on="1"/>
        <pt x="850" y="1407" on="0"/>
        <pt x="847" y="1390" on="1"/>
        <pt x="836" y="1333" on="0"/>
        <pt x="740" y="1255" on="0"/>
        <pt x="680" y="1255" on="1"/>
      </contour>
    </TTGlyph>
    <TTGlyph name="itilde" xMin="-51" yMin="0" xMax="955" yMax="1567">
      <component glyphName="dotlessi" x="-105" y="0" flags="0x400"/>
      <component glyphName="tildecomb" x="-105" y="5" flags="0x4"/>
    </TTGlyph>
    <TTGlyph name="j" xMin="-51" yMin="-280" xMax="801" yMax="1544">
      <component glyphName="uni0237" x="-105" y="0" flags="0x400"/>
      <component glyphName="uni0307" x="-49" y="5" flags="0x4"/>
    </TTGlyph>
    <TTGlyph name="jcircumflex" xMin="-51" yMin="-280" xMax="939" yMax="1648">
      <component glyphName="uni0237" x="-105" y="0" flags="0x400"/>
      <component glyphName="uni0302" x="-49" y="5" flags="0x4"/>
    </TTGlyph>
    <TTGlyph name="k" xMin="46" yMin="0" xMax="1031" yMax="1513">
      <contour>
        <pt x="46" y="0" on="1"/>
        <pt x="348" y="1513" on="1"/>
        <pt x="500" y="1513" on="1"/>
        <pt x="318" y="607" on="1"/>
        <pt x="848" y="1059" on="1"/>
        <pt x="1031" y="1059" on="1"/>
        <pt x="439" y="563" on="1"/>
        <pt x="839" y="0" on="1"/>
        <pt x="641" y="0" on="1"/>
        <pt x="298" y="496" on="1"/>
        <pt x="198" y="0" on="1"/>
      </contour>
    </TTGlyph>
    <TTGlyph name="l" xMin="46" yMin="0" xMax="825" yMax="1524">
      <contour>
        <pt x="68" y="113" on="1"/>
        <pt x="375" y="132" on="1"/>
        <pt x="627" y="1392" on="1"/>
        <pt x="343" y="1392" on="1"/>
        <pt x="366" y="1505" on="1"/>
        <pt x="736" y="1524" on="1"/>
        <pt x="804" y="1524" on="1"/>
        <pt x="526" y="132" on="1"/>
        <pt x="825" y="113" on="1"/>
        <pt x="803" y="0" on="1"/>
        <pt x="46" y="0" on="1"/>
      </contour>
    </TTGlyph>
    <TTGlyph name="lacute" xMin="-59" yMin="0" xMax="1051" yMax="2021">
      <component glyphName="l" x="-105" y="0" flags="0x400"/>
      <component glyphName="acutecomb.case" x="-61" y="151" flags="0x4"/>
    </TTGlyph>
    <TTGlyph name="less" xMin="144" yMin="-70" xMax="1087" yMax="1430">
      <contour>
        <pt x="319" y="692" on="1"/>
        <pt x="827" y="131" on="1"/>
        <pt x="790" y="-70" on="1"/>
        <pt x="144" y="645" on="1"/>
        <pt x="155" y="715" on="1"/>
        <pt x="1087" y="1430" on="1"/>
        <pt x="1054" y="1252" on="1"/>
      </contour>
    </TTGlyph>
    <TTGlyph name="m" xMin="-48" yMin="0" xMax="1071" yMax="1074">
      <contour>
        <pt x="500" y="0" on="1"/>
        <pt x="349" y="0" on="1"/>
        <pt x="514" y="827" on="1"/>
        <pt x="521" y="861" on="0"/>
        <pt x="521" y="885" on="1"/>
        <pt x="521" y="914" on="0"/>
        <pt x="499" y="938" on="0"/>
        <pt x="476" y="938" on="1"/>
        <pt x="439" y="938" on="0"/>
        <pt x="366" y="863" on="0"/>
        <pt x="308" y="775" on="1"/>
        <pt x="241" y="683" on="1"/>
        <pt x="103" y="0" on="1"/>
        <pt x="-48" y="0" on="1"/>
        <pt x="163" y="1059" on="1"/>
        <pt x="314" y="1059" on="1"/>
        <pt x="278" y="882" on="1"/>
        <pt x="289" y="902" on="1"/>
        <pt x="350" y="990" on="0"/>
        <pt x="465" y="1074" on="0"/>
        <pt x="529" y="1074" on="1"/>
        <pt x="673" y="1074" on="0"/>
        <pt x="673" y="919" on="1"/>
        <pt x="673" y="893" on="0"/>
        <pt x="671" y="879" on="1"/>
        <pt x="688" y="910" on="1"/>
        <pt x="746" y="994" on="0"/>
        <pt x="861" y="1074" on="0"/>
        <pt x="926" y="1074" on="1"/>
        <pt x="1071" y="1074" on="0"/>
        <pt x="1071" y="915" on="1"/>
        <pt x="1071" y="875" on="0"/>
        <pt x="1060" y="815" on="1"/>
        <pt x="897" y="0" on="1"/>
        <pt x="746" y="0" on="1"/>
        <pt x="911" y="827" on="1"/>
        <pt x="918" y="861" on="0"/>
        <pt x="918" y="885" on="1"/>
        <pt x="918" y="914" on="0"/>
        <pt x="896" y="938" on="0"/>
        <pt x="873" y="938" on="1"/>
        <pt x="836" y="938" on="0"/>
        <pt x="763" y="866" on="0"/>
        <pt x="706" y="783" on="1"/>
        <pt x="639" y="690" on="1"/>
      </contour>
    </TTGlyph>
    <TTGlyph name="macron" xMin="290" yMin="1320" xMax="907" yMax="1471">
      <component glyphName="uni0304" x="-105" y="0" flags="0x400"/>
    </TTGlyph>
    <TTGlyph name="minus" xMin="55" yMin="613" xMax="1065" yMax="749">
      <contour>
        <pt x="82" y="749" on="1"/>
        <pt x="1065" y="749" on="1"/>
        <pt x="1038" y="613" on="1"/>
        <pt x="55" y="613" on="1"/>
      </contour>
    </TTGlyph>
    <TTGlyph name="n" xMin="61" yMin="0" xMax="953" yMax="1069">
      <contour>
        <pt x="271" y="1054" on="1"/>
        <pt x="384" y="1054" on="1"/>
        <pt x="337" y="826" on="1"/>
        <pt x="408" y="893" on="1"/>
        <pt x="505" y="982" on="0"/>
        <pt x="654" y="1069" on="0"/>
        <pt x="742" y="1069" on="1"/>
        <pt x="846" y="1069" on="0"/>
        <pt x="953" y="967" on="0"/>
        <pt x="953" y="869" on="1"/>
        <pt x="953" y="828" on="0"/>
        <pt x="944" y="780" on="1"/>
        <pt x="788" y="0" on="1"/>
        <pt x="675" y="0" on="1"/>
        <pt x="831" y="784" on="1"/>
        <pt x="839" y="826" on="0"/>
        <pt x="839" y="853" on="1"/>
        <pt x="839" y="909" on="0"/>
        <pt x="782" y="964" on="0"/>
        <pt x="721" y="964" on="1"/>
        <pt x="652" y="964" on="0"/>
        <pt x="521" y="886" on="0"/>
        <pt x="427" y="802" on="1"/>
        <pt x="317" y="709" on="1"/>
        <pt x="174" y="0" on="1"/>
        <pt x="61" y="0" on="1"/>
      </contour>
    </TTGlyph>
    <TTGlyph name="nacute" xMin="-44" yMin="0" xMax="962" yMax="1643">
      <component glyphName="n" x="-105" y="0" flags="0x400"/>
      <component glyphName="acutecomb" x="-105" y="0" flags="0x0"/>
    </TTGlyph>
    <TTGlyph name="ncaron" xMin="-44" yMin="0" xMax="965" yMax="1643">
      <component glyphName="n" x="-105" y="0" flags="0x400"/>
      <component glyphName="uni030C" x="-105" y="0" flags="0x0"/>
    </TTGlyph>
    <TTGlyph name="nine" xMin="87" yMin="-315" xMax="965" yMax="1227">
      <contour>
        <pt x="262" y="-144" on="0"/>
        <pt x="506" y="0" on="0"/>
        <pt x="682" y="244" on="0"/>
        <pt x="739" y="436" on="1"/>
        <pt x="665" y="374" on="0"/>
        <pt x="513" y="306" on="0"/>
        <pt x="429" y="306" on="1"/>
        <pt x="349" y="306" on="0"/>
        <pt x="213" y="376" on="0"/>
        <pt x="131" y="522" on="0"/>
        <pt x="131" y="631" on="1"/>
        <pt x="131" y="692" on="0"/>
        <pt x="146" y="767" on="1"/>
        <pt x="172" y="898" on="0"/>
        <pt x="315" y="1108" on="0"/>
        <pt x="520" y="1227" on="0"/>
        <pt x="637" y="1227" on="1"/>
        <pt x="797" y="1227" on="0"/>
        <pt x="965" y="1023" on="0"/>
        <pt x="965" y="824" on="1"/>
        <pt x="965" y="704" on="0"/>
        <pt x="936" y="562" on="1"/>
        <pt x="885" y="305" on="0"/>
        <pt x="672" y="-52" on="0"/>
        <pt x="336" y="-269" on="0"/>
        <pt x="97" y="-315" on="1"/>
        <pt x="87" y="-190" on="1"/>
      </contour>
      <contour>
        <pt x="298" y="692" on="0"/>
        <pt x="298" y="641" on="1"/>
        <pt x="298" y="543" on="0"/>
        <pt x="390" y="443" on="0"/>
        <pt x="472" y="443" on="1"/>
        <pt x="607" y="443" on="0"/>
        <pt x="772" y="591" on="1"/>
        <pt x="778" y="607" on="1"/>
        <pt x="804" y="740" on="0"/>
        <pt x="804" y="833" on="1"/>
        <pt x="804" y="961" on="0"/>
        <pt x="714" y="1091" on="0"/>
        <pt x="626" y="1091" on="1"/>
        <pt x="550" y="1091" on="0"/>
        <pt x="420" y="1004" on="0"/>
        <pt x="329" y="847" on="0"/>
        <pt x="309" y="746" on="1"/>
      </contour>
    </TTGlyph>
    <TTGlyph name="ntilde" xMin="-44" yMin="0" xMax="955" yMax="1562">
      <component glyphName="n" x="-105" y="0" flags="0x400"/>
      <component glyphName="tildecomb" x="-105" y="0" flags="0x0"/>
    </TTGlyph>
    <TTGlyph name="numbersign" xMin="49" yMin="-38" xMax="1077" yMax="1399">
      <contour>
        <pt x="242" y="390" on="1"/>
        <pt x="49" y="390" on="1"/>
        <pt x="75" y="522" on="1"/>
        <pt x="268" y="522" on="1"/>
        <pt x="336" y="862" on="1"/>
        <pt x="143" y="862" on="1"/>
        <pt x="170" y="995" on="1"/>
        <pt x="363" y="995" on="1"/>
        <pt x="443" y="1399" on="1"/>
        <pt x="586" y="1399" on="1"/>
        <pt x="506" y="995" on="1"/>
        <pt x="741" y="995" on="1"/>
        <pt x="821" y="1399" on="1"/>
        <pt x="964" y="1399" on="1"/>
        <pt x="884" y="995" on="1"/>
        <pt x="1077" y="995" on="1"/>
        <pt x="1050" y="862" on="1"/>
        <pt x="857" y="862" on="1"/>
        <pt x="789" y="522" on="1"/>
        <pt x="982" y="522" on="1"/>
        <pt x="956" y="390" on="1"/>
        <pt x="763" y="390" on="1"/>
        <pt x="677" y="-38" on="1"/>
        <pt x="534" y="-38" on="1"/>
        <pt x="620" y="390" on="1"/>
        <pt x="385" y="390" on="1"/>
        <pt x="299" y="-38" on="1"/>
        <pt x="156" y="-38" on="1"/>
      </contour>
      <contour>
        <pt x="646" y="522" on="1"/>
        <pt x="714" y="862" on="1"/>
        <pt x="479" y="862" on="1"/>
        <pt x="411" y="522" on="1"/>
      </contour>
    </TTGlyph>
    <TTGlyph name="o" xMin="100" yMin="-19" xMax="960" yMax="1073">
      <contour>
        <pt x="269" y="-19" on="0"/>
        <pt x="100" y="179" on="0"/>
        <pt x="100" y="356" on="1"/>
        <pt x="100" y="441" on="0"/>
        <pt x="119" y="536" on="1"/>
        <pt x="150" y="692" on="0"/>
        <pt x="295" y="935" on="0"/>
        <pt x="504" y="1073" on="0"/>
        <pt x="630" y="1073" on="1"/>
        <pt x="797" y="1073" on="0"/>
        <pt x="960" y="875" on="0"/>
        <pt x="960" y="703" on="1"/>
        <pt x="960" y="618" on="0"/>
        <pt x="940" y="518" on="1"/>
        <pt x="909" y="363" on="0"/>
        <pt x="756" y="118" on="0"/>
        <pt x="545" y="-19" on="0"/>
        <pt x="428" y="-19" on="1"/>
      </contour>
      <contour>
        <pt x="525" y="80" on="0"/>
        <pt x="684" y="189" on="0"/>
        <pt x="800" y="395" on="0"/>
        <pt x="828" y="536" on="1"/>
        <pt x="847" y="630" on="0"/>
        <pt x="847" y="710" on="1"/>
        <pt x="847" y="838" on="0"/>
        <pt x="738" y="974" on="0"/>
        <pt x="626" y="974" on="1"/>
        <pt x="478" y="974" on="0"/>
        <pt x="275" y="736" on="0"/>
        <pt x="231" y="518" on="1"/>
        <pt x="213" y="428" on="0"/>
        <pt x="213" y="355" on="1"/>
        <pt x="213" y="222" on="0"/>
        <pt x="326" y="80" on="0"/>
        <pt x="432" y="80" on="1"/>
      </contour>
    </TTGlyph>
    <TTGlyph name="oacute" xMin="-5" yMin="-19" xMax="962" yMax="1643">
      <component glyphName="o" x="-105" y="0" flags="0x400"/>
      <component glyphName="acutecomb" x="-105" y="0" flags="0x0"/>
    </TTGlyph>
    <TTGlyph name="obreve" xMin="-5" yMin="-19" xMax="929" yMax="1591">
      <component glyphName="o" x="-105" y="0" flags="0x400"/>
      <component glyphName="uni0306" x="-105" y="0" flags="0x0"/>
    </TTGlyph>
    <TTGlyph name="ocircumflex" xMin="-5" yMin="-19" xMax="883" yMax="1643">
      <component glyphName="o" x="-105" y="0" flags="0x400"/>
      <component glyphName="uni0302" x="-105" y="0" flags="0x0"/>
    </TTGlyph>
    <TTGlyph name="odieresis" xMin="-5" yMin="-19" xMax="913" yMax="1524">
      <component glyphName="o" x="-105" y="0" flags="0x400"/>
      <component glyphName="uni0308" x="-105" y="0" flags="0x0"/>
    </TTGlyph>
    <TTGlyph name="ogonek" xMin="145" yMin="-303" xMax="455" yMax="41">
      <component glyphName="uni0328" x="-105" y="0" flags="0x400"/>
    </TTGlyph>
    <TTGlyph name="ograve" xMin="-5" yMin="-19" xMax="855" yMax="1643">
      <component glyphName="o" x="-105" y="0" flags="0x400"/>
      <component glyphName="gravecomb" x="-105" y="0" flags="0x0"/>
    </TTGlyph>
    <TTGlyph name="omacron" xMin="-5" yMin="-19" xMax="907" yMax="1471">
      <component glyphName="o" x="-105" y="0" flags="0x400"/>
      <component glyphName="uni0304" x="-105" y="0" flags="0x0"/>
    </TTGlyph>
    <TTGlyph name="one" xMin="69" yMin="0" xMax="847" yMax="1233">
      <contour>
        <pt x="825" y="0" on="1"/>
        <pt x="69" y="0" on="1"/>
        <pt x="91" y="113" on="1"/>
        <pt x="398" y="132" on="1"/>
        <pt x="586" y="1072" on="1"/>
        <pt x="273" y="985" on="1"/>
        <pt x="269" y="1114" on="1"/>
        <pt x="678" y="1233" on="1"/>
        <pt x="769" y="1233" on="1"/>
        <pt x="549" y="132" on="1"/>
        <pt x="847" y="113" on="1"/>
      </contour>
    </TTGlyph>
    <TTGlyph name="otilde" xMin="-5" yMin="-19" xMax="955" yMax="1562">
      <component glyphName="o" x="-105" y="0" flags="0x400"/>
      <component glyphName="tildecomb" x="-105" y="0" flags="0x0"/>
    </TTGlyph>
    <TTGlyph name="p" xMin="0" yMin="-303" xMax="975" yMax="1069">
      <contour>
        <pt x="295" y="-21" on="0"/>
        <pt x="179" y="6" on="1"/>
        <pt x="113" y="-303" on="1"/>
        <pt x="0" y="-303" on="1"/>
        <pt x="271" y="1054" on="1"/>
        <pt x="384" y="1054" on="1"/>
        <pt x="337" y="826" on="1"/>
        <pt x="406" y="897" on="1"/>
        <pt x="487" y="979" on="0"/>
        <pt x="649" y="1069" on="0"/>
        <pt x="736" y="1069" on="1"/>
        <pt x="853" y="1069" on="0"/>
        <pt x="975" y="919" on="0"/>
        <pt x="975" y="777" on="1"/>
        <pt x="975" y="691" on="0"/>
        <pt x="955" y="594" on="1"/>
        <pt x="916" y="397" on="0"/>
        <pt x="742" y="120" on="0"/>
        <pt x="510" y="-21" on="0"/>
        <pt x="384" y="-21" on="1"/>
      </contour>
      <contour>
        <pt x="479" y="76" on="0"/>
        <pt x="666" y="193" on="0"/>
        <pt x="803" y="430" on="0"/>
        <pt x="838" y="604" on="1"/>
        <pt x="858" y="701" on="0"/>
        <pt x="858" y="777" on="1"/>
        <pt x="858" y="875" on="0"/>
        <pt x="785" y="967" on="0"/>
        <pt x="713" y="967" on="1"/>
        <pt x="643" y="967" on="0"/>
        <pt x="506" y="885" on="0"/>
        <pt x="424" y="802" on="1"/>
        <pt x="315" y="701" on="1"/>
        <pt x="190" y="101" on="1"/>
        <pt x="228" y="90" on="0"/>
        <pt x="324" y="76" on="0"/>
        <pt x="367" y="76" on="1"/>
      </contour>
    </TTGlyph>
    <TTGlyph name="parenleft" xMin="279" yMin="-289" xMax="1092" yMax="1501">
      <contour>
        <pt x="476" y="1418" on="0"/>
        <pt x="1090" y="1501" on="1"/>
        <pt x="1092" y="1372" on="1"/>
        <pt x="904" y="1339" on="0"/>
        <pt x="660" y="1136" on="0"/>
        <pt x="519" y="821" on="0"/>
        <pt x="474" y="596" on="1"/>
        <pt x="435" y="401" on="0"/>
        <pt x="435" y="271" on="1"/>
        <pt x="435" y="88" on="0"/>
        <pt x="593" y="-129" on="0"/>
        <pt x="777" y="-164" on="1"/>
        <pt x="741" y="-289" on="1"/>
        <pt x="499" y="-255" on="0"/>
        <pt x="279" y="52" on="0"/>
        <pt x="279" y="298" on="1"/>
        <pt x="279" y="437" on="0"/>
        <pt x="314" y="614" on="1"/>
      </contour>
    </TTGlyph>
    <TTGlyph name="parenright" xMin="155" yMin="-291" xMax="968" yMax="1499">
      <contour>
        <pt x="771" y="-208" on="0"/>
        <pt x="157" y="-291" on="1"/>
        <pt x="155" y="-162" on="1"/>
        <pt x="343" y="-129" on="0"/>
        <pt x="587" y="74" on="0"/>
        <pt x="728" y="389" on="0"/>
        <pt x="773" y="614" on="1"/>
        <pt x="812" y="809" on="0"/>
        <pt x="812" y="940" on="1"/>
        <pt x="812" y="1122" on="0"/>
        <pt x="654" y="1339" on="0"/>
        <pt x="470" y="1374" on="1"/>
        <pt x="507" y="1499" on="1"/>
        <pt x="748" y="1465" on="0"/>
        <pt x="968" y="1158" on="0"/>
        <pt x="968" y="912" on="1"/>
        <pt x="968" y="773" on="0"/>
        <pt x="933" y="596" on="1"/>
      </contour>
    </TTGlyph>
    <TTGlyph name="percent" xMin="-58" yMin="-19" xMax="1178" yMax="1380">
      <contour>
        <pt x="1016" y="1210" on="1"/>
        <pt x="1178" y="1210" on="1"/>
        <pt x="104" y="151" on="1"/>
        <pt x="-58" y="151" on="1"/>
      </contour>
      <contour>
        <pt x="605" y="-19" on="0"/>
        <pt x="509" y="91" on="0"/>
        <pt x="509" y="190" on="1"/>
        <pt x="509" y="238" on="0"/>
        <pt x="521" y="295" on="1"/>
        <pt x="549" y="434" on="0"/>
        <pt x="694" y="588" on="0"/>
        <pt x="798" y="588" on="1"/>
        <pt x="886" y="588" on="0"/>
        <pt x="980" y="480" on="0"/>
        <pt x="980" y="381" on="1"/>
        <pt x="980" y="329" on="0"/>
        <pt x="969" y="277" on="1"/>
        <pt x="941" y="137" on="0"/>
        <pt x="796" y="-19" on="0"/>
        <pt x="693" y="-19" on="1"/>
      </contour>
      <contour>
        <pt x="803" y="104" on="0"/>
        <pt x="841" y="295" on="1"/>
        <pt x="851" y="345" on="0"/>
        <pt x="851" y="382" on="1"/>
        <pt x="851" y="427" on="0"/>
        <pt x="819" y="467" on="0"/>
        <pt x="788" y="467" on="1"/>
        <pt x="738" y="467" on="0"/>
        <pt x="667" y="377" on="0"/>
        <pt x="647" y="277" on="1"/>
        <pt x="636" y="220" on="0"/>
        <pt x="636" y="188" on="1"/>
        <pt x="636" y="143" on="0"/>
        <pt x="669" y="104" on="0"/>
        <pt x="700" y="104" on="1"/>
      </contour>
      <contour>
        <pt x="234" y="773" on="0"/>
        <pt x="139" y="883" on="0"/>
        <pt x="139" y="983" on="1"/>
        <pt x="139" y="1027" on="0"/>
        <pt x="150" y="1087" on="1"/>
        <pt x="178" y="1226" on="0"/>
        <pt x="324" y="1380" on="0"/>
        <pt x="428" y="1380" on="1"/>
        <pt x="516" y="1380" on="0"/>
        <pt x="610" y="1273" on="0"/>
        <pt x="610" y="1175" on="1"/>
        <pt x="610" y="1126" on="0"/>
        <pt x="598" y="1069" on="1"/>
        <pt x="570" y="929" on="0"/>
        <pt x="425" y="773" on="0"/>
        <pt x="322" y="773" on="1"/>
      </contour>
      <contour>
        <pt x="379" y="896" on="0"/>
        <pt x="450" y="986" on="0"/>
        <pt x="470" y="1087" on="1"/>
        <pt x="481" y="1142" on="0"/>
        <pt x="481" y="1175" on="1"/>
        <pt x="481" y="1219" on="0"/>
        <pt x="448" y="1259" on="0"/>
        <pt x="417" y="1259" on="1"/>
        <pt x="367" y="1259" on="0"/>
        <pt x="296" y="1169" on="0"/>
        <pt x="276" y="1069" on="1"/>
        <pt x="265" y="1012" on="0"/>
        <pt x="265" y="981" on="1"/>
        <pt x="265" y="936" on="0"/>
        <pt x="298" y="896" on="0"/>
        <pt x="329" y="896" on="1"/>
      </contour>
    </TTGlyph>
    <TTGlyph name="period" xMin="278" yMin="-23" xMax="630" yMax="325">
      <contour>
        <pt x="360" y="-23" on="0"/>
        <pt x="278" y="58" on="0"/>
        <pt x="278" y="121" on="1"/>
        <pt x="278" y="141" on="0"/>
        <pt x="282" y="158" on="1"/>
        <pt x="291" y="203" on="0"/>
        <pt x="351" y="280" on="0"/>
        <pt x="436" y="325" on="0"/>
        <pt x="481" y="325" on="1"/>
        <pt x="548" y="325" on="0"/>
        <pt x="630" y="243" on="0"/>
        <pt x="630" y="179" on="1"/>
        <pt x="630" y="157" on="0"/>
        <pt x="626" y="140" on="1"/>
        <pt x="617" y="96" on="0"/>
        <pt x="558" y="21" on="0"/>
        <pt x="473" y="-23" on="0"/>
        <pt x="427" y="-23" on="1"/>
      </contour>
    </TTGlyph>
    <TTGlyph name="periodcentered" xMin="437" yMin="499" xMax="653" yMax="711">
      <contour>
        <pt x="488" y="499" on="0"/>
        <pt x="437" y="548" on="0"/>
        <pt x="437" y="589" on="1"/>
        <pt x="437" y="642" on="0"/>
        <pt x="508" y="711" on="0"/>
        <pt x="558" y="711" on="1"/>
        <pt x="601" y="711" on="0"/>
        <pt x="653" y="662" on="0"/>
        <pt x="653" y="621" on="1"/>
        <pt x="653" y="569" on="0"/>
        <pt x="582" y="499" on="0"/>
        <pt x="531" y="499" on="1"/>
      </contour>
    </TTGlyph>
    <TTGlyph name="pi" xMin="46" yMin="0" xMax="1014" yMax="1059">
      <contour>
        <pt x="803" y="0" on="1"/>
        <pt x="651" y="0" on="1"/>
        <pt x="835" y="923" on="1"/>
        <pt x="382" y="923" on="1"/>
        <pt x="198" y="0" on="1"/>
        <pt x="46" y="0" on="1"/>
        <pt x="257" y="1059" on="1"/>
        <pt x="1014" y="1059" on="1"/>
      </contour>
    </TTGlyph>
    <TTGlyph name="plus" xMin="55" yMin="189" xMax="1065" yMax="1172">
      <contour>
        <pt x="471" y="613" on="1"/>
        <pt x="55" y="613" on="1"/>
        <pt x="82" y="749" on="1"/>
        <pt x="498" y="749" on="1"/>
        <pt x="583" y="1172" on="1"/>
        <pt x="734" y="1172" on="1"/>
        <pt x="649" y="749" on="1"/>
        <pt x="1065" y="749" on="1"/>
        <pt x="1038" y="613" on="1"/>
        <pt x="622" y="613" on="1"/>
        <pt x="537" y="189" on="1"/>
        <pt x="386" y="189" on="1"/>
      </contour>
    </TTGlyph>
    <TTGlyph name="plusminus" xMin="-173" yMin="0" xMax="990" yMax="1323">
      <component glyphName="minus" x="-228" y="-613" flags="0x404"/>
      <component glyphName="plus" x="-75" y="151" flags="0x4"/>
    </TTGlyph>
    <TTGlyph name="q" xMin="84" yMin="-303" xMax="988" yMax="1075">
      <contour>
        <pt x="827" y="1075" on="0"/>
        <pt x="988" y="1019" on="1"/>
        <pt x="727" y="-303" on="1"/>
        <pt x="614" y="-303" on="1"/>
        <pt x="722" y="228" on="1"/>
        <pt x="653" y="157" on="1"/>
        <pt x="572" y="75" on="0"/>
        <pt x="410" y="-15" on="0"/>
        <pt x="323" y="-15" on="1"/>
        <pt x="206" y="-15" on="0"/>
        <pt x="84" y="135" on="0"/>
        <pt x="84" y="278" on="1"/>
        <pt x="84" y="365" on="0"/>
        <pt x="104" y="462" on="1"/>
        <pt x="143" y="658" on="0"/>
        <pt x="317" y="935" on="0"/>
        <pt x="549" y="1075" on="0"/>
        <pt x="675" y="1075" on="1"/>
      </contour>
      <contour>
        <pt x="580" y="978" on="0"/>
        <pt x="393" y="861" on="0"/>
        <pt x="256" y="626" on="0"/>
        <pt x="221" y="453" on="1"/>
        <pt x="201" y="354" on="0"/>
        <pt x="201" y="278" on="1"/>
        <pt x="201" y="180" on="0"/>
        <pt x="274" y="87" on="0"/>
        <pt x="346" y="87" on="1"/>
        <pt x="416" y="87" on="0"/>
        <pt x="553" y="169" on="0"/>
        <pt x="635" y="252" on="1"/>
        <pt x="744" y="353" on="1"/>
        <pt x="869" y="953" on="1"/>
        <pt x="831" y="964" on="0"/>
        <pt x="735" y="978" on="0"/>
        <pt x="692" y="978" on="1"/>
      </contour>
    </TTGlyph>
    <TTGlyph name="question" xMin="278" yMin="-23" xMax="1019" yMax="1380">
      <contour>
        <pt x="579" y="631" on="0"/>
        <pt x="730" y="763" on="0"/>
        <pt x="824" y="902" on="0"/>
        <pt x="840" y="983" on="1"/>
        <pt x="847" y="1017" on="0"/>
        <pt x="847" y="1051" on="1"/>
        <pt x="847" y="1144" on="0"/>
        <pt x="723" y="1244" on="0"/>
        <pt x="601" y="1244" on="1"/>
        <pt x="536" y="1244" on="0"/>
        <pt x="372" y="1212" on="0"/>
        <pt x="310" y="1192" on="1"/>
        <pt x="290" y="1303" on="1"/>
        <pt x="371" y="1336" on="0"/>
        <pt x="555" y="1380" on="0"/>
        <pt x="640" y="1380" on="1"/>
        <pt x="759" y="1380" on="0"/>
        <pt x="929" y="1304" on="0"/>
        <pt x="1019" y="1164" on="0"/>
        <pt x="1019" y="1069" on="1"/>
        <pt x="1019" y="1031" on="0"/>
        <pt x="1009" y="978" on="1"/>
        <pt x="979" y="830" on="0"/>
        <pt x="728" y="570" on="0"/>
        <pt x="529" y="452" on="1"/>
        <pt x="462" y="551" on="1"/>
      </contour>
      <contour>
        <pt x="360" y="-23" on="0"/>
        <pt x="278" y="58" on="0"/>
        <pt x="278" y="121" on="1"/>
        <pt x="278" y="141" on="0"/>
        <pt x="282" y="158" on="1"/>
        <pt x="291" y="203" on="0"/>
        <pt x="351" y="280" on="0"/>
        <pt x="436" y="325" on="0"/>
        <pt x="481" y="325" on="1"/>
        <pt x="548" y="325" on="0"/>
        <pt x="630" y="243" on="0"/>
        <pt x="630" y="179" on="1"/>
        <pt x="630" y="157" on="0"/>
        <pt x="626" y="140" on="1"/>
        <pt x="617" y="96" on="0"/>
        <pt x="558" y="21" on="0"/>
        <pt x="473" y="-23" on="0"/>
        <pt x="427" y="-23" on="1"/>
      </contour>
    </TTGlyph>
    <TTGlyph name="questiondown" xMin="41" yMin="-321" xMax="782" yMax="1082">
      <contour>
        <pt x="481" y="428" on="0"/>
        <pt x="330" y="296" on="0"/>
        <pt x="236" y="157" on="0"/>
        <pt x="220" y="76" on="1"/>
        <pt x="213" y="42" on="0"/>
        <pt x="213" y="8" on="1"/>
        <pt x="213" y="-85" on="0"/>
        <pt x="337" y="-185" on="0"/>
        <pt x="459" y="-185" on="1"/>
        <pt x="524" y="-185" on="0"/>
        <pt x="688" y="-153" on="0"/>
        <pt x="750" y="-133" on="1"/>
        <pt x="770" y="-244" on="1"/>
        <pt x="689" y="-277" on="0"/>
        <pt x="505" y="-321" on="0"/>
        <pt x="420" y="-321" on="1"/>
        <pt x="301" y="-321" on="0"/>
        <pt x="131" y="-245" on="0"/>
        <pt x="41" y="-105" on="0"/>
        <pt x="41" y="-10" on="1"/>
        <pt x="41" y="28" on="0"/>
        <pt x="51" y="81" on="1"/>
        <pt x="81" y="229" on="0"/>
        <pt x="332" y="489" on="0"/>
        <pt x="531" y="607" on="1"/>
        <pt x="598" y="508" on="1"/>
      </contour>
      <contour>
        <pt x="700" y="1082" on="0"/>
        <pt x="782" y="1001" on="0"/>
        <pt x="782" y="938" on="1"/>
        <pt x="782" y="918" on="0"/>
        <pt x="778" y="901" on="1"/>
        <pt x="769" y="856" on="0"/>
        <pt x="709" y="779" on="0"/>
        <pt x="624" y="734" on="0"/>
        <pt x="579" y="734" on="1"/>
        <pt x="512" y="734" on="0"/>
        <pt x="430" y="816" on="0"/>
        <pt x="430" y="880" on="1"/>
        <pt x="430" y="902" on="0"/>
        <pt x="434" y="919" on="1"/>
        <pt x="443" y="963" on="0"/>
        <pt x="502" y="1038" on="0"/>
        <pt x="587" y="1082" on="0"/>
        <pt x="633" y="1082" on="1"/>
      </contour>
    </TTGlyph>
    <TTGlyph name="quotedbl" xMin="194" yMin="756" xMax="932" yMax="1362">
      <component glyphName="quotesingle" x="-321" y="0" flags="0x400"/>
      <component glyphName="quotesingle" x="111" y="0" flags="0x0"/>
    </TTGlyph>
    <TTGlyph name="quotedblbase" xMin="-247" yMin="-315" xMax="811" yMax="323">
      <component glyphName="quoteright" x="-548" y="-1059" flags="0x404"/>
      <component glyphName="quoteright" x="-45" y="-1059" flags="0x4"/>
    </TTGlyph>
    <TTGlyph name="quotedblleft" xMin="157" yMin="800" xMax="1214" yMax="1438">
      <contour>
        <pt x="743" y="800" on="0"/>
        <pt x="660" y="885" on="0"/>
        <pt x="660" y="965" on="1"/>
        <pt x="660" y="994" on="0"/>
        <pt x="668" y="1036" on="1"/>
        <pt x="700" y="1199" on="0"/>
        <pt x="973" y="1404" on="0"/>
        <pt x="1204" y="1438" on="1"/>
        <pt x="1214" y="1319" on="1"/>
        <pt x="1068" y="1291" on="0"/>
        <pt x="891" y="1196" on="0"/>
        <pt x="880" y="1144" on="1"/>
        <pt x="878" y="1130" on="0"/>
        <pt x="898" y="1104" on="0"/>
        <pt x="920" y="1089" on="1"/>
        <pt x="955" y="1074" on="0"/>
        <pt x="990" y="1019" on="0"/>
        <pt x="990" y="983" on="1"/>
        <pt x="990" y="973" on="0"/>
        <pt x="986" y="949" on="1"/>
        <pt x="973" y="884" on="0"/>
        <pt x="877" y="800" on="0"/>
        <pt x="809" y="800" on="1"/>
      </contour>
      <contour>
        <pt x="240" y="800" on="0"/>
        <pt x="157" y="885" on="0"/>
        <pt x="157" y="965" on="1"/>
        <pt x="157" y="994" on="0"/>
        <pt x="165" y="1036" on="1"/>
        <pt x="197" y="1199" on="0"/>
        <pt x="470" y="1404" on="0"/>
        <pt x="701" y="1438" on="1"/>
        <pt x="711" y="1319" on="1"/>
        <pt x="565" y="1291" on="0"/>
        <pt x="388" y="1196" on="0"/>
        <pt x="377" y="1144" on="1"/>
        <pt x="375" y="1130" on="0"/>
        <pt x="395" y="1104" on="0"/>
        <pt x="417" y="1089" on="1"/>
        <pt x="452" y="1074" on="0"/>
        <pt x="487" y="1019" on="0"/>
        <pt x="487" y="983" on="1"/>
        <pt x="487" y="973" on="0"/>
        <pt x="483" y="949" on="1"/>
        <pt x="470" y="884" on="0"/>
        <pt x="374" y="800" on="0"/>
        <pt x="306" y="800" on="1"/>
      </contour>
    </TTGlyph>
    <TTGlyph name="quotedblright" xMin="-35" yMin="744" xMax="1023" yMax="1382">
      <component glyphName="quoteright" x="-336" y="0" flags="0x400"/>
      <component glyphName="quoteright" x="167" y="0" flags="0x0"/>
    </TTGlyph>
    <TTGlyph name="quoteleft" xMin="429" yMin="800" xMax="983" yMax="1438">
      <contour>
        <pt x="512" y="800" on="0"/>
        <pt x="429" y="885" on="0"/>
        <pt x="429" y="965" on="1"/>
        <pt x="429" y="994" on="0"/>
        <pt x="437" y="1036" on="1"/>
        <pt x="469" y="1199" on="0"/>
        <pt x="742" y="1404" on="0"/>
        <pt x="973" y="1438" on="1"/>
        <pt x="983" y="1319" on="1"/>
        <pt x="837" y="1291" on="0"/>
        <pt x="660" y="1196" on="0"/>
        <pt x="649" y="1144" on="1"/>
        <pt x="647" y="1130" on="0"/>
        <pt x="667" y="1104" on="0"/>
        <pt x="689" y="1089" on="1"/>
        <pt x="724" y="1074" on="0"/>
        <pt x="759" y="1019" on="0"/>
        <pt x="759" y="983" on="1"/>
        <pt x="759" y="973" on="0"/>
        <pt x="755" y="949" on="1"/>
        <pt x="742" y="884" on="0"/>
        <pt x="646" y="800" on="0"/>
        <pt x="578" y="800" on="1"/>
      </contour>
    </TTGlyph>
    <TTGlyph name="quoteright" xMin="301" yMin="744" xMax="856" yMax="1382">
      <contour>
        <pt x="773" y="1382" on="0"/>
        <pt x="856" y="1297" on="0"/>
        <pt x="856" y="1217" on="1"/>
        <pt x="856" y="1188" on="0"/>
        <pt x="848" y="1146" on="1"/>
        <pt x="816" y="983" on="0"/>
        <pt x="543" y="778" on="0"/>
        <pt x="311" y="744" on="1"/>
        <pt x="301" y="863" on="1"/>
        <pt x="448" y="891" on="0"/>
        <pt x="625" y="986" on="0"/>
        <pt x="635" y="1038" on="1"/>
        <pt x="638" y="1052" on="0"/>
        <pt x="618" y="1078" on="0"/>
        <pt x="595" y="1093" on="1"/>
        <pt x="561" y="1108" on="0"/>
        <pt x="526" y="1164" on="0"/>
        <pt x="526" y="1200" on="1"/>
        <pt x="526" y="1217" on="0"/>
        <pt x="529" y="1233" on="1"/>
        <pt x="542" y="1298" on="0"/>
        <pt x="639" y="1382" on="0"/>
        <pt x="706" y="1382" on="1"/>
      </contour>
    </TTGlyph>
    <TTGlyph name="quotesinglbase" xMin="-16" yMin="-315" xMax="539" yMax="323">
      <component glyphName="quoteright" x="-317" y="-1059" flags="0x404"/>
    </TTGlyph>
    <TTGlyph name="quotesingle" xMin="515" yMin="756" xMax="821" yMax="1362">
      <contour>
        <pt x="572" y="1362" on="1"/>
        <pt x="821" y="1362" on="1"/>
        <pt x="636" y="756" on="1"/>
        <pt x="515" y="756" on="1"/>
      </contour>
    </TTGlyph>
    <TTGlyph name="r" xMin="177" yMin="0" xMax="1033" yMax="1074">
      <contour>
        <pt x="945" y="1074" on="0"/>
        <pt x="1008" y="1066" on="0"/>
        <pt x="1033" y="1062" on="1"/>
        <pt x="985" y="914" on="1"/>
        <pt x="929" y="927" on="0"/>
        <pt x="884" y="927" on="1"/>
        <pt x="800" y="927" on="0"/>
        <pt x="656" y="834" on="0"/>
        <pt x="566" y="739" on="1"/>
        <pt x="481" y="656" on="1"/>
        <pt x="349" y="0" on="1"/>
        <pt x="198" y="0" on="1"/>
        <pt x="385" y="938" on="1"/>
        <pt x="177" y="938" on="1"/>
        <pt x="200" y="1051" on="1"/>
        <pt x="495" y="1070" on="1"/>
        <pt x="563" y="1070" on="1"/>
        <pt x="512" y="823" on="1"/>
        <pt x="550" y="870" on="1"/>
        <pt x="639" y="968" on="0"/>
        <pt x="808" y="1074" on="0"/>
        <pt x="913" y="1074" on="1"/>
      </contour>
    </TTGlyph>
    <TTGlyph name="racute" xMin="72" yMin="0" xMax="1013" yMax="1648">
      <component glyphName="r" x="-105" y="0" flags="0x400"/>
      <component glyphName="acutecomb" x="-54" y="5" flags="0x4"/>
    </TTGlyph>
    <TTGlyph name="rcaron" xMin="72" yMin="0" xMax="1016" yMax="1648">
      <component glyphName="r" x="-105" y="0" flags="0x400"/>
      <component glyphName="uni030C" x="-54" y="5" flags="0x4"/>
    </TTGlyph>
    <TTGlyph name="ring" xMin="363" yMin="1216" xMax="854" yMax="1675">
      <component glyphName="uni030A" x="-105" y="0" flags="0x400"/>
    </TTGlyph>
    <TTGlyph name="s" xMin="97" yMin="-17" xMax="920" yMax="1085">
      <contour>
        <pt x="318" y="-17" on="0"/>
        <pt x="161" y="22" on="0"/>
        <pt x="97" y="55" on="1"/>
        <pt x="149" y="169" on="1"/>
        <pt x="282" y="119" on="0"/>
        <pt x="407" y="119" on="1"/>
        <pt x="508" y="119" on="0"/>
        <pt x="634" y="208" on="0"/>
        <pt x="650" y="289" on="1"/>
        <pt x="654" y="313" on="0"/>
        <pt x="654" y="323" on="1"/>
        <pt x="654" y="366" on="0"/>
        <pt x="606" y="426" on="0"/>
        <pt x="534" y="466" on="0"/>
        <pt x="471" y="492" on="1"/>
        <pt x="396" y="523" on="0"/>
        <pt x="303" y="576" on="0"/>
        <pt x="238" y="668" on="0"/>
        <pt x="238" y="738" on="1"/>
        <pt x="238" y="771" on="0"/>
        <pt x="245" y="805" on="1"/>
        <pt x="260" y="880" on="0"/>
        <pt x="364" y="1008" on="0"/>
        <pt x="535" y="1085" on="0"/>
        <pt x="645" y="1085" on="1"/>
        <pt x="778" y="1085" on="0"/>
        <pt x="920" y="1023" on="1"/>
        <pt x="866" y="904" on="1"/>
        <pt x="816" y="923" on="0"/>
        <pt x="699" y="949" on="0"/>
        <pt x="641" y="949" on="1"/>
        <pt x="534" y="949" on="0"/>
        <pt x="413" y="867" on="0"/>
        <pt x="399" y="798" on="1"/>
        <pt x="396" y="783" on="0"/>
        <pt x="396" y="770" on="1"/>
        <pt x="396" y="732" on="0"/>
        <pt x="441" y="678" on="0"/>
        <pt x="509" y="642" on="0"/>
        <pt x="569" y="618" on="1"/>
        <pt x="647" y="586" on="0"/>
        <pt x="743" y="530" on="0"/>
        <pt x="812" y="432" on="0"/>
        <pt x="812" y="356" on="1"/>
        <pt x="812" y="317" on="0"/>
        <pt x="804" y="280" on="1"/>
        <pt x="788" y="199" on="0"/>
        <pt x="682" y="64" on="0"/>
        <pt x="512" y="-17" on="0"/>
        <pt x="404" y="-17" on="1"/>
      </contour>
    </TTGlyph>
    <TTGlyph name="sacute" xMin="-8" yMin="-17" xMax="964" yMax="1648">
      <component glyphName="s" x="-105" y="0" flags="0x400"/>
      <component glyphName="acutecomb" x="-103" y="5" flags="0x4"/>
    </TTGlyph>
    <TTGlyph name="scaron" xMin="-8" yMin="-17" xMax="967" yMax="1648">
      <component glyphName="s" x="-105" y="0" flags="0x400"/>
      <component glyphName="uni030C" x="-103" y="5" flags="0x4"/>
    </TTGlyph>
    <TTGlyph name="scedilla" xMin="97" yMin="-303" xMax="920" yMax="1085">
      <contour>
        <pt x="318" y="-17" on="0"/>
        <pt x="161" y="22" on="0"/>
        <pt x="97" y="55" on="1"/>
        <pt x="149" y="169" on="1"/>
        <pt x="282" y="119" on="0"/>
        <pt x="407" y="119" on="1"/>
        <pt x="508" y="119" on="0"/>
        <pt x="634" y="208" on="0"/>
        <pt x="650" y="289" on="1"/>
        <pt x="654" y="313" on="0"/>
        <pt x="654" y="323" on="1"/>
        <pt x="654" y="366" on="0"/>
        <pt x="606" y="426" on="0"/>
        <pt x="534" y="466" on="0"/>
        <pt x="471" y="492" on="1"/>
        <pt x="396" y="523" on="0"/>
        <pt x="303" y="576" on="0"/>
        <pt x="238" y="668" on="0"/>
        <pt x="238" y="738" on="1"/>
        <pt x="238" y="771" on="0"/>
        <pt x="245" y="805" on="1"/>
        <pt x="260" y="880" on="0"/>
        <pt x="364" y="1008" on="0"/>
        <pt x="535" y="1085" on="0"/>
        <pt x="645" y="1085" on="1"/>
        <pt x="778" y="1085" on="0"/>
        <pt x="920" y="1023" on="1"/>
        <pt x="866" y="904" on="1"/>
        <pt x="816" y="923" on="0"/>
        <pt x="699" y="949" on="0"/>
        <pt x="641" y="949" on="1"/>
        <pt x="534" y="949" on="0"/>
        <pt x="413" y="867" on="0"/>
        <pt x="399" y="798" on="1"/>
        <pt x="396" y="783" on="0"/>
        <pt x="396" y="770" on="1"/>
        <pt x="396" y="732" on="0"/>
        <pt x="441" y="678" on="0"/>
        <pt x="509" y="642" on="0"/>
        <pt x="569" y="618" on="1"/>
        <pt x="647" y="586" on="0"/>
        <pt x="743" y="530" on="0"/>
        <pt x="812" y="432" on="0"/>
        <pt x="812" y="356" on="1"/>
        <pt x="812" y="317" on="0"/>
        <pt x="804" y="280" on="1"/>
        <pt x="786" y="194" on="0"/>
        <pt x="669" y="51" on="0"/>
        <pt x="575" y="10" on="1"/>
        <pt x="573" y="-11" on="1"/>
        <pt x="569" y="-58" on="0"/>
        <pt x="562" y="-92" on="1"/>
        <pt x="541" y="-197" on="0"/>
        <pt x="392" y="-303" on="0"/>
        <pt x="290" y="-303" on="1"/>
        <pt x="225" y="-303" on="0"/>
        <pt x="164" y="-286" on="1"/>
        <pt x="196" y="-162" on="1"/>
        <pt x="224" y="-166" on="0"/>
        <pt x="271" y="-166" on="1"/>
        <pt x="341" y="-166" on="0"/>
        <pt x="419" y="-105" on="0"/>
        <pt x="432" y="-42" on="1"/>
        <pt x="432" y="-40" on="0"/>
        <pt x="436" y="-22" on="0"/>
        <pt x="440" y="-12" on="1"/>
        <pt x="427" y="-17" on="0"/>
        <pt x="404" y="-17" on="1"/>
      </contour>
    </TTGlyph>
    <TTGlyph name="scircumflex" xMin="-8" yMin="-17" xMax="885" yMax="1648">
      <component glyphName="s" x="-105" y="0" flags="0x400"/>
      <component glyphName="uni0302" x="-103" y="5" flags="0x4"/>
    </TTGlyph>
    <TTGlyph name="semicolon" xMin="1" yMin="-303" xMax="685" yMax="1081">
      <component glyphName="comma" x="-133" y="0" flags="0x400"/>
      <component glyphName="period" x="55" y="756" flags="0x4"/>
    </TTGlyph>
    <TTGlyph name="seven" xMin="137" yMin="-307" xMax="1045" yMax="1210">
      <contour>
        <pt x="230" y="-3" on="0"/>
        <pt x="451" y="468" on="0"/>
        <pt x="683" y="835" on="0"/>
        <pt x="848" y="1063" on="1"/>
        <pt x="257" y="1059" on="1"/>
        <pt x="288" y="1210" on="1"/>
        <pt x="1045" y="1210" on="1"/>
        <pt x="1019" y="1074" on="1"/>
        <pt x="837" y="828" on="0"/>
        <pt x="581" y="417" on="0"/>
        <pt x="374" y="-33" on="0"/>
        <pt x="288" y="-307" on="1"/>
        <pt x="137" y="-299" on="1"/>
      </contour>
    </TTGlyph>
    <TTGlyph name="six" xMin="103" yMin="-23" xMax="956" yMax="1381">
      <contour>
        <pt x="332" y="-23" on="0"/>
        <pt x="182" y="72" on="0"/>
        <pt x="103" y="254" on="0"/>
        <pt x="103" y="383" on="1"/>
        <pt x="103" y="484" on="0"/>
        <pt x="126" y="595" on="1"/>
        <pt x="171" y="822" on="0"/>
        <pt x="370" y="1140" on="0"/>
        <pt x="703" y="1339" on="0"/>
        <pt x="949" y="1381" on="1"/>
        <pt x="956" y="1257" on="1"/>
        <pt x="780" y="1219" on="0"/>
        <pt x="541" y="1100" on="0"/>
        <pt x="381" y="909" on="0"/>
        <pt x="332" y="762" on="1"/>
        <pt x="406" y="827" on="0"/>
        <pt x="563" y="898" on="0"/>
        <pt x="652" y="898" on="1"/>
        <pt x="739" y="898" on="0"/>
        <pt x="869" y="821" on="0"/>
        <pt x="940" y="676" on="0"/>
        <pt x="940" y="577" on="1"/>
        <pt x="940" y="519" on="0"/>
        <pt x="926" y="447" on="1"/>
        <pt x="899" y="314" on="0"/>
        <pt x="753" y="100" on="0"/>
        <pt x="548" y="-23" on="0"/>
        <pt x="437" y="-23" on="1"/>
      </contour>
      <contour>
        <pt x="267" y="469" on="0"/>
        <pt x="267" y="374" on="1"/>
        <pt x="267" y="243" on="0"/>
        <pt x="361" y="113" on="0"/>
        <pt x="448" y="113" on="1"/>
        <pt x="566" y="113" on="0"/>
        <pt x="730" y="302" on="0"/>
        <pt x="763" y="467" on="1"/>
        <pt x="774" y="519" on="0"/>
        <pt x="774" y="570" on="1"/>
        <pt x="774" y="666" on="0"/>
        <pt x="683" y="762" on="0"/>
        <pt x="602" y="762" on="1"/>
        <pt x="463" y="762" on="0"/>
        <pt x="298" y="614" on="1"/>
        <pt x="292" y="595" on="1"/>
      </contour>
    </TTGlyph>
    <TTGlyph name="slash" xMin="-12" yMin="-303" xMax="1106" yMax="1513">
      <contour>
        <pt x="960" y="1513" on="1"/>
        <pt x="1106" y="1513" on="1"/>
        <pt x="134" y="-303" on="1"/>
        <pt x="-12" y="-303" on="1"/>
      </contour>
    </TTGlyph>
    <TTGlyph name="t" xMin="193" yMin="-19" xMax="961" yMax="1346">
      <contour>
        <pt x="407" y="-19" on="0"/>
        <pt x="282" y="86" on="0"/>
        <pt x="282" y="193" on="1"/>
        <pt x="282" y="237" on="0"/>
        <pt x="292" y="284" on="1"/>
        <pt x="420" y="923" on="1"/>
        <pt x="193" y="923" on="1"/>
        <pt x="220" y="1059" on="1"/>
        <pt x="447" y="1059" on="1"/>
        <pt x="505" y="1346" on="1"/>
        <pt x="656" y="1346" on="1"/>
        <pt x="598" y="1059" on="1"/>
        <pt x="961" y="1059" on="1"/>
        <pt x="934" y="923" on="1"/>
        <pt x="571" y="923" on="1"/>
        <pt x="444" y="285" on="1"/>
        <pt x="437" y="253" on="0"/>
        <pt x="437" y="224" on="1"/>
        <pt x="437" y="169" on="0"/>
        <pt x="502" y="121" on="0"/>
        <pt x="575" y="121" on="1"/>
        <pt x="652" y="121" on="0"/>
        <pt x="760" y="149" on="1"/>
        <pt x="768" y="22" on="1"/>
        <pt x="627" y="-19" on="0"/>
        <pt x="527" y="-19" on="1"/>
      </contour>
    </TTGlyph>
    <TTGlyph name="thorn" xMin="0" yMin="-303" xMax="975" yMax="1513">
      <contour>
        <pt x="295" y="-21" on="0"/>
        <pt x="179" y="6" on="1"/>
        <pt x="113" y="-303" on="1"/>
        <pt x="0" y="-303" on="1"/>
        <pt x="363" y="1513" on="1"/>
        <pt x="476" y="1513" on="1"/>
        <pt x="337" y="826" on="1"/>
        <pt x="406" y="897" on="1"/>
        <pt x="487" y="979" on="0"/>
        <pt x="649" y="1069" on="0"/>
        <pt x="736" y="1069" on="1"/>
        <pt x="853" y="1069" on="0"/>
        <pt x="975" y="919" on="0"/>
        <pt x="975" y="777" on="1"/>
        <pt x="975" y="691" on="0"/>
        <pt x="955" y="594" on="1"/>
        <pt x="916" y="397" on="0"/>
        <pt x="742" y="120" on="0"/>
        <pt x="510" y="-21" on="0"/>
        <pt x="384" y="-21" on="1"/>
      </contour>
      <contour>
        <pt x="479" y="76" on="0"/>
        <pt x="666" y="193" on="0"/>
        <pt x="803" y="430" on="0"/>
        <pt x="838" y="604" on="1"/>
        <pt x="858" y="701" on="0"/>
        <pt x="858" y="777" on="1"/>
        <pt x="858" y="875" on="0"/>
        <pt x="785" y="967" on="0"/>
        <pt x="713" y="967" on="1"/>
        <pt x="643" y="967" on="0"/>
        <pt x="506" y="885" on="0"/>
        <pt x="424" y="802" on="1"/>
        <pt x="315" y="701" on="1"/>
        <pt x="190" y="101" on="1"/>
        <pt x="228" y="90" on="0"/>
        <pt x="324" y="76" on="0"/>
        <pt x="367" y="76" on="1"/>
      </contour>
    </TTGlyph>
    <TTGlyph name="three" xMin="-15" yMin="-322" xMax="952" yMax="1233">
      <contour>
        <pt x="308" y="-150" on="0"/>
        <pt x="642" y="45" on="0"/>
        <pt x="675" y="209" on="1"/>
        <pt x="681" y="236" on="0"/>
        <pt x="681" y="261" on="1"/>
        <pt x="681" y="350" on="0"/>
        <pt x="532" y="454" on="0"/>
        <pt x="373" y="454" on="1"/>
        <pt x="265" y="454" on="1"/>
        <pt x="293" y="590" on="1"/>
        <pt x="336" y="590" on="1"/>
        <pt x="478" y="590" on="0"/>
        <pt x="667" y="677" on="0"/>
        <pt x="764" y="812" on="0"/>
        <pt x="780" y="890" on="1"/>
        <pt x="786" y="920" on="0"/>
        <pt x="786" y="947" on="1"/>
        <pt x="786" y="1019" on="0"/>
        <pt x="701" y="1101" on="0"/>
        <pt x="620" y="1101" on="1"/>
        <pt x="528" y="1101" on="0"/>
        <pt x="366" y="1006" on="0"/>
        <pt x="276" y="924" on="1"/>
        <pt x="197" y="1015" on="1"/>
        <pt x="298" y="1114" on="0"/>
        <pt x="512" y="1233" on="0"/>
        <pt x="644" y="1233" on="1"/>
        <pt x="739" y="1233" on="0"/>
        <pt x="878" y="1165" on="0"/>
        <pt x="952" y="1045" on="0"/>
        <pt x="952" y="968" on="1"/>
        <pt x="952" y="933" on="0"/>
        <pt x="945" y="901" on="1"/>
        <pt x="920" y="778" on="0"/>
        <pt x="734" y="588" on="0"/>
        <pt x="581" y="541" on="1"/>
        <pt x="714" y="514" on="0"/>
        <pt x="844" y="372" on="0"/>
        <pt x="844" y="269" on="1"/>
        <pt x="844" y="237" on="0"/>
        <pt x="836" y="195" on="1"/>
        <pt x="810" y="66" on="0"/>
        <pt x="608" y="-143" on="0"/>
        <pt x="246" y="-290" on="0"/>
        <pt x="-12" y="-322" on="1"/>
        <pt x="-15" y="-198" on="1"/>
      </contour>
    </TTGlyph>
    <TTGlyph name="tilde" xMin="248" yMin="1244" xMax="955" yMax="1562">
      <component glyphName="tildecomb" x="-105" y="0" flags="0x400"/>
    </TTGlyph>
    <TTGlyph name="tildecomb" xMin="353" yMin="1244" xMax="1060" yMax="1562">
      <contour>
        <pt x="377" y="1416" on="0"/>
        <pt x="504" y="1562" on="0"/>
        <pt x="602" y="1562" on="1"/>
        <pt x="649" y="1562" on="0"/>
        <pt x="712" y="1529" on="0"/>
        <pt x="747" y="1485" on="0"/>
        <pt x="767" y="1450" on="1"/>
        <pt x="784" y="1420" on="0"/>
        <pt x="809" y="1392" on="0"/>
        <pt x="827" y="1392" on="1"/>
        <pt x="860" y="1392" on="0"/>
        <pt x="908" y="1469" on="0"/>
        <pt x="926" y="1562" on="1"/>
        <pt x="1060" y="1554" on="1"/>
        <pt x="1036" y="1389" on="0"/>
        <pt x="912" y="1244" on="0"/>
        <pt x="813" y="1244" on="1"/>
        <pt x="764" y="1244" on="0"/>
        <pt x="699" y="1277" on="0"/>
        <pt x="662" y="1324" on="0"/>
        <pt x="643" y="1358" on="1"/>
        <pt x="625" y="1389" on="0"/>
        <pt x="602" y="1415" on="0"/>
        <pt x="584" y="1415" on="1"/>
        <pt x="549" y="1415" on="0"/>
        <pt x="503" y="1337" on="0"/>
        <pt x="487" y="1244" on="1"/>
        <pt x="353" y="1252" on="1"/>
      </contour>
    </TTGlyph>
    <TTGlyph name="tildecomb.case" xMin="399" yMin="1471" xMax="1105" yMax="1789">
      <contour>
        <pt x="423" y="1643" on="0"/>
        <pt x="550" y="1789" on="0"/>
        <pt x="648" y="1789" on="1"/>
        <pt x="695" y="1789" on="0"/>
        <pt x="757" y="1757" on="0"/>
        <pt x="792" y="1712" on="0"/>
        <pt x="812" y="1678" on="1"/>
        <pt x="829" y="1647" on="0"/>
        <pt x="854" y="1619" on="0"/>
        <pt x="873" y="1619" on="1"/>
        <pt x="906" y="1619" on="0"/>
        <pt x="954" y="1696" on="0"/>
        <pt x="972" y="1789" on="1"/>
        <pt x="1105" y="1781" on="1"/>
        <pt x="1082" y="1616" on="0"/>
        <pt x="958" y="1471" on="0"/>
        <pt x="859" y="1471" on="1"/>
        <pt x="810" y="1471" on="0"/>
        <pt x="745" y="1504" on="0"/>
        <pt x="708" y="1550" on="0"/>
        <pt x="689" y="1585" on="1"/>
        <pt x="672" y="1614" on="0"/>
        <pt x="648" y="1641" on="0"/>
        <pt x="630" y="1641" on="1"/>
        <pt x="594" y="1641" on="0"/>
        <pt x="548" y="1564" on="0"/>
        <pt x="533" y="1471" on="1"/>
        <pt x="399" y="1479" on="1"/>
      </contour>
    </TTGlyph>
    <TTGlyph name="triagdn" xMin="108" yMin="144" xMax="1167" yMax="1059">
      <contour>
        <pt x="108" y="1059" on="1"/>
        <pt x="1167" y="1059" on="1"/>
        <pt x="455" y="144" on="1"/>
      </contour>
    </TTGlyph>
    <TTGlyph name="triaglf" xMin="-46" yMin="144" xMax="975" yMax="1203">
      <component glyphName="uni25C0" x="-105" y="0" flags="0x400"/>
    </TTGlyph>
    <TTGlyph name="triagrt" xMin="-68" yMin="144" xMax="953" yMax="1203">
      <component glyphName="uni25B6" x="-105" y="0" flags="0x400"/>
    </TTGlyph>
    <TTGlyph name="triagup" xMin="-46" yMin="303" xMax="1013" yMax="1218">
      <contour>
        <pt x="664" y="1218" on="1"/>
        <pt x="1013" y="303" on="1"/>
        <pt x="-46" y="303" on="1"/>
      </contour>
    </TTGlyph>
    <TTGlyph name="two" xMin="43" yMin="0" xMax="955" yMax="1233">
      <contour>
        <pt x="313" y="299" on="0"/>
        <pt x="605" y="532" on="0"/>
        <pt x="762" y="740" on="0"/>
        <pt x="784" y="852" on="1"/>
        <pt x="792" y="889" on="0"/>
        <pt x="792" y="929" on="1"/>
        <pt x="792" y="1011" on="0"/>
        <pt x="703" y="1097" on="0"/>
        <pt x="617" y="1097" on="1"/>
        <pt x="540" y="1097" on="0"/>
        <pt x="381" y="1024" on="0"/>
        <pt x="299" y="969" on="1"/>
        <pt x="238" y="1081" on="1"/>
        <pt x="340" y="1155" on="0"/>
        <pt x="532" y="1233" on="0"/>
        <pt x="634" y="1233" on="1"/>
        <pt x="736" y="1233" on="0"/>
        <pt x="880" y="1161" on="0"/>
        <pt x="955" y="1030" on="0"/>
        <pt x="955" y="941" on="1"/>
        <pt x="955" y="893" on="0"/>
        <pt x="945" y="846" on="1"/>
        <pt x="912" y="682" on="0"/>
        <pt x="600" y="338" on="0"/>
        <pt x="258" y="133" on="1"/>
        <pt x="826" y="136" on="1"/>
        <pt x="799" y="0" on="1"/>
        <pt x="43" y="0" on="1"/>
        <pt x="67" y="137" on="1"/>
      </contour>
    </TTGlyph>
    <TTGlyph name="u" xMin="106" yMin="-15" xMax="998" yMax="1054">
      <contour>
        <pt x="213" y="-15" on="0"/>
        <pt x="106" y="87" on="0"/>
        <pt x="106" y="185" on="1"/>
        <pt x="106" y="226" on="0"/>
        <pt x="115" y="274" on="1"/>
        <pt x="271" y="1054" on="1"/>
        <pt x="384" y="1054" on="1"/>
        <pt x="228" y="270" on="1"/>
        <pt x="220" y="228" on="0"/>
        <pt x="220" y="201" on="1"/>
        <pt x="220" y="145" on="0"/>
        <pt x="277" y="90" on="0"/>
        <pt x="338" y="90" on="1"/>
        <pt x="407" y="90" on="0"/>
        <pt x="538" y="168" on="0"/>
        <pt x="632" y="252" on="1"/>
        <pt x="742" y="345" on="1"/>
        <pt x="885" y="1054" on="1"/>
        <pt x="998" y="1054" on="1"/>
        <pt x="788" y="0" on="1"/>
        <pt x="675" y="0" on="1"/>
        <pt x="722" y="229" on="1"/>
        <pt x="652" y="162" on="1"/>
        <pt x="587" y="103" on="0"/>
        <pt x="487" y="29" on="0"/>
        <pt x="378" y="-15" on="0"/>
        <pt x="317" y="-15" on="1"/>
      </contour>
    </TTGlyph>
    <TTGlyph name="uacute" xMin="1" yMin="-15" xMax="963" yMax="1648">
      <component glyphName="u" x="-105" y="0" flags="0x400"/>
      <component glyphName="acutecomb" x="-104" y="5" flags="0x4"/>
    </TTGlyph>
    <TTGlyph name="ubreve" xMin="1" yMin="-15" xMax="930" yMax="1596">
      <component glyphName="u" x="-105" y="0" flags="0x400"/>
      <component glyphName="uni0306" x="-104" y="5" flags="0x4"/>
    </TTGlyph>
    <TTGlyph name="ucircumflex" xMin="1" yMin="-15" xMax="893" yMax="1648">
      <component glyphName="u" x="-105" y="0" flags="0x400"/>
      <component glyphName="uni0302" x="-104" y="5" flags="0x4"/>
    </TTGlyph>
    <TTGlyph name="udieresis" xMin="1" yMin="-15" xMax="914" yMax="1529">
      <component glyphName="u" x="-105" y="0" flags="0x400"/>
      <component glyphName="uni0308" x="-104" y="5" flags="0x4"/>
    </TTGlyph>
    <TTGlyph name="ugrave" xMin="1" yMin="-15" xMax="893" yMax="1648">
      <component glyphName="u" x="-105" y="0" flags="0x400"/>
      <component glyphName="gravecomb" x="-104" y="5" flags="0x4"/>
    </TTGlyph>
    <TTGlyph name="umacron" xMin="1" yMin="-15" xMax="908" yMax="1476">
      <component glyphName="u" x="-105" y="0" flags="0x400"/>
      <component glyphName="uni0304" x="-104" y="5" flags="0x4"/>
    </TTGlyph>
    <TTGlyph name="underscore" xMin="46" yMin="0" xMax="830" yMax="136">
      <contour>
        <pt x="803" y="0" on="1"/>
        <pt x="46" y="0" on="1"/>
        <pt x="73" y="136" on="1"/>
        <pt x="830" y="136" on="1"/>
      </contour>
    </TTGlyph>
    <TTGlyph name="uni004A0301" xMin="-29" yMin="-23" xMax="1038" yMax="1870">
      <component glyphName="J" x="-105" y="0" flags="0x400"/>
      <component glyphName="acutecomb.case" x="-74" y="0" flags="0x0"/>
    </TTGlyph>
    <TTGlyph name="uni006A0301" xMin="-51" yMin="-280" xMax="1018" yMax="1648">
      <component glyphName="uni0237" x="-105" y="0" flags="0x400"/>
      <component glyphName="acutecomb" x="-49" y="5" flags="0x4"/>
    </TTGlyph>
    <TTGlyph name="uni00AD" xMin="62" yMin="605" xMax="845" yMax="738">
      <component glyphName="hyphen" x="-105" y="0" flags="0x400"/>
    </TTGlyph>
    <TTGlyph name="uni00B5" xMin="-15" yMin="-303" xMax="998" yMax="1054">
      <contour>
        <pt x="106" y="303" on="1"/>
        <pt x="121" y="303" on="1"/>
        <pt x="271" y="1054" on="1"/>
        <pt x="384" y="1054" on="1"/>
        <pt x="234" y="303" on="1"/>
        <pt x="258" y="303" on="1"/>
        <pt x="226" y="151" on="1"/>
        <pt x="237" y="119" on="0"/>
        <pt x="292" y="90" on="0"/>
        <pt x="338" y="90" on="1"/>
        <pt x="407" y="90" on="0"/>
        <pt x="538" y="168" on="0"/>
        <pt x="632" y="252" on="1"/>
        <pt x="742" y="345" on="1"/>
        <pt x="885" y="1054" on="1"/>
        <pt x="998" y="1054" on="1"/>
        <pt x="788" y="0" on="1"/>
        <pt x="675" y="0" on="1"/>
        <pt x="722" y="229" on="1"/>
        <pt x="652" y="162" on="1"/>
        <pt x="587" y="103" on="0"/>
        <pt x="487" y="29" on="0"/>
        <pt x="378" y="-15" on="0"/>
        <pt x="317" y="-15" on="1"/>
        <pt x="254" y="-15" on="0"/>
        <pt x="203" y="7" on="1"/>
        <pt x="137" y="-303" on="1"/>
        <pt x="-15" y="-303" on="1"/>
      </contour>
    </TTGlyph>
    <TTGlyph name="uni0122" xMin="142" yMin="-303" xMax="1033" yMax="1382">
      <contour>
        <pt x="142" y="-21" on="0"/>
        <pt x="142" y="390" on="1"/>
        <pt x="142" y="521" on="0"/>
        <pt x="176" y="690" on="1"/>
        <pt x="244" y="1033" on="0"/>
        <pt x="535" y="1382" on="0"/>
        <pt x="753" y="1382" on="1"/>
        <pt x="830" y="1382" on="0"/>
        <pt x="965" y="1340" on="0"/>
        <pt x="1033" y="1295" on="1"/>
        <pt x="982" y="1210" on="1"/>
        <pt x="918" y="1247" on="0"/>
        <pt x="805" y="1280" on="0"/>
        <pt x="748" y="1280" on="1"/>
        <pt x="578" y="1280" on="0"/>
        <pt x="349" y="979" on="0"/>
        <pt x="288" y="672" on="1"/>
        <pt x="255" y="506" on="0"/>
        <pt x="255" y="388" on="1"/>
        <pt x="255" y="232" on="0"/>
        <pt x="373" y="81" on="0"/>
        <pt x="495" y="81" on="1"/>
        <pt x="586" y="81" on="0"/>
        <pt x="694" y="114" on="1"/>
        <pt x="772" y="486" on="1"/>
        <pt x="510" y="486" on="1"/>
        <pt x="530" y="588" on="1"/>
        <pt x="905" y="588" on="1"/>
        <pt x="800" y="45" on="1"/>
        <pt x="637" y="-21" on="0"/>
        <pt x="480" y="-21" on="1"/>
      </contour>
      <contour>
        <pt x="298" y="-91" on="1"/>
        <pt x="546" y="-91" on="1"/>
        <pt x="334" y="-303" on="1"/>
        <pt x="217" y="-303" on="1"/>
      </contour>
    </TTGlyph>
    <TTGlyph name="uni0123" xMin="-39" yMin="-318" xMax="1004" yMax="1581">
      <contour>
        <pt x="223" y="136" on="0"/>
        <pt x="90" y="276" on="0"/>
        <pt x="90" y="407" on="1"/>
        <pt x="90" y="468" on="0"/>
        <pt x="105" y="540" on="1"/>
        <pt x="139" y="711" on="0"/>
        <pt x="312" y="955" on="0"/>
        <pt x="548" y="1080" on="0"/>
        <pt x="676" y="1080" on="1"/>
        <pt x="765" y="1080" on="0"/>
        <pt x="920" y="1050" on="0"/>
        <pt x="1004" y="1024" on="1"/>
        <pt x="822" y="98" on="1"/>
        <pt x="795" y="-36" on="0"/>
        <pt x="659" y="-223" on="0"/>
        <pt x="462" y="-318" on="0"/>
        <pt x="346" y="-318" on="1"/>
        <pt x="141" y="-318" on="0"/>
        <pt x="-39" y="-187" on="1"/>
        <pt x="38" y="-80" on="1"/>
        <pt x="112" y="-131" on="0"/>
        <pt x="255" y="-182" on="0"/>
        <pt x="336" y="-182" on="1"/>
        <pt x="475" y="-182" on="0"/>
        <pt x="642" y="-41" on="0"/>
        <pt x="669" y="93" on="1"/>
        <pt x="722" y="352" on="1"/>
        <pt x="682" y="306" on="1"/>
        <pt x="517" y="136" on="0"/>
        <pt x="350" y="136" on="1"/>
      </contour>
      <contour>
        <pt x="450" y="272" on="0"/>
        <pt x="579" y="348" on="0"/>
        <pt x="660" y="430" on="1"/>
        <pt x="753" y="518" on="1"/>
        <pt x="841" y="935" on="1"/>
        <pt x="812" y="942" on="0"/>
        <pt x="731" y="951" on="0"/>
        <pt x="694" y="951" on="1"/>
        <pt x="530" y="951" on="0"/>
        <pt x="303" y="737" on="0"/>
        <pt x="262" y="534" on="1"/>
        <pt x="249" y="464" on="0"/>
        <pt x="249" y="422" on="1"/>
        <pt x="249" y="343" on="0"/>
        <pt x="318" y="272" on="0"/>
        <pt x="385" y="272" on="1"/>
      </contour>
      <contour>
        <pt x="841" y="1581" on="1"/>
        <pt x="982" y="1581" on="1"/>
        <pt x="825" y="1252" on="1"/>
        <pt x="556" y="1252" on="1"/>
      </contour>
    </TTGlyph>
    <TTGlyph name="uni0136" xMin="61" yMin="-303" xMax="1100" yMax="1362">
      <contour>
        <pt x="333" y="1362" on="1"/>
        <pt x="446" y="1362" on="1"/>
        <pt x="318" y="728" on="1"/>
        <pt x="962" y="1362" on="1"/>
        <pt x="1100" y="1362" on="1"/>
        <pt x="417" y="702" on="1"/>
        <pt x="856" y="0" on="1"/>
        <pt x="711" y="0" on="1"/>
        <pt x="308" y="663" on="1"/>
        <pt x="174" y="0" on="1"/>
        <pt x="61" y="0" on="1"/>
      </contour>
      <contour>
        <pt x="298" y="-91" on="1"/>
        <pt x="546" y="-91" on="1"/>
        <pt x="334" y="-303" on="1"/>
        <pt x="217" y="-303" on="1"/>
      </contour>
    </TTGlyph>
    <TTGlyph name="uni0137" xMin="46" yMin="-303" xMax="1031" yMax="1513">
      <contour>
        <pt x="46" y="0" on="1"/>
        <pt x="348" y="1513" on="1"/>
        <pt x="500" y="1513" on="1"/>
        <pt x="318" y="607" on="1"/>
        <pt x="848" y="1059" on="1"/>
        <pt x="1031" y="1059" on="1"/>
        <pt x="439" y="563" on="1"/>
        <pt x="839" y="0" on="1"/>
        <pt x="641" y="0" on="1"/>
        <pt x="298" y="496" on="1"/>
        <pt x="198" y="0" on="1"/>
      </contour>
      <contour>
        <pt x="298" y="-91" on="1"/>
        <pt x="546" y="-91" on="1"/>
        <pt x="334" y="-303" on="1"/>
        <pt x="217" y="-303" on="1"/>
      </contour>
    </TTGlyph>
    <TTGlyph name="uni013B" xMin="61" yMin="-303" xMax="808" yMax="1362">
      <contour>
        <pt x="333" y="1362" on="1"/>
        <pt x="446" y="1362" on="1"/>
        <pt x="194" y="102" on="1"/>
        <pt x="808" y="102" on="1"/>
        <pt x="788" y="0" on="1"/>
        <pt x="61" y="0" on="1"/>
      </contour>
      <contour>
        <pt x="298" y="-91" on="1"/>
        <pt x="546" y="-91" on="1"/>
        <pt x="334" y="-303" on="1"/>
        <pt x="217" y="-303" on="1"/>
      </contour>
    </TTGlyph>
    <TTGlyph name="uni013C" xMin="46" yMin="-303" xMax="825" yMax="1524">
      <contour>
        <pt x="68" y="113" on="1"/>
        <pt x="375" y="132" on="1"/>
        <pt x="627" y="1392" on="1"/>
        <pt x="343" y="1392" on="1"/>
        <pt x="366" y="1505" on="1"/>
        <pt x="736" y="1524" on="1"/>
        <pt x="804" y="1524" on="1"/>
        <pt x="526" y="132" on="1"/>
        <pt x="825" y="113" on="1"/>
        <pt x="803" y="0" on="1"/>
        <pt x="46" y="0" on="1"/>
      </contour>
      <contour>
        <pt x="298" y="-91" on="1"/>
        <pt x="546" y="-91" on="1"/>
        <pt x="334" y="-303" on="1"/>
        <pt x="217" y="-303" on="1"/>
      </contour>
    </TTGlyph>
    <TTGlyph name="uni0145" xMin="61" yMin="-303" xMax="1060" yMax="1362">
      <contour>
        <pt x="333" y="1362" on="1"/>
        <pt x="458" y="1362" on="1"/>
        <pt x="740" y="295" on="1"/>
        <pt x="955" y="1362" on="1"/>
        <pt x="1060" y="1362" on="1"/>
        <pt x="788" y="0" on="1"/>
        <pt x="695" y="0" on="1"/>
        <pt x="394" y="1137" on="1"/>
        <pt x="166" y="0" on="1"/>
        <pt x="61" y="0" on="1"/>
      </contour>
      <contour>
        <pt x="298" y="-91" on="1"/>
        <pt x="546" y="-91" on="1"/>
        <pt x="334" y="-303" on="1"/>
        <pt x="217" y="-303" on="1"/>
      </contour>
    </TTGlyph>
    <TTGlyph name="uni0146" xMin="61" yMin="-303" xMax="953" yMax="1069">
      <contour>
        <pt x="271" y="1054" on="1"/>
        <pt x="384" y="1054" on="1"/>
        <pt x="337" y="826" on="1"/>
        <pt x="408" y="893" on="1"/>
        <pt x="505" y="982" on="0"/>
        <pt x="654" y="1069" on="0"/>
        <pt x="742" y="1069" on="1"/>
        <pt x="846" y="1069" on="0"/>
        <pt x="953" y="967" on="0"/>
        <pt x="953" y="869" on="1"/>
        <pt x="953" y="828" on="0"/>
        <pt x="944" y="780" on="1"/>
        <pt x="788" y="0" on="1"/>
        <pt x="675" y="0" on="1"/>
        <pt x="831" y="784" on="1"/>
        <pt x="839" y="826" on="0"/>
        <pt x="839" y="853" on="1"/>
        <pt x="839" y="909" on="0"/>
        <pt x="782" y="964" on="0"/>
        <pt x="721" y="964" on="1"/>
        <pt x="652" y="964" on="0"/>
        <pt x="521" y="886" on="0"/>
        <pt x="427" y="802" on="1"/>
        <pt x="317" y="709" on="1"/>
        <pt x="174" y="0" on="1"/>
        <pt x="61" y="0" on="1"/>
      </contour>
      <contour>
        <pt x="298" y="-91" on="1"/>
        <pt x="546" y="-91" on="1"/>
        <pt x="334" y="-303" on="1"/>
        <pt x="217" y="-303" on="1"/>
      </contour>
    </TTGlyph>
    <TTGlyph name="uni0156" xMin="61" yMin="-303" xMax="985" yMax="1362">
      <contour>
        <pt x="333" y="1362" on="1"/>
        <pt x="621" y="1362" on="1"/>
        <pt x="802" y="1362" on="0"/>
        <pt x="985" y="1208" on="0"/>
        <pt x="985" y="1068" on="1"/>
        <pt x="985" y="1024" on="0"/>
        <pt x="974" y="967" on="1"/>
        <pt x="944" y="816" on="0"/>
        <pt x="745" y="619" on="0"/>
        <pt x="583" y="596" on="1"/>
        <pt x="818" y="0" on="1"/>
        <pt x="681" y="0" on="1"/>
        <pt x="463" y="584" on="1"/>
        <pt x="290" y="584" on="1"/>
        <pt x="174" y="0" on="1"/>
        <pt x="61" y="0" on="1"/>
      </contour>
      <contour>
        <pt x="653" y="686" on="0"/>
        <pt x="829" y="837" on="0"/>
        <pt x="857" y="979" on="1"/>
        <pt x="866" y="1023" on="0"/>
        <pt x="866" y="1060" on="1"/>
        <pt x="866" y="1259" on="0"/>
        <pt x="610" y="1259" on="1"/>
        <pt x="425" y="1259" on="1"/>
        <pt x="311" y="686" on="1"/>
        <pt x="506" y="686" on="1"/>
      </contour>
      <contour>
        <pt x="298" y="-91" on="1"/>
        <pt x="546" y="-91" on="1"/>
        <pt x="334" y="-303" on="1"/>
        <pt x="217" y="-303" on="1"/>
      </contour>
    </TTGlyph>
    <TTGlyph name="uni0157" xMin="66" yMin="-303" xMax="1033" yMax="1074">
      <contour>
        <pt x="945" y="1074" on="0"/>
        <pt x="1008" y="1066" on="0"/>
        <pt x="1033" y="1062" on="1"/>
        <pt x="985" y="914" on="1"/>
        <pt x="929" y="927" on="0"/>
        <pt x="884" y="927" on="1"/>
        <pt x="800" y="927" on="0"/>
        <pt x="656" y="834" on="0"/>
        <pt x="566" y="739" on="1"/>
        <pt x="481" y="656" on="1"/>
        <pt x="349" y="0" on="1"/>
        <pt x="198" y="0" on="1"/>
        <pt x="385" y="938" on="1"/>
        <pt x="177" y="938" on="1"/>
        <pt x="200" y="1051" on="1"/>
        <pt x="495" y="1070" on="1"/>
        <pt x="563" y="1070" on="1"/>
        <pt x="512" y="823" on="1"/>
        <pt x="550" y="870" on="1"/>
        <pt x="639" y="968" on="0"/>
        <pt x="808" y="1074" on="0"/>
        <pt x="913" y="1074" on="1"/>
      </contour>
      <contour>
        <pt x="147" y="-91" on="1"/>
        <pt x="395" y="-91" on="1"/>
        <pt x="183" y="-303" on="1"/>
        <pt x="66" y="-303" on="1"/>
      </contour>
    </TTGlyph>
    <TTGlyph name="uni0162" xMin="81" yMin="-303" xMax="1092" yMax="1362">
      <contour>
        <pt x="142" y="-303" on="0"/>
        <pt x="81" y="-286" on="1"/>
        <pt x="113" y="-162" on="1"/>
        <pt x="141" y="-166" on="0"/>
        <pt x="188" y="-166" on="1"/>
        <pt x="258" y="-166" on="0"/>
        <pt x="336" y="-105" on="0"/>
        <pt x="349" y="-42" on="1"/>
        <pt x="355" y="-11" on="0"/>
        <pt x="358" y="30" on="1"/>
        <pt x="373" y="26" on="1"/>
        <pt x="619" y="1259" on="1"/>
        <pt x="280" y="1259" on="1"/>
        <pt x="301" y="1362" on="1"/>
        <pt x="1092" y="1362" on="1"/>
        <pt x="1071" y="1259" on="1"/>
        <pt x="732" y="1259" on="1"/>
        <pt x="484" y="26" on="1"/>
        <pt x="489" y="22" on="1"/>
        <pt x="489" y="-44" on="0"/>
        <pt x="479" y="-92" on="1"/>
        <pt x="458" y="-197" on="0"/>
        <pt x="309" y="-303" on="0"/>
        <pt x="207" y="-303" on="1"/>
      </contour>
    </TTGlyph>
    <TTGlyph name="uni0163" xMin="193" yMin="-303" xMax="961" yMax="1346">
      <contour>
        <pt x="272" y="-303" on="0"/>
        <pt x="211" y="-286" on="1"/>
        <pt x="243" y="-162" on="1"/>
        <pt x="271" y="-166" on="0"/>
        <pt x="318" y="-166" on="1"/>
        <pt x="388" y="-166" on="0"/>
        <pt x="466" y="-105" on="0"/>
        <pt x="479" y="-42" on="1"/>
        <pt x="479" y="-40" on="0"/>
        <pt x="483" y="-23" on="0"/>
        <pt x="487" y="-13" on="1"/>
        <pt x="387" y="-8" on="0"/>
        <pt x="282" y="96" on="0"/>
        <pt x="282" y="194" on="1"/>
        <pt x="282" y="237" on="0"/>
        <pt x="292" y="284" on="1"/>
        <pt x="420" y="923" on="1"/>
        <pt x="193" y="923" on="1"/>
        <pt x="220" y="1059" on="1"/>
        <pt x="447" y="1059" on="1"/>
        <pt x="505" y="1346" on="1"/>
        <pt x="656" y="1346" on="1"/>
        <pt x="598" y="1059" on="1"/>
        <pt x="961" y="1059" on="1"/>
        <pt x="934" y="923" on="1"/>
        <pt x="571" y="923" on="1"/>
        <pt x="444" y="285" on="1"/>
        <pt x="437" y="253" on="0"/>
        <pt x="437" y="224" on="1"/>
        <pt x="437" y="169" on="0"/>
        <pt x="502" y="121" on="0"/>
        <pt x="575" y="121" on="1"/>
        <pt x="652" y="121" on="0"/>
        <pt x="760" y="149" on="1"/>
        <pt x="768" y="22" on="1"/>
        <pt x="696" y="1" on="0"/>
        <pt x="622" y="-16" on="1"/>
        <pt x="621" y="-20" on="0"/>
        <pt x="616" y="-52" on="1"/>
        <pt x="611" y="-85" on="0"/>
        <pt x="609" y="-92" on="1"/>
        <pt x="588" y="-197" on="0"/>
        <pt x="439" y="-303" on="0"/>
        <pt x="337" y="-303" on="1"/>
      </contour>
    </TTGlyph>
    <TTGlyph name="uni018F" xMin="135" yMin="-19" xMax="982" yMax="1380">
      <contour>
        <pt x="286" y="-19" on="0"/>
        <pt x="135" y="185" on="0"/>
        <pt x="135" y="382" on="1"/>
        <pt x="135" y="534" on="0"/>
        <pt x="182" y="732" on="1"/>
        <pt x="844" y="732" on="1"/>
        <pt x="868" y="867" on="0"/>
        <pt x="868" y="966" on="1"/>
        <pt x="868" y="1126" on="0"/>
        <pt x="745" y="1278" on="0"/>
        <pt x="620" y="1278" on="1"/>
        <pt x="556" y="1278" on="0"/>
        <pt x="425" y="1247" on="0"/>
        <pt x="353" y="1220" on="1"/>
        <pt x="335" y="1316" on="1"/>
        <pt x="497" y="1380" on="0"/>
        <pt x="632" y="1380" on="1"/>
        <pt x="800" y="1380" on="0"/>
        <pt x="982" y="1176" on="0"/>
        <pt x="982" y="961" on="1"/>
        <pt x="982" y="837" on="0"/>
        <pt x="949" y="670" on="1"/>
        <pt x="880" y="330" on="0"/>
        <pt x="606" y="-19" on="0"/>
        <pt x="419" y="-19" on="1"/>
      </contour>
      <contour>
        <pt x="246" y="477" on="0"/>
        <pt x="246" y="366" on="1"/>
        <pt x="246" y="230" on="0"/>
        <pt x="335" y="80" on="0"/>
        <pt x="426" y="80" on="1"/>
        <pt x="570" y="80" on="0"/>
        <pt x="764" y="365" on="0"/>
        <pt x="823" y="630" on="1"/>
        <pt x="275" y="622" on="1"/>
      </contour>
    </TTGlyph>
    <TTGlyph name="uni01CD" xMin="-126" yMin="0" xMax="1010" yMax="1870">
      <component glyphName="A" x="-105" y="0" flags="0x400"/>
      <component glyphName="uni030C.case" x="-105" y="0" flags="0x0"/>
    </TTGlyph>
    <TTGlyph name="uni01CE" xMin="-34" yMin="-15" xMax="965" yMax="1643">
      <component glyphName="a" x="-105" y="0" flags="0x400"/>
      <component glyphName="uni030C" x="-105" y="0" flags="0x0"/>
    </TTGlyph>
    <TTGlyph name="uni01CF" xMin="32" yMin="0" xMax="1011" yMax="1870">
      <component glyphName="I" x="-105" y="0" flags="0x400"/>
      <component glyphName="uni030C.case" x="-104" y="0" flags="0x0"/>
    </TTGlyph>
    <TTGlyph name="uni01D0" xMin="-51" yMin="0" xMax="965" yMax="1648">
      <component glyphName="dotlessi" x="-105" y="0" flags="0x400"/>
      <component glyphName="uni030C" x="-105" y="5" flags="0x4"/>
    </TTGlyph>
    <TTGlyph name="uni01D1" xMin="9" yMin="-19" xMax="1010" yMax="1870">
      <component glyphName="O" x="-105" y="0" flags="0x400"/>
      <component glyphName="uni030C.case" x="-105" y="0" flags="0x0"/>
    </TTGlyph>
    <TTGlyph name="uni01D2" xMin="-5" yMin="-19" xMax="965" yMax="1643">
      <component glyphName="o" x="-105" y="0" flags="0x400"/>
      <component glyphName="uni030C" x="-105" y="0" flags="0x0"/>
    </TTGlyph>
    <TTGlyph name="uni01D3" xMin="17" yMin="-23" xMax="1020" yMax="1870">
      <component glyphName="U" x="-105" y="0" flags="0x400"/>
      <component glyphName="uni030C.case" x="-95" y="0" flags="0x0"/>
    </TTGlyph>
    <TTGlyph name="uni01D4" xMin="1" yMin="-15" xMax="966" yMax="1648">
      <component glyphName="u" x="-105" y="0" flags="0x400"/>
      <component glyphName="uni030C" x="-104" y="5" flags="0x4"/>
    </TTGlyph>
</ttFont>
